/* XPM */
static const char *logo1[]={
"32 32 10 1",
"b c #808080",
"e c #ffa858",
"c c #00ff00",
"f c #004000",
"d c #c05800",
"# c #000000",
". c None",
"g c #585858",
"h c #a0a0a4",
"a c #ffffff",
"................................",
".##############################.",
"#aaaaaaaaaaaaaaaaaaaaaaaaaaaaab#",
"#a............................b#",
"#a.bbbbbbbbbbbbbbbbbbbbbbbbbb.b#",
"#a.b########################a.b#",
"#a.b#c######################a.b#",
"#a.b##c#####################a.b#",
"#a.b#c######################a.b#",
"#a.b####ccc#####ddddddddddd#a.b#",
"#a.b###########dddddddddddddd.##",
"#a.b############ddddddddd#######",
"#a.b#aa##a#######eddddd#########",
"#a.b#a#a#a#######eeed###########",
"#a.b#a#a#a#######eee############",
"#a.b#aa##a#######dde############",
"#a.b#aa##a######eeeeed#eee######",
"#a.b#a#a#a#####eeeeeed#eee######",
"#a.b#a#a#aaaa###ddeeee#dde##ded#",
"#a.b############dddee#eeee##eee#",
"#a.baaaaaaaaaaaa#eee#eeeeeeeeee#",
"#a...............#eeff#eeeeeee##",
"#a............b.b.##ee#ddeeeee##",
"#ab.................#ee#eeeeeee#",
".#bbbbbbbbbbbbbbbbb#eeee###eeee#",
"..#################eeee##a#eeee#",
".........#gbh..aa.#ee##aa#eeeed#",
".........#gbh..aa.h##g#a#eeed##.",
"......###################ed##...",
".....#aaaaaaaaaaaaaaaaaa###.....",
".....#bbbbbbbbbbbbbbbbbbb#......",
".....#####################......"};
