<?xml version="1.0" encoding="UTF-8" standalone="no"?>
<!DOCTYPE svg PUBLIC "-//W3C//DTD SVG 1.1//EN"
 "http://www.w3.org/Graphics/SVG/1.1/DTD/svg11.dtd">
<!-- Generated by graphviz version 2.40.1 (20161225.0304)
 -->
<!-- Title: QwtIntervalSeriesData Pages: 1 -->
<svg width="126pt" height="151pt"
 viewBox="0.00 0.00 126.00 151.00" xmlns="http://www.w3.org/2000/svg" xmlns:xlink="http://www.w3.org/1999/xlink">
<g id="graph0" class="graph" transform="scale(1 1) rotate(0) translate(4 147)">
<title>QwtIntervalSeriesData</title>
<!-- Node1 -->
<g id="node1" class="node">
<title>Node1</title>
<g id="a_node1"><a xlink:title="Interface for iterating over an array of intervals.">
<polygon fill="#bfbfbf" stroke="#000000" points="1,-.5 1,-19.5 117,-19.5 117,-.5 1,-.5"/>
<text text-anchor="middle" x="59" y="-7.5" font-family="Helvetica,sans-Serif" font-size="10.00" fill="#000000">QwtIntervalSeriesData</text>
</a>
</g>
</g>
<!-- Node2 -->
<g id="node2" class="node">
<title>Node2</title>
<g id="a_node2"><a xlink:href="class_qwt_array_series_data.html" target="_top" xlink:title=" ">
<polygon fill="none" stroke="#000000" points="0,-56.5 0,-86.5 118,-86.5 118,-56.5 0,-56.5"/>
<text text-anchor="start" x="8" y="-74.5" font-family="Helvetica,sans-Serif" font-size="10.00" fill="#000000">QwtArraySeriesData</text>
<text text-anchor="middle" x="59" y="-63.5" font-family="Helvetica,sans-Serif" font-size="10.00" fill="#000000">&lt; QwtIntervalSample &gt;</text>
</a>
</g>
</g>
<!-- Node2&#45;&gt;Node1 -->
<g id="edge1" class="edge">
<title>Node2&#45;&gt;Node1</title>
<path fill="none" stroke="#191970" d="M59,-46.2849C59,-36.9858 59,-26.9883 59,-19.8469"/>
<polygon fill="#191970" stroke="#191970" points="55.5001,-46.2977 59,-56.2977 62.5001,-46.2978 55.5001,-46.2977"/>
</g>
<!-- Node3 -->
<g id="node3" class="node">
<title>Node3</title>
<g id="a_node3"><a xlink:href="class_qwt_series_data.html" target="_top" xlink:title="Abstract interface for iterating over samples.">
<polygon fill="none" stroke="#000000" points="5.5,-123.5 5.5,-142.5 112.5,-142.5 112.5,-123.5 5.5,-123.5"/>
<text text-anchor="middle" x="59" y="-130.5" font-family="Helvetica,sans-Serif" font-size="10.00" fill="#000000">QwtSeriesData&lt; T &gt;</text>
</a>
</g>
</g>
<!-- Node3&#45;&gt;Node2 -->
<g id="edge2" class="edge">
<title>Node3&#45;&gt;Node2</title>
<path fill="none" stroke="#191970" d="M59,-113.3693C59,-104.681 59,-94.6241 59,-86.5446"/>
<polygon fill="#191970" stroke="#191970" points="55.5001,-113.3906 59,-123.3906 62.5001,-113.3907 55.5001,-113.3906"/>
</g>
</g>
</svg>
