<?xml version="1.0" encoding="UTF-8" standalone="no"?>
<!DOCTYPE svg PUBLIC "-//W3C//DTD SVG 1.1//EN"
 "http://www.w3.org/Graphics/SVG/1.1/DTD/svg11.dtd">
<!-- Generated by graphviz version 2.40.1 (20161225.0304)
 -->
<!-- Title: QwtPlotAbstractBarChart Pages: 1 -->
<svg width="233pt" height="196pt"
 viewBox="0.00 0.00 233.00 196.00" xmlns="http://www.w3.org/2000/svg" xmlns:xlink="http://www.w3.org/1999/xlink">
<g id="graph0" class="graph" transform="scale(1 1) rotate(0) translate(4 192)">
<title>QwtPlotAbstractBarChart</title>
<!-- Node1 -->
<g id="node1" class="node">
<title>Node1</title>
<g id="a_node1"><a xlink:title="Abstract base class for bar chart items.">
<polygon fill="#bfbfbf" stroke="#000000" points="42,-56.5 42,-75.5 170,-75.5 170,-56.5 42,-56.5"/>
<text text-anchor="middle" x="106" y="-63.5" font-family="Helvetica,sans-Serif" font-size="10.00" fill="#000000">QwtPlotAbstractBarChart</text>
</a>
</g>
</g>
<!-- Node5 -->
<g id="node5" class="node">
<title>Node5</title>
<g id="a_node5"><a xlink:href="class_qwt_plot_bar_chart.html" target="_top" xlink:title="QwtPlotBarChart displays a series of a values as bars.">
<polygon fill="none" stroke="#000000" points="0,-.5 0,-19.5 92,-19.5 92,-.5 0,-.5"/>
<text text-anchor="middle" x="46" y="-7.5" font-family="Helvetica,sans-Serif" font-size="10.00" fill="#000000">QwtPlotBarChart</text>
</a>
</g>
</g>
<!-- Node1&#45;&gt;Node5 -->
<g id="edge4" class="edge">
<title>Node1&#45;&gt;Node5</title>
<path fill="none" stroke="#191970" d="M88.1722,-49.3607C77.7922,-39.6727 65.0709,-27.7995 56.3314,-19.6427"/>
<polygon fill="#191970" stroke="#191970" points="85.8501,-51.981 95.5488,-56.2455 90.6263,-46.8636 85.8501,-51.981"/>
</g>
<!-- Node6 -->
<g id="node6" class="node">
<title>Node6</title>
<g id="a_node6"><a xlink:href="class_qwt_plot_multi_bar_chart.html" target="_top" xlink:title="QwtPlotMultiBarChart displays a series of a samples that consist each of a set of values.">
<polygon fill="none" stroke="#000000" points="110.5,-.5 110.5,-19.5 223.5,-19.5 223.5,-.5 110.5,-.5"/>
<text text-anchor="middle" x="167" y="-7.5" font-family="Helvetica,sans-Serif" font-size="10.00" fill="#000000">QwtPlotMultiBarChart</text>
</a>
</g>
</g>
<!-- Node1&#45;&gt;Node6 -->
<g id="edge5" class="edge">
<title>Node1&#45;&gt;Node6</title>
<path fill="none" stroke="#191970" d="M124.1249,-49.3607C134.678,-39.6727 147.6112,-27.7995 156.4964,-19.6427"/>
<polygon fill="#191970" stroke="#191970" points="121.625,-46.9045 116.6254,-56.2455 126.3589,-52.0611 121.625,-46.9045"/>
</g>
<!-- Node2 -->
<g id="node2" class="node">
<title>Node2</title>
<g id="a_node2"><a xlink:href="class_qwt_plot_series_item.html" target="_top" xlink:title="Base class for plot items representing a series of samples.">
<polygon fill="none" stroke="#000000" points="56.5,-112.5 56.5,-131.5 155.5,-131.5 155.5,-112.5 56.5,-112.5"/>
<text text-anchor="middle" x="106" y="-119.5" font-family="Helvetica,sans-Serif" font-size="10.00" fill="#000000">QwtPlotSeriesItem</text>
</a>
</g>
</g>
<!-- Node2&#45;&gt;Node1 -->
<g id="edge1" class="edge">
<title>Node2&#45;&gt;Node1</title>
<path fill="none" stroke="#191970" d="M106,-102.1575C106,-93.155 106,-82.9199 106,-75.6427"/>
<polygon fill="#191970" stroke="#191970" points="102.5001,-102.2455 106,-112.2455 109.5001,-102.2456 102.5001,-102.2455"/>
</g>
<!-- Node3 -->
<g id="node3" class="node">
<title>Node3</title>
<g id="a_node3"><a xlink:href="class_qwt_plot_item.html" target="_top" xlink:title="Base class for items on the plot canvas.">
<polygon fill="none" stroke="#000000" points="13.5,-168.5 13.5,-187.5 84.5,-187.5 84.5,-168.5 13.5,-168.5"/>
<text text-anchor="middle" x="49" y="-175.5" font-family="Helvetica,sans-Serif" font-size="10.00" fill="#000000">QwtPlotItem</text>
</a>
</g>
</g>
<!-- Node3&#45;&gt;Node2 -->
<g id="edge2" class="edge">
<title>Node3&#45;&gt;Node2</title>
<path fill="none" stroke="#191970" d="M66.2271,-161.0751C76.0341,-151.4402 87.964,-139.7196 96.1851,-131.6427"/>
<polygon fill="#191970" stroke="#191970" points="63.6091,-158.7406 58.9286,-168.2455 68.5149,-163.734 63.6091,-158.7406"/>
</g>
<!-- Node4 -->
<g id="node4" class="node">
<title>Node4</title>
<g id="a_node4"><a xlink:href="class_qwt_abstract_series_store.html" target="_top" xlink:title="Bridge between QwtSeriesStore and QwtPlotSeriesItem.">
<polygon fill="none" stroke="#000000" points="103,-168.5 103,-187.5 225,-187.5 225,-168.5 103,-168.5"/>
<text text-anchor="middle" x="164" y="-175.5" font-family="Helvetica,sans-Serif" font-size="10.00" fill="#000000">QwtAbstractSeriesStore</text>
</a>
</g>
</g>
<!-- Node4&#45;&gt;Node2 -->
<g id="edge3" class="edge">
<title>Node4&#45;&gt;Node2</title>
<path fill="none" stroke="#191970" d="M146.4707,-161.0751C136.4917,-151.4402 124.3524,-139.7196 115.9871,-131.6427"/>
<polygon fill="#191970" stroke="#191970" points="144.272,-163.8175 153.8972,-168.2455 149.1342,-158.7817 144.272,-163.8175"/>
</g>
</g>
</svg>
