<?xml version="1.0" encoding="UTF-8" standalone="no"?>
<!DOCTYPE svg PUBLIC "-//W3C//DTD SVG 1.1//EN"
 "http://www.w3.org/Graphics/SVG/1.1/DTD/svg11.dtd">
<!-- Generated by graphviz version 2.40.1 (20161225.0304)
 -->
<!-- Title: QwtAnalogClock Pages: 1 -->
<svg width="104pt" height="252pt"
 viewBox="0.00 0.00 104.00 252.00" xmlns="http://www.w3.org/2000/svg" xmlns:xlink="http://www.w3.org/1999/xlink">
<g id="graph0" class="graph" transform="scale(1 1) rotate(0) translate(4 248)">
<title>QwtAnalogClock</title>
<!-- Node1 -->
<g id="node1" class="node">
<title>Node1</title>
<g id="a_node1"><a xlink:title="An analog clock.">
<polygon fill="#bfbfbf" stroke="#000000" points="3,-.5 3,-19.5 93,-19.5 93,-.5 3,-.5"/>
<text text-anchor="middle" x="48" y="-7.5" font-family="Helvetica,sans-Serif" font-size="10.00" fill="#000000">QwtAnalogClock</text>
</a>
</g>
</g>
<!-- Node2 -->
<g id="node2" class="node">
<title>Node2</title>
<g id="a_node2"><a xlink:href="class_qwt_dial.html" target="_top" xlink:title="QwtDial class provides a rounded range control.">
<polygon fill="none" stroke="#000000" points="22,-56.5 22,-75.5 74,-75.5 74,-56.5 22,-56.5"/>
<text text-anchor="middle" x="48" y="-63.5" font-family="Helvetica,sans-Serif" font-size="10.00" fill="#000000">QwtDial</text>
</a>
</g>
</g>
<!-- Node2&#45;&gt;Node1 -->
<g id="edge1" class="edge">
<title>Node2&#45;&gt;Node1</title>
<path fill="none" stroke="#191970" d="M48,-46.1575C48,-37.155 48,-26.9199 48,-19.6427"/>
<polygon fill="#191970" stroke="#191970" points="44.5001,-46.2455 48,-56.2455 51.5001,-46.2456 44.5001,-46.2455"/>
</g>
<!-- Node3 -->
<g id="node3" class="node">
<title>Node3</title>
<g id="a_node3"><a xlink:href="class_qwt_abstract_slider.html" target="_top" xlink:title="An abstract base class for slider widgets with a scale.">
<polygon fill="none" stroke="#000000" points="0,-112.5 0,-131.5 96,-131.5 96,-112.5 0,-112.5"/>
<text text-anchor="middle" x="48" y="-119.5" font-family="Helvetica,sans-Serif" font-size="10.00" fill="#000000">QwtAbstractSlider</text>
</a>
</g>
</g>
<!-- Node3&#45;&gt;Node2 -->
<g id="edge2" class="edge">
<title>Node3&#45;&gt;Node2</title>
<path fill="none" stroke="#191970" d="M48,-102.1575C48,-93.155 48,-82.9199 48,-75.6427"/>
<polygon fill="#191970" stroke="#191970" points="44.5001,-102.2455 48,-112.2455 51.5001,-102.2456 44.5001,-102.2455"/>
</g>
<!-- Node4 -->
<g id="node4" class="node">
<title>Node4</title>
<g id="a_node4"><a xlink:href="class_qwt_abstract_scale.html" target="_top" xlink:title="An abstract base class for widgets having a scale.">
<polygon fill="none" stroke="#000000" points="0,-168.5 0,-187.5 96,-187.5 96,-168.5 0,-168.5"/>
<text text-anchor="middle" x="48" y="-175.5" font-family="Helvetica,sans-Serif" font-size="10.00" fill="#000000">QwtAbstractScale</text>
</a>
</g>
</g>
<!-- Node4&#45;&gt;Node3 -->
<g id="edge3" class="edge">
<title>Node4&#45;&gt;Node3</title>
<path fill="none" stroke="#191970" d="M48,-158.1575C48,-149.155 48,-138.9199 48,-131.6427"/>
<polygon fill="#191970" stroke="#191970" points="44.5001,-158.2455 48,-168.2455 51.5001,-158.2456 44.5001,-158.2455"/>
</g>
<!-- Node5 -->
<g id="node5" class="node">
<title>Node5</title>
<g id="a_node5"><a xlink:title=" ">
<polygon fill="none" stroke="#bfbfbf" points="20.5,-224.5 20.5,-243.5 75.5,-243.5 75.5,-224.5 20.5,-224.5"/>
<text text-anchor="middle" x="48" y="-231.5" font-family="Helvetica,sans-Serif" font-size="10.00" fill="#000000">QWidget</text>
</a>
</g>
</g>
<!-- Node5&#45;&gt;Node4 -->
<g id="edge4" class="edge">
<title>Node5&#45;&gt;Node4</title>
<path fill="none" stroke="#191970" d="M48,-214.1575C48,-205.155 48,-194.9199 48,-187.6427"/>
<polygon fill="#191970" stroke="#191970" points="44.5001,-214.2455 48,-224.2455 51.5001,-214.2456 44.5001,-214.2455"/>
</g>
</g>
</svg>
