<?xml version="1.0" encoding="UTF-8" standalone="no"?>
<!DOCTYPE svg PUBLIC "-//W3C//DTD SVG 1.1//EN"
 "http://www.w3.org/Graphics/SVG/1.1/DTD/svg11.dtd">
<!-- Generated by graphviz version 2.40.1 (20161225.0304)
 -->
<!-- Title: QwtPlotVectorField Pages: 1 -->
<svg width="266pt" height="151pt"
 viewBox="0.00 0.00 265.50 151.00" xmlns="http://www.w3.org/2000/svg" xmlns:xlink="http://www.w3.org/1999/xlink">
<g id="graph0" class="graph" transform="scale(1 1) rotate(0) translate(4 147)">
<title>QwtPlotVectorField</title>
<!-- Node1 -->
<g id="node1" class="node">
<title>Node1</title>
<g id="a_node1"><a xlink:title="A plot item, that represents a vector field.">
<polygon fill="#bfbfbf" stroke="#000000" points="68,-.5 68,-19.5 169,-19.5 169,-.5 68,-.5"/>
<text text-anchor="middle" x="118.5" y="-7.5" font-family="Helvetica,sans-Serif" font-size="10.00" fill="#000000">QwtPlotVectorField</text>
</a>
</g>
</g>
<!-- Node2 -->
<g id="node2" class="node">
<title>Node2</title>
<g id="a_node2"><a xlink:href="class_qwt_plot_series_item.html" target="_top" xlink:title="Base class for plot items representing a series of samples.">
<polygon fill="none" stroke="#000000" points="0,-62 0,-81 99,-81 99,-62 0,-62"/>
<text text-anchor="middle" x="49.5" y="-69" font-family="Helvetica,sans-Serif" font-size="10.00" fill="#000000">QwtPlotSeriesItem</text>
</a>
</g>
</g>
<!-- Node2&#45;&gt;Node1 -->
<g id="edge1" class="edge">
<title>Node2&#45;&gt;Node1</title>
<path fill="none" stroke="#191970" d="M67.9581,-55.0482C80.6008,-43.7798 96.9406,-29.216 107.5667,-19.7449"/>
<polygon fill="#191970" stroke="#191970" points="65.4176,-52.6241 60.2813,-61.8906 70.0752,-57.8497 65.4176,-52.6241"/>
</g>
<!-- Node3 -->
<g id="node3" class="node">
<title>Node3</title>
<g id="a_node3"><a xlink:href="class_qwt_plot_item.html" target="_top" xlink:title="Base class for items on the plot canvas.">
<polygon fill="none" stroke="#000000" points="14,-123.5 14,-142.5 85,-142.5 85,-123.5 14,-123.5"/>
<text text-anchor="middle" x="49.5" y="-130.5" font-family="Helvetica,sans-Serif" font-size="10.00" fill="#000000">QwtPlotItem</text>
</a>
</g>
</g>
<!-- Node3&#45;&gt;Node2 -->
<g id="edge2" class="edge">
<title>Node3&#45;&gt;Node2</title>
<path fill="none" stroke="#191970" d="M49.5,-113.2462C49.5,-102.5519 49.5,-89.814 49.5,-81.2449"/>
<polygon fill="#191970" stroke="#191970" points="46.0001,-113.3906 49.5,-123.3906 53.0001,-113.3907 46.0001,-113.3906"/>
</g>
<!-- Node4 -->
<g id="node4" class="node">
<title>Node4</title>
<g id="a_node4"><a xlink:href="class_qwt_abstract_series_store.html" target="_top" xlink:title="Bridge between QwtSeriesStore and QwtPlotSeriesItem.">
<polygon fill="none" stroke="#000000" points="114.5,-123.5 114.5,-142.5 236.5,-142.5 236.5,-123.5 114.5,-123.5"/>
<text text-anchor="middle" x="175.5" y="-130.5" font-family="Helvetica,sans-Serif" font-size="10.00" fill="#000000">QwtAbstractSeriesStore</text>
</a>
</g>
</g>
<!-- Node4&#45;&gt;Node2 -->
<g id="edge3" class="edge">
<title>Node4&#45;&gt;Node2</title>
<path fill="none" stroke="#191970" d="M146.5739,-118.8813C122.8119,-107.2832 89.7997,-91.1701 69.0493,-81.0419"/>
<polygon fill="#191970" stroke="#191970" points="145.2906,-122.1496 155.8125,-123.3906 148.3611,-115.8589 145.2906,-122.1496"/>
</g>
<!-- Node5 -->
<g id="node5" class="node">
<title>Node5</title>
<g id="a_node5"><a xlink:href="class_qwt_series_store.html" target="_top" xlink:title=" ">
<polygon fill="none" stroke="#000000" points="117.5,-56.5 117.5,-86.5 257.5,-86.5 257.5,-56.5 117.5,-56.5"/>
<text text-anchor="start" x="125.5" y="-74.5" font-family="Helvetica,sans-Serif" font-size="10.00" fill="#000000">QwtSeriesStore&lt; QwtVector</text>
<text text-anchor="middle" x="187.5" y="-63.5" font-family="Helvetica,sans-Serif" font-size="10.00" fill="#000000">FieldSample &gt;</text>
</a>
</g>
</g>
<!-- Node4&#45;&gt;Node5 -->
<g id="edge5" class="edge">
<title>Node4&#45;&gt;Node5</title>
<path fill="none" stroke="#191970" d="M179.3304,-113.3693C181.0257,-104.681 182.988,-94.6241 184.5645,-86.5446"/>
<polygon fill="#191970" stroke="#191970" points="175.855,-112.9054 177.375,-123.3906 182.7254,-114.246 175.855,-112.9054"/>
</g>
<!-- Node5&#45;&gt;Node1 -->
<g id="edge4" class="edge">
<title>Node5&#45;&gt;Node1</title>
<path fill="none" stroke="#191970" d="M162.8725,-49.5494C151.475,-39.3907 138.5077,-27.8329 129.5478,-19.8469"/>
<polygon fill="#191970" stroke="#191970" points="160.6498,-52.2568 170.4438,-56.2977 165.3075,-47.0312 160.6498,-52.2568"/>
</g>
</g>
</svg>
