<?xml version="1.0" encoding="UTF-8" standalone="no"?>
<!DOCTYPE svg PUBLIC "-//W3C//DTD SVG 1.1//EN"
 "http://www.w3.org/Graphics/SVG/1.1/DTD/svg11.dtd">
<!-- Generated by graphviz version 2.40.1 (20161225.0304)
 -->
<!-- Title: QwtTradingChartData Pages: 1 -->
<svg width="121pt" height="151pt"
 viewBox="0.00 0.00 121.00 151.00" xmlns="http://www.w3.org/2000/svg" xmlns:xlink="http://www.w3.org/1999/xlink">
<g id="graph0" class="graph" transform="scale(1 1) rotate(0) translate(4 147)">
<title>QwtTradingChartData</title>
<!-- Node1 -->
<g id="node1" class="node">
<title>Node1</title>
<g id="a_node1"><a xlink:title=" ">
<polygon fill="#bfbfbf" stroke="#000000" points=".5,-.5 .5,-19.5 112.5,-19.5 112.5,-.5 .5,-.5"/>
<text text-anchor="middle" x="56.5" y="-7.5" font-family="Helvetica,sans-Serif" font-size="10.00" fill="#000000">QwtTradingChartData</text>
</a>
</g>
</g>
<!-- Node2 -->
<g id="node2" class="node">
<title>Node2</title>
<g id="a_node2"><a xlink:href="class_qwt_array_series_data.html" target="_top" xlink:title=" ">
<polygon fill="none" stroke="#000000" points="0,-56.5 0,-86.5 113,-86.5 113,-56.5 0,-56.5"/>
<text text-anchor="start" x="8" y="-74.5" font-family="Helvetica,sans-Serif" font-size="10.00" fill="#000000">QwtArraySeriesData</text>
<text text-anchor="middle" x="56.5" y="-63.5" font-family="Helvetica,sans-Serif" font-size="10.00" fill="#000000">&lt; QwtOHLCSample &gt;</text>
</a>
</g>
</g>
<!-- Node2&#45;&gt;Node1 -->
<g id="edge1" class="edge">
<title>Node2&#45;&gt;Node1</title>
<path fill="none" stroke="#191970" d="M56.5,-46.2849C56.5,-36.9858 56.5,-26.9883 56.5,-19.8469"/>
<polygon fill="#191970" stroke="#191970" points="53.0001,-46.2977 56.5,-56.2977 60.0001,-46.2978 53.0001,-46.2977"/>
</g>
<!-- Node3 -->
<g id="node3" class="node">
<title>Node3</title>
<g id="a_node3"><a xlink:href="class_qwt_series_data.html" target="_top" xlink:title="Abstract interface for iterating over samples.">
<polygon fill="none" stroke="#000000" points="3,-123.5 3,-142.5 110,-142.5 110,-123.5 3,-123.5"/>
<text text-anchor="middle" x="56.5" y="-130.5" font-family="Helvetica,sans-Serif" font-size="10.00" fill="#000000">QwtSeriesData&lt; T &gt;</text>
</a>
</g>
</g>
<!-- Node3&#45;&gt;Node2 -->
<g id="edge2" class="edge">
<title>Node3&#45;&gt;Node2</title>
<path fill="none" stroke="#191970" d="M56.5,-113.3693C56.5,-104.681 56.5,-94.6241 56.5,-86.5446"/>
<polygon fill="#191970" stroke="#191970" points="53.0001,-113.3906 56.5,-123.3906 60.0001,-113.3907 53.0001,-113.3906"/>
</g>
</g>
</svg>
