<?xml version="1.0" encoding="UTF-8" standalone="no"?>
<!DOCTYPE svg PUBLIC "-//W3C//DTD SVG 1.1//EN"
 "http://www.w3.org/Graphics/SVG/1.1/DTD/svg11.dtd">
<!-- Generated by graphviz version 2.40.1 (20161225.0304)
 -->
<!-- Title: QwtPicker Pages: 1 -->
<svg width="192pt" height="196pt"
 viewBox="0.00 0.00 191.50 196.00" xmlns="http://www.w3.org/2000/svg" xmlns:xlink="http://www.w3.org/1999/xlink">
<g id="graph0" class="graph" transform="scale(1 1) rotate(0) translate(4 192)">
<title>QwtPicker</title>
<!-- Node1 -->
<g id="node1" class="node">
<title>Node1</title>
<g id="a_node1"><a xlink:title="QwtPicker provides selections on a widget.">
<polygon fill="#bfbfbf" stroke="#000000" points="60.5,-112.5 60.5,-131.5 122.5,-131.5 122.5,-112.5 60.5,-112.5"/>
<text text-anchor="middle" x="91.5" y="-119.5" font-family="Helvetica,sans-Serif" font-size="10.00" fill="#000000">QwtPicker</text>
</a>
</g>
</g>
<!-- Node4 -->
<g id="node4" class="node">
<title>Node4</title>
<g id="a_node4"><a xlink:href="class_qwt_plot_picker.html" target="_top" xlink:title="QwtPlotPicker provides selections on a plot canvas.">
<polygon fill="none" stroke="#000000" points="3,-56.5 3,-75.5 82,-75.5 82,-56.5 3,-56.5"/>
<text text-anchor="middle" x="42.5" y="-63.5" font-family="Helvetica,sans-Serif" font-size="10.00" fill="#000000">QwtPlotPicker</text>
</a>
</g>
</g>
<!-- Node1&#45;&gt;Node4 -->
<g id="edge3" class="edge">
<title>Node1&#45;&gt;Node4</title>
<path fill="none" stroke="#191970" d="M76.1878,-104.5004C67.8553,-94.9775 57.8647,-83.5596 50.9373,-75.6427"/>
<polygon fill="#191970" stroke="#191970" points="73.7457,-107.0245 82.9649,-112.2455 79.0138,-102.415 73.7457,-107.0245"/>
</g>
<!-- Node6 -->
<g id="node6" class="node">
<title>Node6</title>
<g id="a_node6"><a xlink:href="class_qwt_polar_picker.html" target="_top" xlink:title="QwtPolarPicker provides selections on a plot canvas.">
<polygon fill="none" stroke="#000000" points="99.5,-56.5 99.5,-75.5 183.5,-75.5 183.5,-56.5 99.5,-56.5"/>
<text text-anchor="middle" x="141.5" y="-63.5" font-family="Helvetica,sans-Serif" font-size="10.00" fill="#000000">QwtPolarPicker</text>
</a>
</g>
</g>
<!-- Node1&#45;&gt;Node6 -->
<g id="edge5" class="edge">
<title>Node1&#45;&gt;Node6</title>
<path fill="none" stroke="#191970" d="M107.1247,-104.5004C115.6273,-94.9775 125.8218,-83.5596 132.8905,-75.6427"/>
<polygon fill="#191970" stroke="#191970" points="104.2587,-102.4551 100.2093,-112.2455 109.4803,-107.1172 104.2587,-102.4551"/>
</g>
<!-- Node2 -->
<g id="node2" class="node">
<title>Node2</title>
<g id="a_node2"><a xlink:title=" ">
<polygon fill="none" stroke="#bfbfbf" points="20,-168.5 20,-187.5 73,-187.5 73,-168.5 20,-168.5"/>
<text text-anchor="middle" x="46.5" y="-175.5" font-family="Helvetica,sans-Serif" font-size="10.00" fill="#000000">QObject</text>
</a>
</g>
</g>
<!-- Node2&#45;&gt;Node1 -->
<g id="edge1" class="edge">
<title>Node2&#45;&gt;Node1</title>
<path fill="none" stroke="#191970" d="M60.7946,-160.2112C68.3996,-150.7472 77.4538,-139.4797 83.7514,-131.6427"/>
<polygon fill="#191970" stroke="#191970" points="57.8741,-158.2581 54.3384,-168.2455 63.3306,-162.6428 57.8741,-158.2581"/>
</g>
<!-- Node3 -->
<g id="node3" class="node">
<title>Node3</title>
<g id="a_node3"><a xlink:href="class_qwt_event_pattern.html" target="_top" xlink:title="A collection of event patterns.">
<polygon fill="none" stroke="#000000" points="91,-168.5 91,-187.5 182,-187.5 182,-168.5 91,-168.5"/>
<text text-anchor="middle" x="136.5" y="-175.5" font-family="Helvetica,sans-Serif" font-size="10.00" fill="#000000">QwtEventPattern</text>
</a>
</g>
</g>
<!-- Node3&#45;&gt;Node1 -->
<g id="edge2" class="edge">
<title>Node3&#45;&gt;Node1</title>
<path fill="none" stroke="#191970" d="M122.2054,-160.2112C114.6004,-150.7472 105.5462,-139.4797 99.2486,-131.6427"/>
<polygon fill="#191970" stroke="#191970" points="119.6694,-162.6428 128.6616,-168.2455 125.1259,-158.2581 119.6694,-162.6428"/>
</g>
<!-- Node5 -->
<g id="node5" class="node">
<title>Node5</title>
<g id="a_node5"><a xlink:href="class_qwt_plot_zoomer.html" target="_top" xlink:title="QwtPlotZoomer provides stacked zooming for a plot widget.">
<polygon fill="none" stroke="#000000" points="0,-.5 0,-19.5 85,-19.5 85,-.5 0,-.5"/>
<text text-anchor="middle" x="42.5" y="-7.5" font-family="Helvetica,sans-Serif" font-size="10.00" fill="#000000">QwtPlotZoomer</text>
</a>
</g>
</g>
<!-- Node4&#45;&gt;Node5 -->
<g id="edge4" class="edge">
<title>Node4&#45;&gt;Node5</title>
<path fill="none" stroke="#191970" d="M42.5,-46.1575C42.5,-37.155 42.5,-26.9199 42.5,-19.6427"/>
<polygon fill="#191970" stroke="#191970" points="39.0001,-46.2455 42.5,-56.2455 46.0001,-46.2456 39.0001,-46.2455"/>
</g>
</g>
</svg>
