<?xml version="1.0" encoding="UTF-8" standalone="no"?>
<!DOCTYPE svg PUBLIC "-//W3C//DTD SVG 1.1//EN"
 "http://www.w3.org/Graphics/SVG/1.1/DTD/svg11.dtd">
<!-- Generated by graphviz version 2.40.1 (20161225.0304)
 -->
<!-- Title: QwtSplineInterpolating Pages: 1 -->
<svg width="255pt" height="308pt"
 viewBox="0.00 0.00 255.00 308.00" xmlns="http://www.w3.org/2000/svg" xmlns:xlink="http://www.w3.org/1999/xlink">
<g id="graph0" class="graph" transform="scale(1 1) rotate(0) translate(4 304)">
<title>QwtSplineInterpolating</title>
<!-- Node1 -->
<g id="node1" class="node">
<title>Node1</title>
<g id="a_node1"><a xlink:title="Base class for a spline interpolation.">
<polygon fill="#bfbfbf" stroke="#000000" points="86.5,-224.5 86.5,-243.5 202.5,-243.5 202.5,-224.5 86.5,-224.5"/>
<text text-anchor="middle" x="144.5" y="-231.5" font-family="Helvetica,sans-Serif" font-size="10.00" fill="#000000">QwtSplineInterpolating</text>
</a>
</g>
</g>
<!-- Node3 -->
<g id="node3" class="node">
<title>Node3</title>
<g id="a_node3"><a xlink:href="class_qwt_spline_g1.html" target="_top" xlink:title="Base class for spline interpolations providing a first order geometric continuity ( G1 ) between adjo...">
<polygon fill="none" stroke="#000000" points="107.5,-168.5 107.5,-187.5 181.5,-187.5 181.5,-168.5 107.5,-168.5"/>
<text text-anchor="middle" x="144.5" y="-175.5" font-family="Helvetica,sans-Serif" font-size="10.00" fill="#000000">QwtSplineG1</text>
</a>
</g>
</g>
<!-- Node1&#45;&gt;Node3 -->
<g id="edge2" class="edge">
<title>Node1&#45;&gt;Node3</title>
<path fill="none" stroke="#191970" d="M144.5,-214.1575C144.5,-205.155 144.5,-194.9199 144.5,-187.6427"/>
<polygon fill="#191970" stroke="#191970" points="141.0001,-214.2455 144.5,-224.2455 148.0001,-214.2456 141.0001,-214.2455"/>
</g>
<!-- Node2 -->
<g id="node2" class="node">
<title>Node2</title>
<g id="a_node2"><a xlink:href="class_qwt_spline.html" target="_top" xlink:title="Base class for all splines.">
<polygon fill="none" stroke="#000000" points="113.5,-280.5 113.5,-299.5 175.5,-299.5 175.5,-280.5 113.5,-280.5"/>
<text text-anchor="middle" x="144.5" y="-287.5" font-family="Helvetica,sans-Serif" font-size="10.00" fill="#000000">QwtSpline</text>
</a>
</g>
</g>
<!-- Node2&#45;&gt;Node1 -->
<g id="edge1" class="edge">
<title>Node2&#45;&gt;Node1</title>
<path fill="none" stroke="#191970" d="M144.5,-270.1575C144.5,-261.155 144.5,-250.9199 144.5,-243.6427"/>
<polygon fill="#191970" stroke="#191970" points="141.0001,-270.2455 144.5,-280.2455 148.0001,-270.2456 141.0001,-270.2455"/>
</g>
<!-- Node4 -->
<g id="node4" class="node">
<title>Node4</title>
<g id="a_node4"><a xlink:href="class_qwt_spline_c1.html" target="_top" xlink:title="Base class for spline interpolations providing a first order parametric continuity ( C1 ) between adj...">
<polygon fill="none" stroke="#000000" points="55.5,-112.5 55.5,-131.5 129.5,-131.5 129.5,-112.5 55.5,-112.5"/>
<text text-anchor="middle" x="92.5" y="-119.5" font-family="Helvetica,sans-Serif" font-size="10.00" fill="#000000">QwtSplineC1</text>
</a>
</g>
</g>
<!-- Node3&#45;&gt;Node4 -->
<g id="edge3" class="edge">
<title>Node3&#45;&gt;Node4</title>
<path fill="none" stroke="#191970" d="M128.5178,-160.7884C119.6222,-151.2085 108.8796,-139.6396 101.4539,-131.6427"/>
<polygon fill="#191970" stroke="#191970" points="126.073,-163.2992 135.4423,-168.2455 131.2025,-158.536 126.073,-163.2992"/>
</g>
<!-- Node8 -->
<g id="node8" class="node">
<title>Node8</title>
<g id="a_node8"><a xlink:href="class_qwt_spline_pleasing.html" target="_top" xlink:title="A spline with G1 continuity.">
<polygon fill="none" stroke="#000000" points="148,-112.5 148,-131.5 247,-131.5 247,-112.5 148,-112.5"/>
<text text-anchor="middle" x="197.5" y="-119.5" font-family="Helvetica,sans-Serif" font-size="10.00" fill="#000000">QwtSplinePleasing</text>
</a>
</g>
</g>
<!-- Node3&#45;&gt;Node8 -->
<g id="edge7" class="edge">
<title>Node3&#45;&gt;Node8</title>
<path fill="none" stroke="#191970" d="M160.7896,-160.7884C169.8562,-151.2085 180.8054,-139.6396 188.3739,-131.6427"/>
<polygon fill="#191970" stroke="#191970" points="158.0637,-158.5767 153.7319,-168.2455 163.1478,-163.3884 158.0637,-158.5767"/>
</g>
<!-- Node5 -->
<g id="node5" class="node">
<title>Node5</title>
<g id="a_node5"><a xlink:href="class_qwt_spline_c2.html" target="_top" xlink:title="Base class for spline interpolations providing a second order parametric continuity ( C2 ) between ad...">
<polygon fill="none" stroke="#000000" points="6.5,-56.5 6.5,-75.5 80.5,-75.5 80.5,-56.5 6.5,-56.5"/>
<text text-anchor="middle" x="43.5" y="-63.5" font-family="Helvetica,sans-Serif" font-size="10.00" fill="#000000">QwtSplineC2</text>
</a>
</g>
</g>
<!-- Node4&#45;&gt;Node5 -->
<g id="edge4" class="edge">
<title>Node4&#45;&gt;Node5</title>
<path fill="none" stroke="#191970" d="M77.1878,-104.5004C68.8553,-94.9775 58.8647,-83.5596 51.9373,-75.6427"/>
<polygon fill="#191970" stroke="#191970" points="74.7457,-107.0245 83.9649,-112.2455 80.0138,-102.415 74.7457,-107.0245"/>
</g>
<!-- Node7 -->
<g id="node7" class="node">
<title>Node7</title>
<g id="a_node7"><a xlink:href="class_qwt_spline_local.html" target="_top" xlink:title="A spline with C1 continuity.">
<polygon fill="none" stroke="#000000" points="99,-56.5 99,-75.5 184,-75.5 184,-56.5 99,-56.5"/>
<text text-anchor="middle" x="141.5" y="-63.5" font-family="Helvetica,sans-Serif" font-size="10.00" fill="#000000">QwtSplineLocal</text>
</a>
</g>
</g>
<!-- Node4&#45;&gt;Node7 -->
<g id="edge6" class="edge">
<title>Node4&#45;&gt;Node7</title>
<path fill="none" stroke="#191970" d="M107.8122,-104.5004C116.1447,-94.9775 126.1353,-83.5596 133.0627,-75.6427"/>
<polygon fill="#191970" stroke="#191970" points="104.9862,-102.415 101.0351,-112.2455 110.2543,-107.0245 104.9862,-102.415"/>
</g>
<!-- Node6 -->
<g id="node6" class="node">
<title>Node6</title>
<g id="a_node6"><a xlink:href="class_qwt_spline_cubic.html" target="_top" xlink:title="A cubic spline.">
<polygon fill="none" stroke="#000000" points="0,-.5 0,-19.5 87,-19.5 87,-.5 0,-.5"/>
<text text-anchor="middle" x="43.5" y="-7.5" font-family="Helvetica,sans-Serif" font-size="10.00" fill="#000000">QwtSplineCubic</text>
</a>
</g>
</g>
<!-- Node5&#45;&gt;Node6 -->
<g id="edge5" class="edge">
<title>Node5&#45;&gt;Node6</title>
<path fill="none" stroke="#191970" d="M43.5,-46.1575C43.5,-37.155 43.5,-26.9199 43.5,-19.6427"/>
<polygon fill="#191970" stroke="#191970" points="40.0001,-46.2455 43.5,-56.2455 47.0001,-46.2456 40.0001,-46.2455"/>
</g>
</g>
</svg>
