<?xml version="1.0" encoding="UTF-8" standalone="no"?>
<!DOCTYPE svg PUBLIC "-//W3C//DTD SVG 1.1//EN"
 "http://www.w3.org/Graphics/SVG/1.1/DTD/svg11.dtd">
<!-- Generated by graphviz version 2.40.1 (20161225.0304)
 -->
<!-- Title: QwtPlotBarChart Pages: 1 -->
<svg width="294pt" height="196pt"
 viewBox="0.00 0.00 294.00 196.00" xmlns="http://www.w3.org/2000/svg" xmlns:xlink="http://www.w3.org/1999/xlink">
<g id="graph0" class="graph" transform="scale(1 1) rotate(0) translate(4 192)">
<title>QwtPlotBarChart</title>
<!-- Node1 -->
<g id="node1" class="node">
<title>Node1</title>
<g id="a_node1"><a xlink:title="QwtPlotBarChart displays a series of a values as bars.">
<polygon fill="#bfbfbf" stroke="#000000" points="94,-.5 94,-19.5 186,-19.5 186,-.5 94,-.5"/>
<text text-anchor="middle" x="140" y="-7.5" font-family="Helvetica,sans-Serif" font-size="10.00" fill="#000000">QwtPlotBarChart</text>
</a>
</g>
</g>
<!-- Node2 -->
<g id="node2" class="node">
<title>Node2</title>
<g id="a_node2"><a xlink:href="class_qwt_plot_abstract_bar_chart.html" target="_top" xlink:title="Abstract base class for bar chart items.">
<polygon fill="none" stroke="#000000" points="0,-56.5 0,-75.5 128,-75.5 128,-56.5 0,-56.5"/>
<text text-anchor="middle" x="64" y="-63.5" font-family="Helvetica,sans-Serif" font-size="10.00" fill="#000000">QwtPlotAbstractBarChart</text>
</a>
</g>
</g>
<!-- Node2&#45;&gt;Node1 -->
<g id="edge1" class="edge">
<title>Node2&#45;&gt;Node1</title>
<path fill="none" stroke="#191970" d="M85.4297,-50.2097C98.7777,-40.3743 115.5179,-28.0394 126.9135,-19.6427"/>
<polygon fill="#191970" stroke="#191970" points="83.2126,-47.4958 77.2382,-56.2455 87.365,-53.1312 83.2126,-47.4958"/>
</g>
<!-- Node3 -->
<g id="node3" class="node">
<title>Node3</title>
<g id="a_node3"><a xlink:href="class_qwt_plot_series_item.html" target="_top" xlink:title="Base class for plot items representing a series of samples.">
<polygon fill="none" stroke="#000000" points="32.5,-112.5 32.5,-131.5 131.5,-131.5 131.5,-112.5 32.5,-112.5"/>
<text text-anchor="middle" x="82" y="-119.5" font-family="Helvetica,sans-Serif" font-size="10.00" fill="#000000">QwtPlotSeriesItem</text>
</a>
</g>
</g>
<!-- Node3&#45;&gt;Node2 -->
<g id="edge2" class="edge">
<title>Node3&#45;&gt;Node2</title>
<path fill="none" stroke="#191970" d="M75.7173,-102.4538C72.8008,-93.3803 69.4642,-82.9998 67.0994,-75.6427"/>
<polygon fill="#191970" stroke="#191970" points="72.4724,-103.7963 78.8646,-112.2455 79.1366,-101.6542 72.4724,-103.7963"/>
</g>
<!-- Node4 -->
<g id="node4" class="node">
<title>Node4</title>
<g id="a_node4"><a xlink:href="class_qwt_plot_item.html" target="_top" xlink:title="Base class for items on the plot canvas.">
<polygon fill="none" stroke="#000000" points="46.5,-168.5 46.5,-187.5 117.5,-187.5 117.5,-168.5 46.5,-168.5"/>
<text text-anchor="middle" x="82" y="-175.5" font-family="Helvetica,sans-Serif" font-size="10.00" fill="#000000">QwtPlotItem</text>
</a>
</g>
</g>
<!-- Node4&#45;&gt;Node3 -->
<g id="edge3" class="edge">
<title>Node4&#45;&gt;Node3</title>
<path fill="none" stroke="#191970" d="M82,-158.1575C82,-149.155 82,-138.9199 82,-131.6427"/>
<polygon fill="#191970" stroke="#191970" points="78.5001,-158.2455 82,-168.2455 85.5001,-158.2456 78.5001,-158.2455"/>
</g>
<!-- Node5 -->
<g id="node5" class="node">
<title>Node5</title>
<g id="a_node5"><a xlink:href="class_qwt_abstract_series_store.html" target="_top" xlink:title="Bridge between QwtSeriesStore and QwtPlotSeriesItem.">
<polygon fill="none" stroke="#000000" points="145,-168.5 145,-187.5 267,-187.5 267,-168.5 145,-168.5"/>
<text text-anchor="middle" x="206" y="-175.5" font-family="Helvetica,sans-Serif" font-size="10.00" fill="#000000">QwtAbstractSeriesStore</text>
</a>
</g>
</g>
<!-- Node5&#45;&gt;Node3 -->
<g id="edge4" class="edge">
<title>Node5&#45;&gt;Node3</title>
<path fill="none" stroke="#191970" d="M175.5476,-164.2473C153.0278,-154.0771 122.9383,-140.4883 103.0382,-131.5011"/>
<polygon fill="#191970" stroke="#191970" points="174.1294,-167.4471 184.6836,-168.3733 177.0105,-161.0675 174.1294,-167.4471"/>
</g>
<!-- Node6 -->
<g id="node6" class="node">
<title>Node6</title>
<g id="a_node6"><a xlink:href="class_qwt_series_store.html" target="_top" xlink:title=" ">
<polygon fill="none" stroke="#000000" points="146,-56.5 146,-75.5 286,-75.5 286,-56.5 146,-56.5"/>
<text text-anchor="middle" x="216" y="-63.5" font-family="Helvetica,sans-Serif" font-size="10.00" fill="#000000">QwtSeriesStore&lt; QPointF &gt;</text>
</a>
</g>
</g>
<!-- Node5&#45;&gt;Node6 -->
<g id="edge6" class="edge">
<title>Node5&#45;&gt;Node6</title>
<path fill="none" stroke="#191970" d="M207.7616,-158.2702C209.9287,-133.9985 213.5203,-93.7725 215.1496,-75.5249"/>
<polygon fill="#191970" stroke="#191970" points="204.2559,-158.1793 206.8526,-168.4509 211.2281,-158.8019 204.2559,-158.1793"/>
</g>
<!-- Node6&#45;&gt;Node1 -->
<g id="edge5" class="edge">
<title>Node6&#45;&gt;Node1</title>
<path fill="none" stroke="#191970" d="M194.5703,-50.2097C181.2223,-40.3743 164.4821,-28.0394 153.0865,-19.6427"/>
<polygon fill="#191970" stroke="#191970" points="192.635,-53.1312 202.7618,-56.2455 196.7874,-47.4958 192.635,-53.1312"/>
</g>
</g>
</svg>
