<?xml version="1.0" encoding="UTF-8" standalone="no"?>
<!DOCTYPE svg PUBLIC "-//W3C//DTD SVG 1.1//EN"
 "http://www.w3.org/Graphics/SVG/1.1/DTD/svg11.dtd">
<!-- Generated by graphviz version 2.40.1 (20161225.0304)
 -->
<!-- Title: QwtSplineLocal Pages: 1 -->
<svg width="124pt" height="252pt"
 viewBox="0.00 0.00 124.00 252.00" xmlns="http://www.w3.org/2000/svg" xmlns:xlink="http://www.w3.org/1999/xlink">
<g id="graph0" class="graph" transform="scale(1 1) rotate(0) translate(4 248)">
<title>QwtSplineLocal</title>
<!-- Node1 -->
<g id="node1" class="node">
<title>Node1</title>
<g id="a_node1"><a xlink:title="A spline with C1 continuity.">
<polygon fill="#bfbfbf" stroke="#000000" points="15.5,-.5 15.5,-19.5 100.5,-19.5 100.5,-.5 15.5,-.5"/>
<text text-anchor="middle" x="58" y="-7.5" font-family="Helvetica,sans-Serif" font-size="10.00" fill="#000000">QwtSplineLocal</text>
</a>
</g>
</g>
<!-- Node2 -->
<g id="node2" class="node">
<title>Node2</title>
<g id="a_node2"><a xlink:href="class_qwt_spline_c1.html" target="_top" xlink:title="Base class for spline interpolations providing a first order parametric continuity ( C1 ) between adj...">
<polygon fill="none" stroke="#000000" points="21,-56.5 21,-75.5 95,-75.5 95,-56.5 21,-56.5"/>
<text text-anchor="middle" x="58" y="-63.5" font-family="Helvetica,sans-Serif" font-size="10.00" fill="#000000">QwtSplineC1</text>
</a>
</g>
</g>
<!-- Node2&#45;&gt;Node1 -->
<g id="edge1" class="edge">
<title>Node2&#45;&gt;Node1</title>
<path fill="none" stroke="#191970" d="M58,-46.1575C58,-37.155 58,-26.9199 58,-19.6427"/>
<polygon fill="#191970" stroke="#191970" points="54.5001,-46.2455 58,-56.2455 61.5001,-46.2456 54.5001,-46.2455"/>
</g>
<!-- Node3 -->
<g id="node3" class="node">
<title>Node3</title>
<g id="a_node3"><a xlink:href="class_qwt_spline_g1.html" target="_top" xlink:title="Base class for spline interpolations providing a first order geometric continuity ( G1 ) between adjo...">
<polygon fill="none" stroke="#000000" points="21,-112.5 21,-131.5 95,-131.5 95,-112.5 21,-112.5"/>
<text text-anchor="middle" x="58" y="-119.5" font-family="Helvetica,sans-Serif" font-size="10.00" fill="#000000">QwtSplineG1</text>
</a>
</g>
</g>
<!-- Node3&#45;&gt;Node2 -->
<g id="edge2" class="edge">
<title>Node3&#45;&gt;Node2</title>
<path fill="none" stroke="#191970" d="M58,-102.1575C58,-93.155 58,-82.9199 58,-75.6427"/>
<polygon fill="#191970" stroke="#191970" points="54.5001,-102.2455 58,-112.2455 61.5001,-102.2456 54.5001,-102.2455"/>
</g>
<!-- Node4 -->
<g id="node4" class="node">
<title>Node4</title>
<g id="a_node4"><a xlink:href="class_qwt_spline_interpolating.html" target="_top" xlink:title="Base class for a spline interpolation.">
<polygon fill="none" stroke="#000000" points="0,-168.5 0,-187.5 116,-187.5 116,-168.5 0,-168.5"/>
<text text-anchor="middle" x="58" y="-175.5" font-family="Helvetica,sans-Serif" font-size="10.00" fill="#000000">QwtSplineInterpolating</text>
</a>
</g>
</g>
<!-- Node4&#45;&gt;Node3 -->
<g id="edge3" class="edge">
<title>Node4&#45;&gt;Node3</title>
<path fill="none" stroke="#191970" d="M58,-158.1575C58,-149.155 58,-138.9199 58,-131.6427"/>
<polygon fill="#191970" stroke="#191970" points="54.5001,-158.2455 58,-168.2455 61.5001,-158.2456 54.5001,-158.2455"/>
</g>
<!-- Node5 -->
<g id="node5" class="node">
<title>Node5</title>
<g id="a_node5"><a xlink:href="class_qwt_spline.html" target="_top" xlink:title="Base class for all splines.">
<polygon fill="none" stroke="#000000" points="27,-224.5 27,-243.5 89,-243.5 89,-224.5 27,-224.5"/>
<text text-anchor="middle" x="58" y="-231.5" font-family="Helvetica,sans-Serif" font-size="10.00" fill="#000000">QwtSpline</text>
</a>
</g>
</g>
<!-- Node5&#45;&gt;Node4 -->
<g id="edge4" class="edge">
<title>Node5&#45;&gt;Node4</title>
<path fill="none" stroke="#191970" d="M58,-214.1575C58,-205.155 58,-194.9199 58,-187.6427"/>
<polygon fill="#191970" stroke="#191970" points="54.5001,-214.2455 58,-224.2455 61.5001,-214.2456 54.5001,-214.2455"/>
</g>
</g>
</svg>
