<?xml version="1.0" encoding="UTF-8" standalone="no"?>
<!DOCTYPE svg PUBLIC "-//W3C//DTD SVG 1.1//EN"
 "http://www.w3.org/Graphics/SVG/1.1/DTD/svg11.dtd">
<!-- Generated by graphviz version 2.40.1 (20161225.0304)
 -->
<!-- Title: QwtDial Pages: 1 -->
<svg width="194pt" height="252pt"
 viewBox="0.00 0.00 193.50 252.00" xmlns="http://www.w3.org/2000/svg" xmlns:xlink="http://www.w3.org/1999/xlink">
<g id="graph0" class="graph" transform="scale(1 1) rotate(0) translate(4 248)">
<title>QwtDial</title>
<!-- Node1 -->
<g id="node1" class="node">
<title>Node1</title>
<g id="a_node1"><a xlink:title="QwtDial class provides a rounded range control.">
<polygon fill="#bfbfbf" stroke="#000000" points="70,-56.5 70,-75.5 122,-75.5 122,-56.5 70,-56.5"/>
<text text-anchor="middle" x="96" y="-63.5" font-family="Helvetica,sans-Serif" font-size="10.00" fill="#000000">QwtDial</text>
</a>
</g>
</g>
<!-- Node5 -->
<g id="node5" class="node">
<title>Node5</title>
<g id="a_node5"><a xlink:href="class_qwt_analog_clock.html" target="_top" xlink:title="An analog clock.">
<polygon fill="none" stroke="#000000" points="0,-.5 0,-19.5 90,-19.5 90,-.5 0,-.5"/>
<text text-anchor="middle" x="45" y="-7.5" font-family="Helvetica,sans-Serif" font-size="10.00" fill="#000000">QwtAnalogClock</text>
</a>
</g>
</g>
<!-- Node1&#45;&gt;Node5 -->
<g id="edge4" class="edge">
<title>Node1&#45;&gt;Node5</title>
<path fill="none" stroke="#191970" d="M80.3251,-48.7884C71.6006,-39.2085 61.0646,-27.6396 53.7817,-19.6427"/>
<polygon fill="#191970" stroke="#191970" points="77.7954,-51.2088 87.1165,-56.2455 82.9709,-46.4954 77.7954,-51.2088"/>
</g>
<!-- Node6 -->
<g id="node6" class="node">
<title>Node6</title>
<g id="a_node6"><a xlink:href="class_qwt_compass.html" target="_top" xlink:title="A Compass Widget.">
<polygon fill="none" stroke="#000000" points="108.5,-.5 108.5,-19.5 185.5,-19.5 185.5,-.5 108.5,-.5"/>
<text text-anchor="middle" x="147" y="-7.5" font-family="Helvetica,sans-Serif" font-size="10.00" fill="#000000">QwtCompass</text>
</a>
</g>
</g>
<!-- Node1&#45;&gt;Node6 -->
<g id="edge5" class="edge">
<title>Node1&#45;&gt;Node6</title>
<path fill="none" stroke="#191970" d="M111.6749,-48.7884C120.3994,-39.2085 130.9354,-27.6396 138.2183,-19.6427"/>
<polygon fill="#191970" stroke="#191970" points="109.0291,-46.4954 104.8835,-56.2455 114.2046,-51.2088 109.0291,-46.4954"/>
</g>
<!-- Node2 -->
<g id="node2" class="node">
<title>Node2</title>
<g id="a_node2"><a xlink:href="class_qwt_abstract_slider.html" target="_top" xlink:title="An abstract base class for slider widgets with a scale.">
<polygon fill="none" stroke="#000000" points="48,-112.5 48,-131.5 144,-131.5 144,-112.5 48,-112.5"/>
<text text-anchor="middle" x="96" y="-119.5" font-family="Helvetica,sans-Serif" font-size="10.00" fill="#000000">QwtAbstractSlider</text>
</a>
</g>
</g>
<!-- Node2&#45;&gt;Node1 -->
<g id="edge1" class="edge">
<title>Node2&#45;&gt;Node1</title>
<path fill="none" stroke="#191970" d="M96,-102.1575C96,-93.155 96,-82.9199 96,-75.6427"/>
<polygon fill="#191970" stroke="#191970" points="92.5001,-102.2455 96,-112.2455 99.5001,-102.2456 92.5001,-102.2455"/>
</g>
<!-- Node3 -->
<g id="node3" class="node">
<title>Node3</title>
<g id="a_node3"><a xlink:href="class_qwt_abstract_scale.html" target="_top" xlink:title="An abstract base class for widgets having a scale.">
<polygon fill="none" stroke="#000000" points="48,-168.5 48,-187.5 144,-187.5 144,-168.5 48,-168.5"/>
<text text-anchor="middle" x="96" y="-175.5" font-family="Helvetica,sans-Serif" font-size="10.00" fill="#000000">QwtAbstractScale</text>
</a>
</g>
</g>
<!-- Node3&#45;&gt;Node2 -->
<g id="edge2" class="edge">
<title>Node3&#45;&gt;Node2</title>
<path fill="none" stroke="#191970" d="M96,-158.1575C96,-149.155 96,-138.9199 96,-131.6427"/>
<polygon fill="#191970" stroke="#191970" points="92.5001,-158.2455 96,-168.2455 99.5001,-158.2456 92.5001,-158.2455"/>
</g>
<!-- Node4 -->
<g id="node4" class="node">
<title>Node4</title>
<g id="a_node4"><a xlink:title=" ">
<polygon fill="none" stroke="#bfbfbf" points="68.5,-224.5 68.5,-243.5 123.5,-243.5 123.5,-224.5 68.5,-224.5"/>
<text text-anchor="middle" x="96" y="-231.5" font-family="Helvetica,sans-Serif" font-size="10.00" fill="#000000">QWidget</text>
</a>
</g>
</g>
<!-- Node4&#45;&gt;Node3 -->
<g id="edge3" class="edge">
<title>Node4&#45;&gt;Node3</title>
<path fill="none" stroke="#191970" d="M96,-214.1575C96,-205.155 96,-194.9199 96,-187.6427"/>
<polygon fill="#191970" stroke="#191970" points="92.5001,-214.2455 96,-224.2455 99.5001,-214.2456 92.5001,-214.2455"/>
</g>
</g>
</svg>
