<?xml version="1.0" encoding="UTF-8" standalone="no"?>
<!DOCTYPE svg PUBLIC "-//W3C//DTD SVG 1.1//EN"
 "http://www.w3.org/Graphics/SVG/1.1/DTD/svg11.dtd">
<!-- Generated by graphviz version 2.40.1 (20161225.0304)
 -->
<!-- Title: QwtPlotTradingCurve Pages: 1 -->
<svg width="308pt" height="140pt"
 viewBox="0.00 0.00 307.50 140.00" xmlns="http://www.w3.org/2000/svg" xmlns:xlink="http://www.w3.org/1999/xlink">
<g id="graph0" class="graph" transform="scale(1 1) rotate(0) translate(4 136)">
<title>QwtPlotTradingCurve</title>
<!-- Node1 -->
<g id="node1" class="node">
<title>Node1</title>
<g id="a_node1"><a xlink:title="QwtPlotTradingCurve illustrates movements in the price of a financial instrument over time.">
<polygon fill="#bfbfbf" stroke="#000000" points="73.5,-.5 73.5,-19.5 183.5,-19.5 183.5,-.5 73.5,-.5"/>
<text text-anchor="middle" x="128.5" y="-7.5" font-family="Helvetica,sans-Serif" font-size="10.00" fill="#000000">QwtPlotTradingCurve</text>
</a>
</g>
</g>
<!-- Node2 -->
<g id="node2" class="node">
<title>Node2</title>
<g id="a_node2"><a xlink:href="class_qwt_plot_series_item.html" target="_top" xlink:title="Base class for plot items representing a series of samples.">
<polygon fill="none" stroke="#000000" points="0,-56.5 0,-75.5 99,-75.5 99,-56.5 0,-56.5"/>
<text text-anchor="middle" x="49.5" y="-63.5" font-family="Helvetica,sans-Serif" font-size="10.00" fill="#000000">QwtPlotSeriesItem</text>
</a>
</g>
</g>
<!-- Node2&#45;&gt;Node1 -->
<g id="edge1" class="edge">
<title>Node2&#45;&gt;Node1</title>
<path fill="none" stroke="#191970" d="M71.7756,-50.2097C85.6505,-40.3743 103.0515,-28.0394 114.8969,-19.6427"/>
<polygon fill="#191970" stroke="#191970" points="69.3949,-47.6071 63.2607,-56.2455 73.4431,-53.3178 69.3949,-47.6071"/>
</g>
<!-- Node3 -->
<g id="node3" class="node">
<title>Node3</title>
<g id="a_node3"><a xlink:href="class_qwt_plot_item.html" target="_top" xlink:title="Base class for items on the plot canvas.">
<polygon fill="none" stroke="#000000" points="14,-112.5 14,-131.5 85,-131.5 85,-112.5 14,-112.5"/>
<text text-anchor="middle" x="49.5" y="-119.5" font-family="Helvetica,sans-Serif" font-size="10.00" fill="#000000">QwtPlotItem</text>
</a>
</g>
</g>
<!-- Node3&#45;&gt;Node2 -->
<g id="edge2" class="edge">
<title>Node3&#45;&gt;Node2</title>
<path fill="none" stroke="#191970" d="M49.5,-102.1575C49.5,-93.155 49.5,-82.9199 49.5,-75.6427"/>
<polygon fill="#191970" stroke="#191970" points="46.0001,-102.2455 49.5,-112.2455 53.0001,-102.2456 46.0001,-102.2455"/>
</g>
<!-- Node4 -->
<g id="node4" class="node">
<title>Node4</title>
<g id="a_node4"><a xlink:href="class_qwt_abstract_series_store.html" target="_top" xlink:title="Bridge between QwtSeriesStore and QwtPlotSeriesItem.">
<polygon fill="none" stroke="#000000" points="125.5,-112.5 125.5,-131.5 247.5,-131.5 247.5,-112.5 125.5,-112.5"/>
<text text-anchor="middle" x="186.5" y="-119.5" font-family="Helvetica,sans-Serif" font-size="10.00" fill="#000000">QwtAbstractSeriesStore</text>
</a>
</g>
</g>
<!-- Node4&#45;&gt;Node2 -->
<g id="edge3" class="edge">
<title>Node4&#45;&gt;Node2</title>
<path fill="none" stroke="#191970" d="M153.5194,-108.5189C128.5689,-98.3201 94.9266,-84.5685 72.7438,-75.5011"/>
<polygon fill="#191970" stroke="#191970" points="152.368,-111.8293 162.9489,-112.3733 155.0166,-105.3497 152.368,-111.8293"/>
</g>
<!-- Node5 -->
<g id="node5" class="node">
<title>Node5</title>
<g id="a_node5"><a xlink:href="class_qwt_series_store.html" target="_top" xlink:title=" ">
<polygon fill="none" stroke="#000000" points="117.5,-56.5 117.5,-75.5 299.5,-75.5 299.5,-56.5 117.5,-56.5"/>
<text text-anchor="middle" x="208.5" y="-63.5" font-family="Helvetica,sans-Serif" font-size="10.00" fill="#000000">QwtSeriesStore&lt; QwtOHLCSample &gt;</text>
</a>
</g>
</g>
<!-- Node4&#45;&gt;Node5 -->
<g id="edge5" class="edge">
<title>Node4&#45;&gt;Node5</title>
<path fill="none" stroke="#191970" d="M194.0628,-102.7493C197.6546,-93.6064 201.7901,-83.0798 204.7118,-75.6427"/>
<polygon fill="#191970" stroke="#191970" points="190.7311,-101.6582 190.3321,-112.2455 197.2463,-104.2178 190.7311,-101.6582"/>
</g>
<!-- Node5&#45;&gt;Node1 -->
<g id="edge4" class="edge">
<title>Node5&#45;&gt;Node1</title>
<path fill="none" stroke="#191970" d="M186.3429,-50.49C172.228,-40.6096 154.3849,-28.1194 142.2752,-19.6427"/>
<polygon fill="#191970" stroke="#191970" points="184.3656,-53.3782 194.5651,-56.2455 188.3799,-47.6436 184.3656,-53.3782"/>
</g>
</g>
</svg>
