<?xml version="1.0" encoding="UTF-8" standalone="no"?>
<!DOCTYPE svg PUBLIC "-//W3C//DTD SVG 1.1//EN"
 "http://www.w3.org/Graphics/SVG/1.1/DTD/svg11.dtd">
<!-- Generated by graphviz version 2.40.1 (20161225.0304)
 -->
<!-- Title: QwtPlotHistogram Pages: 1 -->
<svg width="270pt" height="151pt"
 viewBox="0.00 0.00 270.00 151.00" xmlns="http://www.w3.org/2000/svg" xmlns:xlink="http://www.w3.org/1999/xlink">
<g id="graph0" class="graph" transform="scale(1 1) rotate(0) translate(4 147)">
<title>QwtPlotHistogram</title>
<!-- Node1 -->
<g id="node1" class="node">
<title>Node1</title>
<g id="a_node1"><a xlink:title="QwtPlotHistogram represents a series of samples, where an interval is associated with a value ( &#160;).">
<polygon fill="#bfbfbf" stroke="#000000" points="71,-.5 71,-19.5 168,-19.5 168,-.5 71,-.5"/>
<text text-anchor="middle" x="119.5" y="-7.5" font-family="Helvetica,sans-Serif" font-size="10.00" fill="#000000">QwtPlotHistogram</text>
</a>
</g>
</g>
<!-- Node2 -->
<g id="node2" class="node">
<title>Node2</title>
<g id="a_node2"><a xlink:href="class_qwt_plot_series_item.html" target="_top" xlink:title="Base class for plot items representing a series of samples.">
<polygon fill="none" stroke="#000000" points="0,-62 0,-81 99,-81 99,-62 0,-62"/>
<text text-anchor="middle" x="49.5" y="-69" font-family="Helvetica,sans-Serif" font-size="10.00" fill="#000000">QwtPlotSeriesItem</text>
</a>
</g>
</g>
<!-- Node2&#45;&gt;Node1 -->
<g id="edge1" class="edge">
<title>Node2&#45;&gt;Node1</title>
<path fill="none" stroke="#191970" d="M68.2257,-55.0482C81.0515,-43.7798 97.6281,-29.216 108.4083,-19.7449"/>
<polygon fill="#191970" stroke="#191970" points="65.6399,-52.661 60.4375,-61.8906 70.2601,-57.9197 65.6399,-52.661"/>
</g>
<!-- Node3 -->
<g id="node3" class="node">
<title>Node3</title>
<g id="a_node3"><a xlink:href="class_qwt_plot_item.html" target="_top" xlink:title="Base class for items on the plot canvas.">
<polygon fill="none" stroke="#000000" points="14,-123.5 14,-142.5 85,-142.5 85,-123.5 14,-123.5"/>
<text text-anchor="middle" x="49.5" y="-130.5" font-family="Helvetica,sans-Serif" font-size="10.00" fill="#000000">QwtPlotItem</text>
</a>
</g>
</g>
<!-- Node3&#45;&gt;Node2 -->
<g id="edge2" class="edge">
<title>Node3&#45;&gt;Node2</title>
<path fill="none" stroke="#191970" d="M49.5,-113.2462C49.5,-102.5519 49.5,-89.814 49.5,-81.2449"/>
<polygon fill="#191970" stroke="#191970" points="46.0001,-113.3906 49.5,-123.3906 53.0001,-113.3907 46.0001,-113.3906"/>
</g>
<!-- Node4 -->
<g id="node4" class="node">
<title>Node4</title>
<g id="a_node4"><a xlink:href="class_qwt_abstract_series_store.html" target="_top" xlink:title="Bridge between QwtSeriesStore and QwtPlotSeriesItem.">
<polygon fill="none" stroke="#000000" points="115.5,-123.5 115.5,-142.5 237.5,-142.5 237.5,-123.5 115.5,-123.5"/>
<text text-anchor="middle" x="176.5" y="-130.5" font-family="Helvetica,sans-Serif" font-size="10.00" fill="#000000">QwtAbstractSeriesStore</text>
</a>
</g>
</g>
<!-- Node4&#45;&gt;Node2 -->
<g id="edge3" class="edge">
<title>Node4&#45;&gt;Node2</title>
<path fill="none" stroke="#191970" d="M147.3443,-118.8813C123.3937,-107.2832 90.1195,-91.1701 69.2044,-81.0419"/>
<polygon fill="#191970" stroke="#191970" points="146.1305,-122.1823 156.6563,-123.3906 149.1814,-115.8821 146.1305,-122.1823"/>
</g>
<!-- Node5 -->
<g id="node5" class="node">
<title>Node5</title>
<g id="a_node5"><a xlink:href="class_qwt_series_store.html" target="_top" xlink:title=" ">
<polygon fill="none" stroke="#000000" points="117,-56.5 117,-86.5 262,-86.5 262,-56.5 117,-56.5"/>
<text text-anchor="start" x="125" y="-74.5" font-family="Helvetica,sans-Serif" font-size="10.00" fill="#000000">QwtSeriesStore&lt; QwtInterval</text>
<text text-anchor="middle" x="189.5" y="-63.5" font-family="Helvetica,sans-Serif" font-size="10.00" fill="#000000">Sample &gt;</text>
</a>
</g>
</g>
<!-- Node4&#45;&gt;Node5 -->
<g id="edge5" class="edge">
<title>Node4&#45;&gt;Node5</title>
<path fill="none" stroke="#191970" d="M180.6496,-113.3693C182.4861,-104.681 184.612,-94.6241 186.3198,-86.5446"/>
<polygon fill="#191970" stroke="#191970" points="177.1751,-112.8829 178.5313,-123.3906 184.0238,-114.3307 177.1751,-112.8829"/>
</g>
<!-- Node5&#45;&gt;Node1 -->
<g id="edge4" class="edge">
<title>Node5&#45;&gt;Node1</title>
<path fill="none" stroke="#191970" d="M164.5156,-49.5494C152.9529,-39.3907 139.7976,-27.8329 130.7079,-19.8469"/>
<polygon fill="#191970" stroke="#191970" points="162.3741,-52.3269 172.1966,-56.2977 166.9942,-47.0681 162.3741,-52.3269"/>
</g>
</g>
</svg>
