<?xml version="1.0" encoding="UTF-8" standalone="no"?>
<!DOCTYPE svg PUBLIC "-//W3C//DTD SVG 1.1//EN"
 "http://www.w3.org/Graphics/SVG/1.1/DTD/svg11.dtd">
<!-- Generated by graphviz version 2.40.1 (20161225.0304)
 -->
<!-- Title: QwtPlotOpenGLCanvas Pages: 1 -->
<svg width="250pt" height="140pt"
 viewBox="0.00 0.00 250.00 140.00" xmlns="http://www.w3.org/2000/svg" xmlns:xlink="http://www.w3.org/1999/xlink">
<g id="graph0" class="graph" transform="scale(1 1) rotate(0) translate(4 136)">
<title>QwtPlotOpenGLCanvas</title>
<!-- Node1 -->
<g id="node1" class="node">
<title>Node1</title>
<g id="a_node1"><a xlink:title="An alternative canvas for a QwtPlot derived from QOpenGLWidget.">
<polygon fill="#bfbfbf" stroke="#000000" points="49.5,-.5 49.5,-19.5 170.5,-19.5 170.5,-.5 49.5,-.5"/>
<text text-anchor="middle" x="110" y="-7.5" font-family="Helvetica,sans-Serif" font-size="10.00" fill="#000000">QwtPlotOpenGLCanvas</text>
</a>
</g>
</g>
<!-- Node2 -->
<g id="node2" class="node">
<title>Node2</title>
<g id="a_node2"><a xlink:title=" ">
<polygon fill="none" stroke="#bfbfbf" points="0,-56.5 0,-75.5 90,-75.5 90,-56.5 0,-56.5"/>
<text text-anchor="middle" x="45" y="-63.5" font-family="Helvetica,sans-Serif" font-size="10.00" fill="#000000">QOpenGLWidget</text>
</a>
</g>
</g>
<!-- Node2&#45;&gt;Node1 -->
<g id="edge1" class="edge">
<title>Node2&#45;&gt;Node1</title>
<path fill="none" stroke="#191970" d="M63.9835,-49.645C75.2879,-39.9058 89.247,-27.8795 98.8076,-19.6427"/>
<polygon fill="#191970" stroke="#191970" points="61.6138,-47.0668 56.3221,-56.2455 66.1827,-52.3701 61.6138,-47.0668"/>
</g>
<!-- Node3 -->
<g id="node3" class="node">
<title>Node3</title>
<g id="a_node3"><a xlink:href="class_qwt_plot_abstract_g_l_canvas.html" target="_top" xlink:title="Base class of QwtPlotOpenGLCanvas and QwtPlotGLCanvas.">
<polygon fill="none" stroke="#000000" points="108,-56.5 108,-75.5 242,-75.5 242,-56.5 108,-56.5"/>
<text text-anchor="middle" x="175" y="-63.5" font-family="Helvetica,sans-Serif" font-size="10.00" fill="#000000">QwtPlotAbstractGLCanvas</text>
</a>
</g>
</g>
<!-- Node3&#45;&gt;Node1 -->
<g id="edge2" class="edge">
<title>Node3&#45;&gt;Node1</title>
<path fill="none" stroke="#191970" d="M156.0165,-49.645C144.7121,-39.9058 130.753,-27.8795 121.1924,-19.6427"/>
<polygon fill="#191970" stroke="#191970" points="153.8173,-52.3701 163.6779,-56.2455 158.3862,-47.0668 153.8173,-52.3701"/>
</g>
<!-- Node4 -->
<g id="node4" class="node">
<title>Node4</title>
<g id="a_node4"><a xlink:href="class_qwt_plot_abstract_canvas.html" target="_top" xlink:title="Base class for all type of plot canvases.">
<polygon fill="none" stroke="#000000" points="114,-112.5 114,-131.5 236,-131.5 236,-112.5 114,-112.5"/>
<text text-anchor="middle" x="175" y="-119.5" font-family="Helvetica,sans-Serif" font-size="10.00" fill="#000000">QwtPlotAbstractCanvas</text>
</a>
</g>
</g>
<!-- Node4&#45;&gt;Node3 -->
<g id="edge3" class="edge">
<title>Node4&#45;&gt;Node3</title>
<path fill="none" stroke="#191970" d="M175,-102.1575C175,-93.155 175,-82.9199 175,-75.6427"/>
<polygon fill="#191970" stroke="#191970" points="171.5001,-102.2455 175,-112.2455 178.5001,-102.2456 171.5001,-102.2455"/>
</g>
</g>
</svg>
