<?xml version="1.0" encoding="UTF-8" standalone="no"?>
<!DOCTYPE svg PUBLIC "-//W3C//DTD SVG 1.1//EN"
 "http://www.w3.org/Graphics/SVG/1.1/DTD/svg11.dtd">
<!-- Generated by graphviz version 2.40.1 (20161225.0304)
 -->
<!-- Title: QwtAbstractScale Pages: 1 -->
<svg width="311pt" height="252pt"
 viewBox="0.00 0.00 311.00 252.00" xmlns="http://www.w3.org/2000/svg" xmlns:xlink="http://www.w3.org/1999/xlink">
<g id="graph0" class="graph" transform="scale(1 1) rotate(0) translate(4 248)">
<title>QwtAbstractScale</title>
<!-- Node1 -->
<g id="node1" class="node">
<title>Node1</title>
<g id="a_node1"><a xlink:title="An abstract base class for widgets having a scale.">
<polygon fill="#bfbfbf" stroke="#000000" points="171,-168.5 171,-187.5 267,-187.5 267,-168.5 171,-168.5"/>
<text text-anchor="middle" x="219" y="-175.5" font-family="Helvetica,sans-Serif" font-size="10.00" fill="#000000">QwtAbstractScale</text>
</a>
</g>
</g>
<!-- Node3 -->
<g id="node3" class="node">
<title>Node3</title>
<g id="a_node3"><a xlink:href="class_qwt_abstract_slider.html" target="_top" xlink:title="An abstract base class for slider widgets with a scale.">
<polygon fill="none" stroke="#000000" points="121,-112.5 121,-131.5 217,-131.5 217,-112.5 121,-112.5"/>
<text text-anchor="middle" x="169" y="-119.5" font-family="Helvetica,sans-Serif" font-size="10.00" fill="#000000">QwtAbstractSlider</text>
</a>
</g>
</g>
<!-- Node1&#45;&gt;Node3 -->
<g id="edge2" class="edge">
<title>Node1&#45;&gt;Node3</title>
<path fill="none" stroke="#191970" d="M203.3753,-160.5004C194.8727,-150.9775 184.6782,-139.5596 177.6095,-131.6427"/>
<polygon fill="#191970" stroke="#191970" points="201.0197,-163.1172 210.2907,-168.2455 206.2413,-158.4551 201.0197,-163.1172"/>
</g>
<!-- Node9 -->
<g id="node9" class="node">
<title>Node9</title>
<g id="a_node9"><a xlink:href="class_qwt_thermo.html" target="_top" xlink:title="The Thermometer Widget.">
<polygon fill="none" stroke="#000000" points="235,-112.5 235,-131.5 303,-131.5 303,-112.5 235,-112.5"/>
<text text-anchor="middle" x="269" y="-119.5" font-family="Helvetica,sans-Serif" font-size="10.00" fill="#000000">QwtThermo</text>
</a>
</g>
</g>
<!-- Node1&#45;&gt;Node9 -->
<g id="edge8" class="edge">
<title>Node1&#45;&gt;Node9</title>
<path fill="none" stroke="#191970" d="M234.6247,-160.5004C243.1273,-150.9775 253.3218,-139.5596 260.3905,-131.6427"/>
<polygon fill="#191970" stroke="#191970" points="231.7587,-158.4551 227.7093,-168.2455 236.9803,-163.1172 231.7587,-158.4551"/>
</g>
<!-- Node2 -->
<g id="node2" class="node">
<title>Node2</title>
<g id="a_node2"><a xlink:title=" ">
<polygon fill="none" stroke="#bfbfbf" points="191.5,-224.5 191.5,-243.5 246.5,-243.5 246.5,-224.5 191.5,-224.5"/>
<text text-anchor="middle" x="219" y="-231.5" font-family="Helvetica,sans-Serif" font-size="10.00" fill="#000000">QWidget</text>
</a>
</g>
</g>
<!-- Node2&#45;&gt;Node1 -->
<g id="edge1" class="edge">
<title>Node2&#45;&gt;Node1</title>
<path fill="none" stroke="#191970" d="M219,-214.1575C219,-205.155 219,-194.9199 219,-187.6427"/>
<polygon fill="#191970" stroke="#191970" points="215.5001,-214.2455 219,-224.2455 222.5001,-214.2456 215.5001,-214.2455"/>
</g>
<!-- Node4 -->
<g id="node4" class="node">
<title>Node4</title>
<g id="a_node4"><a xlink:href="class_qwt_dial.html" target="_top" xlink:title="QwtDial class provides a rounded range control.">
<polygon fill="none" stroke="#000000" points="70,-56.5 70,-75.5 122,-75.5 122,-56.5 70,-56.5"/>
<text text-anchor="middle" x="96" y="-63.5" font-family="Helvetica,sans-Serif" font-size="10.00" fill="#000000">QwtDial</text>
</a>
</g>
</g>
<!-- Node3&#45;&gt;Node4 -->
<g id="edge3" class="edge">
<title>Node3&#45;&gt;Node4</title>
<path fill="none" stroke="#191970" d="M148.049,-105.928C135.2893,-96.1397 119.4115,-83.9595 108.5699,-75.6427"/>
<polygon fill="#191970" stroke="#191970" points="146.2197,-108.9359 156.2844,-112.2455 150.4804,-103.3819 146.2197,-108.9359"/>
</g>
<!-- Node7 -->
<g id="node7" class="node">
<title>Node7</title>
<g id="a_node7"><a xlink:href="class_qwt_knob.html" target="_top" xlink:title="The Knob Widget.">
<polygon fill="none" stroke="#000000" points="140.5,-56.5 140.5,-75.5 197.5,-75.5 197.5,-56.5 140.5,-56.5"/>
<text text-anchor="middle" x="169" y="-63.5" font-family="Helvetica,sans-Serif" font-size="10.00" fill="#000000">QwtKnob</text>
</a>
</g>
</g>
<!-- Node3&#45;&gt;Node7 -->
<g id="edge6" class="edge">
<title>Node3&#45;&gt;Node7</title>
<path fill="none" stroke="#191970" d="M169,-102.1575C169,-93.155 169,-82.9199 169,-75.6427"/>
<polygon fill="#191970" stroke="#191970" points="165.5001,-102.2455 169,-112.2455 172.5001,-102.2456 165.5001,-102.2455"/>
</g>
<!-- Node8 -->
<g id="node8" class="node">
<title>Node8</title>
<g id="a_node8"><a xlink:href="class_qwt_slider.html" target="_top" xlink:title="The Slider Widget.">
<polygon fill="none" stroke="#000000" points="215.5,-56.5 215.5,-75.5 274.5,-75.5 274.5,-56.5 215.5,-56.5"/>
<text text-anchor="middle" x="245" y="-63.5" font-family="Helvetica,sans-Serif" font-size="10.00" fill="#000000">QwtSlider</text>
</a>
</g>
</g>
<!-- Node3&#45;&gt;Node8 -->
<g id="edge7" class="edge">
<title>Node3&#45;&gt;Node8</title>
<path fill="none" stroke="#191970" d="M190.4297,-106.2097C203.7777,-96.3743 220.5179,-84.0394 231.9135,-75.6427"/>
<polygon fill="#191970" stroke="#191970" points="188.2126,-103.4958 182.2382,-112.2455 192.365,-109.1312 188.2126,-103.4958"/>
</g>
<!-- Node5 -->
<g id="node5" class="node">
<title>Node5</title>
<g id="a_node5"><a xlink:href="class_qwt_analog_clock.html" target="_top" xlink:title="An analog clock.">
<polygon fill="none" stroke="#000000" points="0,-.5 0,-19.5 90,-19.5 90,-.5 0,-.5"/>
<text text-anchor="middle" x="45" y="-7.5" font-family="Helvetica,sans-Serif" font-size="10.00" fill="#000000">QwtAnalogClock</text>
</a>
</g>
</g>
<!-- Node4&#45;&gt;Node5 -->
<g id="edge4" class="edge">
<title>Node4&#45;&gt;Node5</title>
<path fill="none" stroke="#191970" d="M80.3251,-48.7884C71.6006,-39.2085 61.0646,-27.6396 53.7817,-19.6427"/>
<polygon fill="#191970" stroke="#191970" points="77.7954,-51.2088 87.1165,-56.2455 82.9709,-46.4954 77.7954,-51.2088"/>
</g>
<!-- Node6 -->
<g id="node6" class="node">
<title>Node6</title>
<g id="a_node6"><a xlink:href="class_qwt_compass.html" target="_top" xlink:title="A Compass Widget.">
<polygon fill="none" stroke="#000000" points="108.5,-.5 108.5,-19.5 185.5,-19.5 185.5,-.5 108.5,-.5"/>
<text text-anchor="middle" x="147" y="-7.5" font-family="Helvetica,sans-Serif" font-size="10.00" fill="#000000">QwtCompass</text>
</a>
</g>
</g>
<!-- Node4&#45;&gt;Node6 -->
<g id="edge5" class="edge">
<title>Node4&#45;&gt;Node6</title>
<path fill="none" stroke="#191970" d="M111.6749,-48.7884C120.3994,-39.2085 130.9354,-27.6396 138.2183,-19.6427"/>
<polygon fill="#191970" stroke="#191970" points="109.0291,-46.4954 104.8835,-56.2455 114.2046,-51.2088 109.0291,-46.4954"/>
</g>
</g>
</svg>
