<?xml version="1.0" encoding="UTF-8" standalone="no"?>
<!DOCTYPE svg PUBLIC "-//W3C//DTD SVG 1.1//EN"
 "http://www.w3.org/Graphics/SVG/1.1/DTD/svg11.dtd">
<!-- Generated by graphviz version 2.40.1 (20161225.0304)
 -->
<!-- Title: QwtPlotGLCanvas Pages: 1 -->
<svg width="228pt" height="140pt"
 viewBox="0.00 0.00 227.50 140.00" xmlns="http://www.w3.org/2000/svg" xmlns:xlink="http://www.w3.org/1999/xlink">
<g id="graph0" class="graph" transform="scale(1 1) rotate(0) translate(4 136)">
<title>QwtPlotGLCanvas</title>
<!-- Node1 -->
<g id="node1" class="node">
<title>Node1</title>
<g id="a_node1"><a xlink:title="An alternative canvas for a QwtPlot derived from QGLWidget.">
<polygon fill="#bfbfbf" stroke="#000000" points="43.5,-.5 43.5,-19.5 141.5,-19.5 141.5,-.5 43.5,-.5"/>
<text text-anchor="middle" x="92.5" y="-7.5" font-family="Helvetica,sans-Serif" font-size="10.00" fill="#000000">QwtPlotGLCanvas</text>
</a>
</g>
</g>
<!-- Node2 -->
<g id="node2" class="node">
<title>Node2</title>
<g id="a_node2"><a xlink:title=" ">
<polygon fill="none" stroke="#bfbfbf" points="0,-56.5 0,-75.5 67,-75.5 67,-56.5 0,-56.5"/>
<text text-anchor="middle" x="33.5" y="-63.5" font-family="Helvetica,sans-Serif" font-size="10.00" fill="#000000">QGLWidget</text>
</a>
</g>
</g>
<!-- Node2&#45;&gt;Node1 -->
<g id="edge1" class="edge">
<title>Node2&#45;&gt;Node1</title>
<path fill="none" stroke="#191970" d="M51.0307,-49.3607C61.2377,-39.6727 73.7469,-27.7995 82.3408,-19.6427"/>
<polygon fill="#191970" stroke="#191970" points="48.6206,-46.8227 43.777,-56.2455 53.4396,-51.8998 48.6206,-46.8227"/>
</g>
<!-- Node3 -->
<g id="node3" class="node">
<title>Node3</title>
<g id="a_node3"><a xlink:href="class_qwt_plot_abstract_g_l_canvas.html" target="_top" xlink:title="Base class of QwtPlotOpenGLCanvas and QwtPlotGLCanvas.">
<polygon fill="none" stroke="#000000" points="85.5,-56.5 85.5,-75.5 219.5,-75.5 219.5,-56.5 85.5,-56.5"/>
<text text-anchor="middle" x="152.5" y="-63.5" font-family="Helvetica,sans-Serif" font-size="10.00" fill="#000000">QwtPlotAbstractGLCanvas</text>
</a>
</g>
</g>
<!-- Node3&#45;&gt;Node1 -->
<g id="edge2" class="edge">
<title>Node3&#45;&gt;Node1</title>
<path fill="none" stroke="#191970" d="M134.6722,-49.3607C124.2922,-39.6727 111.5709,-27.7995 102.8314,-19.6427"/>
<polygon fill="#191970" stroke="#191970" points="132.3501,-51.981 142.0488,-56.2455 137.1263,-46.8636 132.3501,-51.981"/>
</g>
<!-- Node4 -->
<g id="node4" class="node">
<title>Node4</title>
<g id="a_node4"><a xlink:href="class_qwt_plot_abstract_canvas.html" target="_top" xlink:title="Base class for all type of plot canvases.">
<polygon fill="none" stroke="#000000" points="91.5,-112.5 91.5,-131.5 213.5,-131.5 213.5,-112.5 91.5,-112.5"/>
<text text-anchor="middle" x="152.5" y="-119.5" font-family="Helvetica,sans-Serif" font-size="10.00" fill="#000000">QwtPlotAbstractCanvas</text>
</a>
</g>
</g>
<!-- Node4&#45;&gt;Node3 -->
<g id="edge3" class="edge">
<title>Node4&#45;&gt;Node3</title>
<path fill="none" stroke="#191970" d="M152.5,-102.1575C152.5,-93.155 152.5,-82.9199 152.5,-75.6427"/>
<polygon fill="#191970" stroke="#191970" points="149.0001,-102.2455 152.5,-112.2455 156.0001,-102.2456 149.0001,-102.2455"/>
</g>
</g>
</svg>
