<?xml version="1.0" encoding="UTF-8" standalone="no"?>
<!DOCTYPE svg PUBLIC "-//W3C//DTD SVG 1.1//EN"
 "http://www.w3.org/Graphics/SVG/1.1/DTD/svg11.dtd">
<!-- Generated by graphviz version 2.40.1 (20161225.0304)
 -->
<!-- Title: QwtTransform Pages: 1 -->
<svg width="339pt" height="84pt"
 viewBox="0.00 0.00 338.50 84.00" xmlns="http://www.w3.org/2000/svg" xmlns:xlink="http://www.w3.org/1999/xlink">
<g id="graph0" class="graph" transform="scale(1 1) rotate(0) translate(4 80)">
<title>QwtTransform</title>
<!-- Node1 -->
<g id="node1" class="node">
<title>Node1</title>
<g id="a_node1"><a xlink:title="A transformation between coordinate systems.">
<polygon fill="#bfbfbf" stroke="#000000" points="121,-56.5 121,-75.5 199,-75.5 199,-56.5 121,-56.5"/>
<text text-anchor="middle" x="160" y="-63.5" font-family="Helvetica,sans-Serif" font-size="10.00" fill="#000000">QwtTransform</text>
</a>
</g>
</g>
<!-- Node2 -->
<g id="node2" class="node">
<title>Node2</title>
<g id="a_node2"><a xlink:href="class_qwt_log_transform.html" target="_top" xlink:title="Logarithmic transformation.">
<polygon fill="none" stroke="#000000" points="0,-.5 0,-19.5 94,-19.5 94,-.5 0,-.5"/>
<text text-anchor="middle" x="47" y="-7.5" font-family="Helvetica,sans-Serif" font-size="10.00" fill="#000000">QwtLogTransform</text>
</a>
</g>
</g>
<!-- Node1&#45;&gt;Node2 -->
<g id="edge1" class="edge">
<title>Node1&#45;&gt;Node2</title>
<path fill="none" stroke="#191970" d="M131.4208,-51.8368C110.9942,-41.7139 84.0638,-28.3679 66.1719,-19.5011"/>
<polygon fill="#191970" stroke="#191970" points="130.0604,-55.0688 140.5746,-56.3733 133.1687,-48.7968 130.0604,-55.0688"/>
</g>
<!-- Node3 -->
<g id="node3" class="node">
<title>Node3</title>
<g id="a_node3"><a xlink:href="class_qwt_null_transform.html" target="_top" xlink:title="Null transformation.">
<polygon fill="none" stroke="#000000" points="112.5,-.5 112.5,-19.5 207.5,-19.5 207.5,-.5 112.5,-.5"/>
<text text-anchor="middle" x="160" y="-7.5" font-family="Helvetica,sans-Serif" font-size="10.00" fill="#000000">QwtNullTransform</text>
</a>
</g>
</g>
<!-- Node1&#45;&gt;Node3 -->
<g id="edge2" class="edge">
<title>Node1&#45;&gt;Node3</title>
<path fill="none" stroke="#191970" d="M160,-46.1575C160,-37.155 160,-26.9199 160,-19.6427"/>
<polygon fill="#191970" stroke="#191970" points="156.5001,-46.2455 160,-56.2455 163.5001,-46.2456 156.5001,-46.2455"/>
</g>
<!-- Node4 -->
<g id="node4" class="node">
<title>Node4</title>
<g id="a_node4"><a xlink:href="class_qwt_power_transform.html" target="_top" xlink:title="A transformation using pow()">
<polygon fill="none" stroke="#000000" points="225.5,-.5 225.5,-19.5 330.5,-19.5 330.5,-.5 225.5,-.5"/>
<text text-anchor="middle" x="278" y="-7.5" font-family="Helvetica,sans-Serif" font-size="10.00" fill="#000000">QwtPowerTransform</text>
</a>
</g>
</g>
<!-- Node1&#45;&gt;Node4 -->
<g id="edge3" class="edge">
<title>Node1&#45;&gt;Node4</title>
<path fill="none" stroke="#191970" d="M189.5547,-51.9741C210.9195,-41.8348 239.2116,-28.408 257.9798,-19.5011"/>
<polygon fill="#191970" stroke="#191970" points="187.8186,-48.9238 180.2849,-56.3733 190.8198,-55.2478 187.8186,-48.9238"/>
</g>
</g>
</svg>
