<?xml version="1.0" encoding="UTF-8" standalone="no"?>
<!DOCTYPE svg PUBLIC "-//W3C//DTD SVG 1.1//EN"
 "http://www.w3.org/Graphics/SVG/1.1/DTD/svg11.dtd">
<!-- Generated by graphviz version 2.40.1 (20161225.0304)
 -->
<!-- Title: QwtScaleDraw Pages: 1 -->
<svg width="127pt" height="140pt"
 viewBox="0.00 0.00 127.00 140.00" xmlns="http://www.w3.org/2000/svg" xmlns:xlink="http://www.w3.org/1999/xlink">
<g id="graph0" class="graph" transform="scale(1 1) rotate(0) translate(4 136)">
<title>QwtScaleDraw</title>
<!-- Node1 -->
<g id="node1" class="node">
<title>Node1</title>
<g id="a_node1"><a xlink:title="A class for drawing scales.">
<polygon fill="#bfbfbf" stroke="#000000" points="18,-56.5 18,-75.5 101,-75.5 101,-56.5 18,-56.5"/>
<text text-anchor="middle" x="59.5" y="-63.5" font-family="Helvetica,sans-Serif" font-size="10.00" fill="#000000">QwtScaleDraw</text>
</a>
</g>
</g>
<!-- Node3 -->
<g id="node3" class="node">
<title>Node3</title>
<g id="a_node3"><a xlink:href="class_qwt_date_scale_draw.html" target="_top" xlink:title="A class for drawing datetime scales.">
<polygon fill="none" stroke="#000000" points="7.5,-.5 7.5,-19.5 111.5,-19.5 111.5,-.5 7.5,-.5"/>
<text text-anchor="middle" x="59.5" y="-7.5" font-family="Helvetica,sans-Serif" font-size="10.00" fill="#000000">QwtDateScaleDraw</text>
</a>
</g>
</g>
<!-- Node1&#45;&gt;Node3 -->
<g id="edge2" class="edge">
<title>Node1&#45;&gt;Node3</title>
<path fill="none" stroke="#191970" d="M59.5,-46.1575C59.5,-37.155 59.5,-26.9199 59.5,-19.6427"/>
<polygon fill="#191970" stroke="#191970" points="56.0001,-46.2455 59.5,-56.2455 63.0001,-46.2456 56.0001,-46.2455"/>
</g>
<!-- Node2 -->
<g id="node2" class="node">
<title>Node2</title>
<g id="a_node2"><a xlink:href="class_qwt_abstract_scale_draw.html" target="_top" xlink:title="A abstract base class for drawing scales.">
<polygon fill="none" stroke="#000000" points="0,-112.5 0,-131.5 119,-131.5 119,-112.5 0,-112.5"/>
<text text-anchor="middle" x="59.5" y="-119.5" font-family="Helvetica,sans-Serif" font-size="10.00" fill="#000000">QwtAbstractScaleDraw</text>
</a>
</g>
</g>
<!-- Node2&#45;&gt;Node1 -->
<g id="edge1" class="edge">
<title>Node2&#45;&gt;Node1</title>
<path fill="none" stroke="#191970" d="M59.5,-102.1575C59.5,-93.155 59.5,-82.9199 59.5,-75.6427"/>
<polygon fill="#191970" stroke="#191970" points="56.0001,-102.2455 59.5,-112.2455 63.0001,-102.2456 56.0001,-102.2455"/>
</g>
</g>
</svg>
