<?xml version="1.0" encoding="UTF-8" standalone="no"?>
<!DOCTYPE svg PUBLIC "-//W3C//DTD SVG 1.1//EN"
 "http://www.w3.org/Graphics/SVG/1.1/DTD/svg11.dtd">
<!-- Generated by graphviz version 2.40.1 (20161225.0304)
 -->
<!-- Title: QwtAbstractSeriesStore Pages: 1 -->
<svg width="703pt" height="332pt"
 viewBox="0.00 0.00 703.00 332.00" xmlns="http://www.w3.org/2000/svg" xmlns:xlink="http://www.w3.org/1999/xlink">
<g id="graph0" class="graph" transform="scale(1 1) rotate(0) translate(4 328)">
<title>QwtAbstractSeriesStore</title>
<!-- Node1 -->
<g id="node1" class="node">
<title>Node1</title>
<g id="a_node1"><a xlink:title="Bridge between QwtSeriesStore and QwtPlotSeriesItem.">
<polygon fill="#bfbfbf" stroke="#000000" points="0,-133.5 0,-152.5 122,-152.5 122,-133.5 0,-133.5"/>
<text text-anchor="middle" x="61" y="-140.5" font-family="Helvetica,sans-Serif" font-size="10.00" fill="#000000">QwtAbstractSeriesStore</text>
</a>
</g>
</g>
<!-- Node2 -->
<g id="node2" class="node">
<title>Node2</title>
<g id="a_node2"><a xlink:href="class_qwt_series_store.html" target="_top" xlink:title=" ">
<polygon fill="none" stroke="#000000" points="176.5,-278 176.5,-308 321.5,-308 321.5,-278 176.5,-278"/>
<text text-anchor="start" x="184.5" y="-296" font-family="Helvetica,sans-Serif" font-size="10.00" fill="#000000">QwtSeriesStore&lt; QwtInterval</text>
<text text-anchor="middle" x="249" y="-285" font-family="Helvetica,sans-Serif" font-size="10.00" fill="#000000">Sample &gt;</text>
</a>
</g>
</g>
<!-- Node1&#45;&gt;Node2 -->
<g id="edge1" class="edge">
<title>Node1&#45;&gt;Node2</title>
<path fill="none" stroke="#191970" d="M70.2136,-161.6727C84.8847,-189.4229 116.2191,-241.2492 158,-269 163.5802,-272.7063 169.7071,-275.8411 176.0625,-278.4923"/>
<polygon fill="#191970" stroke="#191970" points="73.2522,-159.9277 65.574,-152.6274 67.0238,-163.1226 73.2522,-159.9277"/>
</g>
<!-- Node5 -->
<g id="node5" class="node">
<title>Node5</title>
<g id="a_node5"><a xlink:href="class_qwt_series_store.html" target="_top" xlink:title=" ">
<polygon fill="none" stroke="#000000" points="179,-229 179,-259 319,-259 319,-229 179,-229"/>
<text text-anchor="start" x="187" y="-247" font-family="Helvetica,sans-Serif" font-size="10.00" fill="#000000">QwtSeriesStore&lt; QwtVector</text>
<text text-anchor="middle" x="249" y="-236" font-family="Helvetica,sans-Serif" font-size="10.00" fill="#000000">FieldSample &gt;</text>
</a>
</g>
</g>
<!-- Node1&#45;&gt;Node5 -->
<g id="edge4" class="edge">
<title>Node1&#45;&gt;Node5</title>
<path fill="none" stroke="#191970" d="M78.0533,-159.8601C96.3603,-177.0684 127.0119,-203.4009 158,-219 165.6099,-222.8307 173.8829,-226.1367 182.2356,-228.9731"/>
<polygon fill="#191970" stroke="#191970" points="80.1935,-157.0631 70.5537,-152.6669 75.348,-162.115 80.1935,-157.0631"/>
</g>
<!-- Node7 -->
<g id="node7" class="node">
<title>Node7</title>
<g id="a_node7"><a xlink:href="class_qwt_series_store.html" target="_top" xlink:title=" ">
<polygon fill="none" stroke="#000000" points="158,-152.5 158,-171.5 340,-171.5 340,-152.5 158,-152.5"/>
<text text-anchor="middle" x="249" y="-159.5" font-family="Helvetica,sans-Serif" font-size="10.00" fill="#000000">QwtSeriesStore&lt; QwtOHLCSample &gt;</text>
</a>
</g>
</g>
<!-- Node1&#45;&gt;Node7 -->
<g id="edge6" class="edge">
<title>Node1&#45;&gt;Node7</title>
<path fill="none" stroke="#191970" d="M132.155,-150.1912C140.5709,-151.0417 149.2468,-151.9186 157.8901,-152.7921"/>
<polygon fill="#191970" stroke="#191970" points="132.3395,-146.6921 122.0382,-149.1688 131.6356,-153.6566 132.3395,-146.6921"/>
</g>
<!-- Node9 -->
<g id="node9" class="node">
<title>Node9</title>
<g id="a_node9"><a xlink:href="class_qwt_series_store.html" target="_top" xlink:title=" ">
<polygon fill="none" stroke="#000000" points="179,-76.5 179,-95.5 319,-95.5 319,-76.5 179,-76.5"/>
<text text-anchor="middle" x="249" y="-83.5" font-family="Helvetica,sans-Serif" font-size="10.00" fill="#000000">QwtSeriesStore&lt; QPointF &gt;</text>
</a>
</g>
</g>
<!-- Node1&#45;&gt;Node9 -->
<g id="edge8" class="edge">
<title>Node1&#45;&gt;Node9</title>
<path fill="none" stroke="#191970" d="M91.4935,-129.533C110.3722,-121.5791 135.2691,-111.7734 158,-105 170.0644,-101.405 183.225,-98.2369 195.6938,-95.5692"/>
<polygon fill="#191970" stroke="#191970" points="90.034,-126.3504 82.2131,-133.4976 92.7841,-132.7876 90.034,-126.3504"/>
</g>
<!-- Node12 -->
<g id="node12" class="node">
<title>Node12</title>
<g id="a_node12"><a xlink:href="class_qwt_series_store.html" target="_top" xlink:title=" ">
<polygon fill="none" stroke="#000000" points="170.5,-114.5 170.5,-133.5 327.5,-133.5 327.5,-114.5 170.5,-114.5"/>
<text text-anchor="middle" x="249" y="-121.5" font-family="Helvetica,sans-Serif" font-size="10.00" fill="#000000">QwtSeriesStore&lt; QwtPoint3D &gt;</text>
</a>
</g>
</g>
<!-- Node1&#45;&gt;Node12 -->
<g id="edge11" class="edge">
<title>Node1&#45;&gt;Node12</title>
<path fill="none" stroke="#191970" d="M132.3444,-135.7897C144.7963,-134.5312 157.8122,-133.2158 170.4454,-131.939"/>
<polygon fill="#191970" stroke="#191970" points="131.6356,-132.3434 122.0382,-136.8312 132.3395,-139.3079 131.6356,-132.3434"/>
</g>
<!-- Node14 -->
<g id="node14" class="node">
<title>Node14</title>
<g id="a_node14"><a xlink:href="class_qwt_series_store.html" target="_top" xlink:title=" ">
<polygon fill="none" stroke="#000000" points="376,-.5 376,-19.5 546,-19.5 546,-.5 376,-.5"/>
<text text-anchor="middle" x="461" y="-7.5" font-family="Helvetica,sans-Serif" font-size="10.00" fill="#000000">QwtSeriesStore&lt; QwtSetSample &gt;</text>
</a>
</g>
</g>
<!-- Node1&#45;&gt;Node14 -->
<g id="edge13" class="edge">
<title>Node1&#45;&gt;Node14</title>
<path fill="none" stroke="#191970" d="M77.5162,-125.9037C95.5838,-108.2746 126.2284,-81.3898 158,-67 179.9111,-57.0762 320.4353,-32.9866 402.2021,-19.5168"/>
<polygon fill="#191970" stroke="#191970" points="74.7403,-123.7297 70.1411,-133.2742 79.6885,-128.681 74.7403,-123.7297"/>
</g>
<!-- Node16 -->
<g id="node16" class="node">
<title>Node16</title>
<g id="a_node16"><a xlink:href="class_qwt_plot_series_item.html" target="_top" xlink:title="Base class for plot items representing a series of samples.">
<polygon fill="none" stroke="#000000" points="199.5,-190.5 199.5,-209.5 298.5,-209.5 298.5,-190.5 199.5,-190.5"/>
<text text-anchor="middle" x="249" y="-197.5" font-family="Helvetica,sans-Serif" font-size="10.00" fill="#000000">QwtPlotSeriesItem</text>
</a>
</g>
</g>
<!-- Node1&#45;&gt;Node16 -->
<g id="edge15" class="edge">
<title>Node1&#45;&gt;Node16</title>
<path fill="none" stroke="#191970" d="M91.4935,-156.467C110.3722,-164.4209 135.2691,-174.2266 158,-181 171.1471,-184.9176 185.596,-188.3283 199.0328,-191.1369"/>
<polygon fill="#191970" stroke="#191970" points="92.7841,-153.2124 82.2131,-152.5024 90.034,-159.6496 92.7841,-153.2124"/>
</g>
<!-- Node18 -->
<g id="node18" class="node">
<title>Node18</title>
<g id="a_node18"><a xlink:href="class_qwt_series_store.html" target="_top" xlink:title="Class storing a QwtSeriesData object.">
<polygon fill="none" stroke="#000000" points="194,-.5 194,-19.5 304,-19.5 304,-.5 194,-.5"/>
<text text-anchor="middle" x="249" y="-7.5" font-family="Helvetica,sans-Serif" font-size="10.00" fill="#000000">QwtSeriesStore&lt; T &gt;</text>
</a>
</g>
</g>
<!-- Node1&#45;&gt;Node18 -->
<g id="edge25" class="edge">
<title>Node1&#45;&gt;Node18</title>
<path fill="none" stroke="#191970" d="M72.2138,-124.7884C88.2054,-100.375 119.8866,-57.4055 158,-34 168.86,-27.3309 181.5501,-22.4977 193.9469,-19.0008"/>
<polygon fill="#191970" stroke="#191970" points="69.1222,-123.127 66.6965,-133.4404 75.0243,-126.8907 69.1222,-123.127"/>
</g>
<!-- Node3 -->
<g id="node3" class="node">
<title>Node3</title>
<g id="a_node3"><a xlink:href="class_qwt_plot_histogram.html" target="_top" xlink:title="QwtPlotHistogram represents a series of samples, where an interval is associated with a value ( &#160;).">
<polygon fill="none" stroke="#000000" points="412.5,-266.5 412.5,-285.5 509.5,-285.5 509.5,-266.5 412.5,-266.5"/>
<text text-anchor="middle" x="461" y="-273.5" font-family="Helvetica,sans-Serif" font-size="10.00" fill="#000000">QwtPlotHistogram</text>
</a>
</g>
</g>
<!-- Node2&#45;&gt;Node3 -->
<g id="edge2" class="edge">
<title>Node2&#45;&gt;Node3</title>
<path fill="none" stroke="#191970" d="M331.9818,-286.3458C359.2227,-284.1614 388.5946,-281.8061 412.4221,-279.8954"/>
<polygon fill="#191970" stroke="#191970" points="331.35,-282.8851 321.6618,-287.1733 331.9096,-289.8627 331.35,-282.8851"/>
</g>
<!-- Node4 -->
<g id="node4" class="node">
<title>Node4</title>
<g id="a_node4"><a xlink:href="class_qwt_plot_interval_curve.html" target="_top" xlink:title="QwtPlotIntervalCurve represents a series of samples, where each value is associated with an interval ...">
<polygon fill="none" stroke="#000000" points="406,-304.5 406,-323.5 516,-323.5 516,-304.5 406,-304.5"/>
<text text-anchor="middle" x="461" y="-311.5" font-family="Helvetica,sans-Serif" font-size="10.00" fill="#000000">QwtPlotIntervalCurve</text>
</a>
</g>
</g>
<!-- Node2&#45;&gt;Node4 -->
<g id="edge3" class="edge">
<title>Node2&#45;&gt;Node4</title>
<path fill="none" stroke="#191970" d="M331.809,-301.2028C356.6416,-303.6626 383.2597,-306.2993 405.8432,-308.5364"/>
<polygon fill="#191970" stroke="#191970" points="331.9581,-297.7005 321.6618,-300.1976 331.268,-304.6664 331.9581,-297.7005"/>
</g>
<!-- Node6 -->
<g id="node6" class="node">
<title>Node6</title>
<g id="a_node6"><a xlink:href="class_qwt_plot_vector_field.html" target="_top" xlink:title="A plot item, that represents a vector field.">
<polygon fill="none" stroke="#000000" points="410.5,-228.5 410.5,-247.5 511.5,-247.5 511.5,-228.5 410.5,-228.5"/>
<text text-anchor="middle" x="461" y="-235.5" font-family="Helvetica,sans-Serif" font-size="10.00" fill="#000000">QwtPlotVectorField</text>
</a>
</g>
</g>
<!-- Node5&#45;&gt;Node6 -->
<g id="edge5" class="edge">
<title>Node5&#45;&gt;Node6</title>
<path fill="none" stroke="#191970" d="M329.2778,-241.728C356.4317,-240.9595 385.9823,-240.1231 410.2007,-239.4377"/>
<polygon fill="#191970" stroke="#191970" points="328.9012,-238.2371 319.0043,-242.0187 329.0993,-245.2343 328.9012,-238.2371"/>
</g>
<!-- Node8 -->
<g id="node8" class="node">
<title>Node8</title>
<g id="a_node8"><a xlink:href="class_qwt_plot_trading_curve.html" target="_top" xlink:title="QwtPlotTradingCurve illustrates movements in the price of a financial instrument over time.">
<polygon fill="none" stroke="#000000" points="406,-152.5 406,-171.5 516,-171.5 516,-152.5 406,-152.5"/>
<text text-anchor="middle" x="461" y="-159.5" font-family="Helvetica,sans-Serif" font-size="10.00" fill="#000000">QwtPlotTradingCurve</text>
</a>
</g>
</g>
<!-- Node7&#45;&gt;Node8 -->
<g id="edge7" class="edge">
<title>Node7&#45;&gt;Node8</title>
<path fill="none" stroke="#191970" d="M350.3923,-162C369.4747,-162 388.7565,-162 405.7579,-162"/>
<polygon fill="#191970" stroke="#191970" points="350.1375,-158.5001 340.1374,-162 350.1374,-165.5001 350.1375,-158.5001"/>
</g>
<!-- Node10 -->
<g id="node10" class="node">
<title>Node10</title>
<g id="a_node10"><a xlink:href="class_qwt_plot_bar_chart.html" target="_top" xlink:title="QwtPlotBarChart displays a series of a values as bars.">
<polygon fill="none" stroke="#000000" points="592.5,-152.5 592.5,-171.5 684.5,-171.5 684.5,-152.5 592.5,-152.5"/>
<text text-anchor="middle" x="638.5" y="-159.5" font-family="Helvetica,sans-Serif" font-size="10.00" fill="#000000">QwtPlotBarChart</text>
</a>
</g>
</g>
<!-- Node9&#45;&gt;Node10 -->
<g id="edge9" class="edge">
<title>Node9&#45;&gt;Node10</title>
<path fill="none" stroke="#191970" d="M314.9461,-74.8928C389.5675,-63.5239 505.9385,-49.7683 546,-67 567.3713,-76.1925 565.8101,-88.2931 582,-105 598.2901,-121.8103 617.532,-141.1049 628.8358,-152.3836"/>
<polygon fill="#191970" stroke="#191970" points="314.053,-71.4893 304.706,-76.4777 315.1237,-78.4069 314.053,-71.4893"/>
</g>
<!-- Node11 -->
<g id="node11" class="node">
<title>Node11</title>
<g id="a_node11"><a xlink:href="class_qwt_plot_curve.html" target="_top" xlink:title="A plot item, that represents a series of points.">
<polygon fill="none" stroke="#000000" points="422,-76.5 422,-95.5 500,-95.5 500,-76.5 422,-76.5"/>
<text text-anchor="middle" x="461" y="-83.5" font-family="Helvetica,sans-Serif" font-size="10.00" fill="#000000">QwtPlotCurve</text>
</a>
</g>
</g>
<!-- Node9&#45;&gt;Node11 -->
<g id="edge10" class="edge">
<title>Node9&#45;&gt;Node11</title>
<path fill="none" stroke="#191970" d="M329.1863,-86C360.9516,-86 396.0101,-86 421.9809,-86"/>
<polygon fill="#191970" stroke="#191970" points="329.0043,-82.5001 319.0043,-86 329.0042,-89.5001 329.0043,-82.5001"/>
</g>
<!-- Node13 -->
<g id="node13" class="node">
<title>Node13</title>
<g id="a_node13"><a xlink:href="class_qwt_plot_spectro_curve.html" target="_top" xlink:title="Curve that displays 3D points as dots, where the z coordinate is mapped to a color.">
<polygon fill="none" stroke="#000000" points="405,-114.5 405,-133.5 517,-133.5 517,-114.5 405,-114.5"/>
<text text-anchor="middle" x="461" y="-121.5" font-family="Helvetica,sans-Serif" font-size="10.00" fill="#000000">QwtPlotSpectroCurve</text>
</a>
</g>
</g>
<!-- Node12&#45;&gt;Node13 -->
<g id="edge12" class="edge">
<title>Node12&#45;&gt;Node13</title>
<path fill="none" stroke="#191970" d="M337.6746,-124C360.4729,-124 384.3702,-124 404.9929,-124"/>
<polygon fill="#191970" stroke="#191970" points="337.6397,-120.5001 327.6397,-124 337.6397,-127.5001 337.6397,-120.5001"/>
</g>
<!-- Node15 -->
<g id="node15" class="node">
<title>Node15</title>
<g id="a_node15"><a xlink:href="class_qwt_plot_multi_bar_chart.html" target="_top" xlink:title="QwtPlotMultiBarChart displays a series of a samples that consist each of a set of values.">
<polygon fill="none" stroke="#000000" points="582,-76.5 582,-95.5 695,-95.5 695,-76.5 582,-76.5"/>
<text text-anchor="middle" x="638.5" y="-83.5" font-family="Helvetica,sans-Serif" font-size="10.00" fill="#000000">QwtPlotMultiBarChart</text>
</a>
</g>
</g>
<!-- Node14&#45;&gt;Node15 -->
<g id="edge14" class="edge">
<title>Node14&#45;&gt;Node15</title>
<path fill="none" stroke="#191970" d="M512.1025,-22.3071C523.4374,-25.6198 535.2664,-29.5419 546,-34 574.9229,-46.0129 606.2232,-65.0021 623.9889,-76.4047"/>
<polygon fill="#191970" stroke="#191970" points="512.8828,-18.8908 502.3088,-19.5546 510.9889,-25.6297 512.8828,-18.8908"/>
</g>
<!-- Node16&#45;&gt;Node3 -->
<g id="edge20" class="edge">
<title>Node16&#45;&gt;Node3</title>
<path fill="none" stroke="#191970" d="M308.5303,-207.8462C319.4166,-210.7181 330.3682,-214.6412 340,-220 360.0496,-231.1549 355.9703,-245.8093 376,-257 387.0884,-263.1952 400.0517,-267.3705 412.4656,-270.1844"/>
<polygon fill="#191970" stroke="#191970" points="309.128,-204.391 298.5906,-205.4932 307.5154,-211.2028 309.128,-204.391"/>
</g>
<!-- Node16&#45;&gt;Node4 -->
<g id="edge21" class="edge">
<title>Node16&#45;&gt;Node4</title>
<path fill="none" stroke="#191970" d="M308.7041,-205.047C319.9392,-208.1356 330.9768,-212.8542 340,-220 368.9858,-242.9551 347.0553,-271.9932 376,-295 384.5228,-301.7744 394.9752,-306.2411 405.5976,-309.1624"/>
<polygon fill="#191970" stroke="#191970" points="309.3604,-201.6061 298.8256,-202.7324 307.7634,-208.4215 309.3604,-201.6061"/>
</g>
<!-- Node16&#45;&gt;Node6 -->
<g id="edge24" class="edge">
<title>Node16&#45;&gt;Node6</title>
<path fill="none" stroke="#191970" d="M308.8123,-210.7211C340.7569,-216.447 379.6585,-223.4199 410.1344,-228.8826"/>
<polygon fill="#191970" stroke="#191970" points="309.1653,-207.2286 298.7046,-208.9093 307.9302,-214.1188 309.1653,-207.2286"/>
</g>
<!-- Node16&#45;&gt;Node8 -->
<g id="edge23" class="edge">
<title>Node16&#45;&gt;Node8</title>
<path fill="none" stroke="#191970" d="M308.5853,-189.3196C339.798,-183.7249 377.7013,-176.9309 407.9009,-171.5178"/>
<polygon fill="#191970" stroke="#191970" points="307.9302,-185.8812 298.7046,-191.0907 309.1653,-192.7714 307.9302,-185.8812"/>
</g>
<!-- Node16&#45;&gt;Node11 -->
<g id="edge19" class="edge">
<title>Node16&#45;&gt;Node11</title>
<path fill="none" stroke="#191970" d="M308.706,-195.7012C319.941,-192.729 330.9781,-188.1056 340,-181 369.3624,-157.8745 346.8012,-128.3317 376,-105 388.8762,-94.7111 406.1971,-89.7394 421.8435,-87.4221"/>
<polygon fill="#191970" stroke="#191970" points="307.8234,-192.312 298.8275,-197.9089 309.3502,-199.1435 307.8234,-192.312"/>
</g>
<!-- Node16&#45;&gt;Node13 -->
<g id="edge22" class="edge">
<title>Node16&#45;&gt;Node13</title>
<path fill="none" stroke="#191970" d="M308.5774,-192.9813C319.4595,-190.2132 330.3974,-186.3603 340,-181 360.3138,-169.6606 355.7665,-154.4822 376,-143 384.8112,-137.9998 394.8326,-134.3154 404.827,-131.6007"/>
<polygon fill="#191970" stroke="#191970" points="307.62,-189.6094 298.6393,-195.2307 309.1653,-196.4367 307.62,-189.6094"/>
</g>
<!-- Node17 -->
<g id="node17" class="node">
<title>Node17</title>
<g id="a_node17"><a xlink:href="class_qwt_plot_abstract_bar_chart.html" target="_top" xlink:title="Abstract base class for bar chart items.">
<polygon fill="none" stroke="#000000" points="397,-190.5 397,-209.5 525,-209.5 525,-190.5 397,-190.5"/>
<text text-anchor="middle" x="461" y="-197.5" font-family="Helvetica,sans-Serif" font-size="10.00" fill="#000000">QwtPlotAbstractBarChart</text>
</a>
</g>
</g>
<!-- Node16&#45;&gt;Node17 -->
<g id="edge16" class="edge">
<title>Node16&#45;&gt;Node17</title>
<path fill="none" stroke="#191970" d="M308.9349,-200C336.3318,-200 368.8256,-200 396.7288,-200"/>
<polygon fill="#191970" stroke="#191970" points="308.7046,-196.5001 298.7046,-200 308.7045,-203.5001 308.7046,-196.5001"/>
</g>
<!-- Node17&#45;&gt;Node10 -->
<g id="edge17" class="edge">
<title>Node17&#45;&gt;Node10</title>
<path fill="none" stroke="#191970" d="M515.8969,-188.2474C540.9954,-182.8742 570.3428,-176.5914 594.0313,-171.5201"/>
<polygon fill="#191970" stroke="#191970" points="514.8365,-184.8951 505.7907,-190.411 516.3019,-191.74 514.8365,-184.8951"/>
</g>
<!-- Node17&#45;&gt;Node15 -->
<g id="edge18" class="edge">
<title>Node17&#45;&gt;Node15</title>
<path fill="none" stroke="#191970" d="M533.5202,-186.9672C537.8493,-185.2222 542.0464,-183.2436 546,-181 566.2335,-169.5178 565.8101,-159.7069 582,-143 598.2901,-126.1897 617.532,-106.8951 628.8358,-95.6164"/>
<polygon fill="#191970" stroke="#191970" points="532.1071,-183.7557 523.8758,-190.4263 534.4704,-190.3447 532.1071,-183.7557"/>
</g>
</g>
</svg>
