<?xml version="1.0" encoding="UTF-8" standalone="no"?>
<!DOCTYPE svg PUBLIC "-//W3C//DTD SVG 1.1//EN"
 "http://www.w3.org/Graphics/SVG/1.1/DTD/svg11.dtd">
<!-- Generated by graphviz version 2.40.1 (20161225.0304)
 -->
<!-- Title: QwtPlotCanvas Pages: 1 -->
<svg width="200pt" height="84pt"
 viewBox="0.00 0.00 200.00 84.00" xmlns="http://www.w3.org/2000/svg" xmlns:xlink="http://www.w3.org/1999/xlink">
<g id="graph0" class="graph" transform="scale(1 1) rotate(0) translate(4 80)">
<title>QwtPlotCanvas</title>
<!-- Node1 -->
<g id="node1" class="node">
<title>Node1</title>
<g id="a_node1"><a xlink:title="Canvas of a QwtPlot.">
<polygon fill="#bfbfbf" stroke="#000000" points="35.5,-.5 35.5,-19.5 120.5,-19.5 120.5,-.5 35.5,-.5"/>
<text text-anchor="middle" x="78" y="-7.5" font-family="Helvetica,sans-Serif" font-size="10.00" fill="#000000">QwtPlotCanvas</text>
</a>
</g>
</g>
<!-- Node2 -->
<g id="node2" class="node">
<title>Node2</title>
<g id="a_node2"><a xlink:title=" ">
<polygon fill="none" stroke="#bfbfbf" points="0,-56.5 0,-75.5 52,-75.5 52,-56.5 0,-56.5"/>
<text text-anchor="middle" x="26" y="-63.5" font-family="Helvetica,sans-Serif" font-size="10.00" fill="#000000">QFrame</text>
</a>
</g>
</g>
<!-- Node2&#45;&gt;Node1 -->
<g id="edge1" class="edge">
<title>Node2&#45;&gt;Node1</title>
<path fill="none" stroke="#191970" d="M41.9822,-48.7884C50.8778,-39.2085 61.6204,-27.6396 69.0461,-19.6427"/>
<polygon fill="#191970" stroke="#191970" points="39.2975,-46.536 35.0577,-56.2455 44.427,-51.2992 39.2975,-46.536"/>
</g>
<!-- Node3 -->
<g id="node3" class="node">
<title>Node3</title>
<g id="a_node3"><a xlink:href="class_qwt_plot_abstract_canvas.html" target="_top" xlink:title="Base class for all type of plot canvases.">
<polygon fill="none" stroke="#000000" points="70,-56.5 70,-75.5 192,-75.5 192,-56.5 70,-56.5"/>
<text text-anchor="middle" x="131" y="-63.5" font-family="Helvetica,sans-Serif" font-size="10.00" fill="#000000">QwtPlotAbstractCanvas</text>
</a>
</g>
</g>
<!-- Node3&#45;&gt;Node1 -->
<g id="edge2" class="edge">
<title>Node3&#45;&gt;Node1</title>
<path fill="none" stroke="#191970" d="M114.7104,-48.7884C105.6438,-39.2085 94.6946,-27.6396 87.1261,-19.6427"/>
<polygon fill="#191970" stroke="#191970" points="112.3522,-51.3884 121.7681,-56.2455 117.4363,-46.5767 112.3522,-51.3884"/>
</g>
</g>
</svg>
