<?xml version="1.0" encoding="UTF-8" standalone="no"?>
<!DOCTYPE svg PUBLIC "-//W3C//DTD SVG 1.1//EN"
 "http://www.w3.org/Graphics/SVG/1.1/DTD/svg11.dtd">
<!-- Generated by graphviz version 2.40.1 (20161225.0304)
 -->
<!-- Title: Graphical Class Hierarchy Pages: 1 -->
<svg width="395pt" height="66pt"
 viewBox="0.00 0.00 395.00 66.00" xmlns="http://www.w3.org/2000/svg" xmlns:xlink="http://www.w3.org/1999/xlink">
<g id="graph0" class="graph" transform="scale(1 1) rotate(0) translate(4 62)">
<title>Graphical Class Hierarchy</title>
<!-- Node0 -->
<g id="node1" class="node">
<title>Node0</title>
<g id="a_node1"><a xlink:href="class_qwt_scale_engine.html" target="_top" xlink:title="Base class for scale engines.">
<polygon fill="none" stroke="#000000" points="0,-19.5 0,-38.5 89,-38.5 89,-19.5 0,-19.5"/>
<text text-anchor="middle" x="44.5" y="-26.5" font-family="Helvetica,sans-Serif" font-size="10.00" fill="#000000">QwtScaleEngine</text>
</a>
</g>
</g>
<!-- Node1 -->
<g id="node2" class="node">
<title>Node1</title>
<g id="a_node2"><a xlink:href="class_qwt_linear_scale_engine.html" target="_top" xlink:title="A scale engine for linear scales.">
<polygon fill="none" stroke="#000000" points="125,-38.5 125,-57.5 241,-57.5 241,-38.5 125,-38.5"/>
<text text-anchor="middle" x="183" y="-45.5" font-family="Helvetica,sans-Serif" font-size="10.00" fill="#000000">QwtLinearScaleEngine</text>
</a>
</g>
</g>
<!-- Node0&#45;&gt;Node1 -->
<g id="edge1" class="edge">
<title>Node0&#45;&gt;Node1</title>
<path fill="none" stroke="#191970" d="M99.1804,-36.5013C107.609,-37.6576 116.3392,-38.8552 124.8405,-40.0214"/>
<polygon fill="#191970" stroke="#191970" points="99.4676,-33.008 89.0846,-35.1163 98.5161,-39.943 99.4676,-33.008"/>
</g>
<!-- Node3 -->
<g id="node4" class="node">
<title>Node3</title>
<g id="a_node4"><a xlink:href="class_qwt_log_scale_engine.html" target="_top" xlink:title="A scale engine for logarithmic scales.">
<polygon fill="none" stroke="#000000" points="130.5,-.5 130.5,-19.5 235.5,-19.5 235.5,-.5 130.5,-.5"/>
<text text-anchor="middle" x="183" y="-7.5" font-family="Helvetica,sans-Serif" font-size="10.00" fill="#000000">QwtLogScaleEngine</text>
</a>
</g>
</g>
<!-- Node0&#45;&gt;Node3 -->
<g id="edge3" class="edge">
<title>Node0&#45;&gt;Node3</title>
<path fill="none" stroke="#191970" d="M99.1495,-21.503C109.3988,-20.0969 120.0951,-18.6296 130.2841,-17.2318"/>
<polygon fill="#191970" stroke="#191970" points="98.5161,-18.057 89.0846,-22.8837 99.4676,-24.992 98.5161,-18.057"/>
</g>
<!-- Node2 -->
<g id="node3" class="node">
<title>Node2</title>
<g id="a_node3"><a xlink:href="class_qwt_date_scale_engine.html" target="_top" xlink:title="A scale engine for date/time values.">
<polygon fill="none" stroke="#000000" points="277,-38.5 277,-57.5 387,-57.5 387,-38.5 277,-38.5"/>
<text text-anchor="middle" x="332" y="-45.5" font-family="Helvetica,sans-Serif" font-size="10.00" fill="#000000">QwtDateScaleEngine</text>
</a>
</g>
</g>
<!-- Node1&#45;&gt;Node2 -->
<g id="edge2" class="edge">
<title>Node1&#45;&gt;Node2</title>
<path fill="none" stroke="#191970" d="M251.071,-48C259.69,-48 268.4247,-48 276.809,-48"/>
<polygon fill="#191970" stroke="#191970" points="251.034,-44.5001 241.0339,-48 251.0339,-51.5001 251.034,-44.5001"/>
</g>
</g>
</svg>
