<?xml version="1.0" encoding="UTF-8" standalone="no"?>
<!DOCTYPE svg PUBLIC "-//W3C//DTD SVG 1.1//EN"
 "http://www.w3.org/Graphics/SVG/1.1/DTD/svg11.dtd">
<!-- Generated by graphviz version 2.40.1 (20161225.0304)
 -->
<!-- Title: Graphical Class Hierarchy Pages: 1 -->
<svg width="285pt" height="256pt"
 viewBox="0.00 0.00 285.00 256.00" xmlns="http://www.w3.org/2000/svg" xmlns:xlink="http://www.w3.org/1999/xlink">
<g id="graph0" class="graph" transform="scale(1 1) rotate(0) translate(4 252)">
<title>Graphical Class Hierarchy</title>
<!-- Node0 -->
<g id="node1" class="node">
<title>Node0</title>
<g id="a_node1"><a xlink:href="class_qwt_picker_machine.html" target="_top" xlink:title="A state machine for QwtPicker selections.">
<polygon fill="none" stroke="#000000" points="0,-114.5 0,-133.5 98,-133.5 98,-114.5 0,-114.5"/>
<text text-anchor="middle" x="49" y="-121.5" font-family="Helvetica,sans-Serif" font-size="10.00" fill="#000000">QwtPickerMachine</text>
</a>
</g>
</g>
<!-- Node1 -->
<g id="node2" class="node">
<title>Node1</title>
<g id="a_node2"><a xlink:href="class_qwt_picker_click_point_machine.html" target="_top" xlink:title="A state machine for point selections.">
<polygon fill="none" stroke="#000000" points="134,-228.5 134,-247.5 277,-247.5 277,-228.5 134,-228.5"/>
<text text-anchor="middle" x="205.5" y="-235.5" font-family="Helvetica,sans-Serif" font-size="10.00" fill="#000000">QwtPickerClickPointMachine</text>
</a>
</g>
</g>
<!-- Node0&#45;&gt;Node1 -->
<g id="edge1" class="edge">
<title>Node0&#45;&gt;Node1</title>
<path fill="none" stroke="#191970" d="M60.5106,-142.351C75.0142,-163.9448 101.9575,-199.3407 134,-219 140.3497,-222.8958 147.4923,-226.0015 154.7426,-228.4753"/>
<polygon fill="#191970" stroke="#191970" points="63.3069,-140.2315 54.9128,-133.767 57.4435,-144.0552 63.3069,-140.2315"/>
</g>
<!-- Node2 -->
<g id="node3" class="node">
<title>Node2</title>
<g id="a_node3"><a xlink:href="class_qwt_picker_click_rect_machine.html" target="_top" xlink:title="A state machine for rectangle selections.">
<polygon fill="none" stroke="#000000" points="135,-190.5 135,-209.5 276,-209.5 276,-190.5 135,-190.5"/>
<text text-anchor="middle" x="205.5" y="-197.5" font-family="Helvetica,sans-Serif" font-size="10.00" fill="#000000">QwtPickerClickRectMachine</text>
</a>
</g>
</g>
<!-- Node0&#45;&gt;Node2 -->
<g id="edge2" class="edge">
<title>Node0&#45;&gt;Node2</title>
<path fill="none" stroke="#191970" d="M68.9454,-140.1713C85.4935,-152.8767 110.1011,-170.1773 134,-181 142.3071,-184.7619 151.5062,-187.8986 160.4634,-190.4675"/>
<polygon fill="#191970" stroke="#191970" points="70.6656,-137.0725 60.6368,-133.6558 66.3461,-142.5808 70.6656,-137.0725"/>
</g>
<!-- Node3 -->
<g id="node4" class="node">
<title>Node3</title>
<g id="a_node4"><a xlink:href="class_qwt_picker_drag_line_machine.html" target="_top" xlink:title="A state machine for line selections.">
<polygon fill="none" stroke="#000000" points="137,-152.5 137,-171.5 274,-171.5 274,-152.5 137,-152.5"/>
<text text-anchor="middle" x="205.5" y="-159.5" font-family="Helvetica,sans-Serif" font-size="10.00" fill="#000000">QwtPickerDragLineMachine</text>
</a>
</g>
</g>
<!-- Node0&#45;&gt;Node3 -->
<g id="edge3" class="edge">
<title>Node0&#45;&gt;Node3</title>
<path fill="none" stroke="#191970" d="M98.2892,-135.968C120.2203,-141.2931 145.6849,-147.4762 166.2924,-152.4799"/>
<polygon fill="#191970" stroke="#191970" points="99.0351,-132.5475 88.4916,-133.589 97.3833,-139.3498 99.0351,-132.5475"/>
</g>
<!-- Node4 -->
<g id="node5" class="node">
<title>Node4</title>
<g id="a_node5"><a xlink:href="class_qwt_picker_drag_point_machine.html" target="_top" xlink:title="A state machine for point selections.">
<polygon fill="none" stroke="#000000" points="134.5,-114.5 134.5,-133.5 276.5,-133.5 276.5,-114.5 134.5,-114.5"/>
<text text-anchor="middle" x="205.5" y="-121.5" font-family="Helvetica,sans-Serif" font-size="10.00" fill="#000000">QwtPickerDragPointMachine</text>
</a>
</g>
</g>
<!-- Node0&#45;&gt;Node4 -->
<g id="edge4" class="edge">
<title>Node0&#45;&gt;Node4</title>
<path fill="none" stroke="#191970" d="M108.254,-124C116.7409,-124 125.5453,-124 134.2338,-124"/>
<polygon fill="#191970" stroke="#191970" points="108.0882,-120.5001 98.0882,-124 108.0882,-127.5001 108.0882,-120.5001"/>
</g>
<!-- Node5 -->
<g id="node6" class="node">
<title>Node5</title>
<g id="a_node6"><a xlink:href="class_qwt_picker_drag_rect_machine.html" target="_top" xlink:title="A state machine for rectangle selections.">
<polygon fill="none" stroke="#000000" points="135.5,-76.5 135.5,-95.5 275.5,-95.5 275.5,-76.5 135.5,-76.5"/>
<text text-anchor="middle" x="205.5" y="-83.5" font-family="Helvetica,sans-Serif" font-size="10.00" fill="#000000">QwtPickerDragRectMachine</text>
</a>
</g>
</g>
<!-- Node0&#45;&gt;Node5 -->
<g id="edge5" class="edge">
<title>Node0&#45;&gt;Node5</title>
<path fill="none" stroke="#191970" d="M98.2892,-112.032C120.2203,-106.7069 145.6849,-100.5238 166.2924,-95.5201"/>
<polygon fill="#191970" stroke="#191970" points="97.3833,-108.6502 88.4916,-114.411 99.0351,-115.4525 97.3833,-108.6502"/>
</g>
<!-- Node6 -->
<g id="node7" class="node">
<title>Node6</title>
<g id="a_node7"><a xlink:href="class_qwt_picker_polygon_machine.html" target="_top" xlink:title="A state machine for polygon selections.">
<polygon fill="none" stroke="#000000" points="139,-38.5 139,-57.5 272,-57.5 272,-38.5 139,-38.5"/>
<text text-anchor="middle" x="205.5" y="-45.5" font-family="Helvetica,sans-Serif" font-size="10.00" fill="#000000">QwtPickerPolygonMachine</text>
</a>
</g>
</g>
<!-- Node0&#45;&gt;Node6 -->
<g id="edge6" class="edge">
<title>Node0&#45;&gt;Node6</title>
<path fill="none" stroke="#191970" d="M68.9454,-107.8287C85.4935,-95.1233 110.1011,-77.8227 134,-67 142.3071,-63.2381 151.5062,-60.1014 160.4634,-57.5325"/>
<polygon fill="#191970" stroke="#191970" points="66.3461,-105.4192 60.6368,-114.3442 70.6656,-110.9275 66.3461,-105.4192"/>
</g>
<!-- Node7 -->
<g id="node8" class="node">
<title>Node7</title>
<g id="a_node8"><a xlink:href="class_qwt_picker_tracker_machine.html" target="_top" xlink:title="A state machine for indicating mouse movements.">
<polygon fill="none" stroke="#000000" points="140.5,-.5 140.5,-19.5 270.5,-19.5 270.5,-.5 140.5,-.5"/>
<text text-anchor="middle" x="205.5" y="-7.5" font-family="Helvetica,sans-Serif" font-size="10.00" fill="#000000">QwtPickerTrackerMachine</text>
</a>
</g>
</g>
<!-- Node0&#45;&gt;Node7 -->
<g id="edge7" class="edge">
<title>Node0&#45;&gt;Node7</title>
<path fill="none" stroke="#191970" d="M60.5106,-105.649C75.0142,-84.0552 101.9575,-48.6593 134,-29 140.3497,-25.1042 147.4923,-21.9985 154.7426,-19.5247"/>
<polygon fill="#191970" stroke="#191970" points="57.4435,-103.9448 54.9128,-114.233 63.3069,-107.7685 57.4435,-103.9448"/>
</g>
</g>
</svg>
