<?xml version="1.0" encoding="UTF-8" standalone="no"?>
<!DOCTYPE svg PUBLIC "-//W3C//DTD SVG 1.1//EN"
 "http://www.w3.org/Graphics/SVG/1.1/DTD/svg11.dtd">
<!-- Generated by graphviz version 2.40.1 (20161225.0304)
 -->
<!-- Title: Graphical Class Hierarchy Pages: 1 -->
<svg width="267pt" height="104pt"
 viewBox="0.00 0.00 267.00 104.00" xmlns="http://www.w3.org/2000/svg" xmlns:xlink="http://www.w3.org/1999/xlink">
<g id="graph0" class="graph" transform="scale(1 1) rotate(0) translate(4 100)">
<title>Graphical Class Hierarchy</title>
<!-- Node0 -->
<g id="node1" class="node">
<title>Node0</title>
<g id="a_node1"><a xlink:href="class_qwt_dial_needle.html" target="_top" xlink:title="Base class for needles that can be used in a QwtDial.">
<polygon fill="none" stroke="#000000" points="0,-38.5 0,-57.5 83,-57.5 83,-38.5 0,-38.5"/>
<text text-anchor="middle" x="41.5" y="-45.5" font-family="Helvetica,sans-Serif" font-size="10.00" fill="#000000">QwtDialNeedle</text>
</a>
</g>
</g>
<!-- Node1 -->
<g id="node2" class="node">
<title>Node1</title>
<g id="a_node2"><a xlink:href="class_qwt_compass_magnet_needle.html" target="_top" xlink:title="A magnet needle for compass widgets.">
<polygon fill="none" stroke="#000000" points="119,-76.5 119,-95.5 259,-95.5 259,-76.5 119,-76.5"/>
<text text-anchor="middle" x="189" y="-83.5" font-family="Helvetica,sans-Serif" font-size="10.00" fill="#000000">QwtCompassMagnetNeedle</text>
</a>
</g>
</g>
<!-- Node0&#45;&gt;Node1 -->
<g id="edge1" class="edge">
<title>Node0&#45;&gt;Node1</title>
<path fill="none" stroke="#191970" d="M88.5141,-60.1121C109.0566,-65.4044 132.7998,-71.5213 152.0472,-76.4799"/>
<polygon fill="#191970" stroke="#191970" points="89.2775,-56.6946 78.7205,-57.589 87.5311,-63.4732 89.2775,-56.6946"/>
</g>
<!-- Node2 -->
<g id="node3" class="node">
<title>Node2</title>
<g id="a_node3"><a xlink:href="class_qwt_compass_wind_arrow.html" target="_top" xlink:title="An indicator for the wind direction.">
<polygon fill="none" stroke="#000000" points="126.5,-38.5 126.5,-57.5 251.5,-57.5 251.5,-38.5 126.5,-38.5"/>
<text text-anchor="middle" x="189" y="-45.5" font-family="Helvetica,sans-Serif" font-size="10.00" fill="#000000">QwtCompassWindArrow</text>
</a>
</g>
</g>
<!-- Node0&#45;&gt;Node2 -->
<g id="edge2" class="edge">
<title>Node0&#45;&gt;Node2</title>
<path fill="none" stroke="#191970" d="M93.6903,-48C104.2597,-48 115.4767,-48 126.3632,-48"/>
<polygon fill="#191970" stroke="#191970" points="93.3731,-44.5001 83.373,-48 93.373,-51.5001 93.3731,-44.5001"/>
</g>
<!-- Node3 -->
<g id="node4" class="node">
<title>Node3</title>
<g id="a_node4"><a xlink:href="class_qwt_dial_simple_needle.html" target="_top" xlink:title="A needle for dial widgets.">
<polygon fill="none" stroke="#000000" points="132.5,-.5 132.5,-19.5 245.5,-19.5 245.5,-.5 132.5,-.5"/>
<text text-anchor="middle" x="189" y="-7.5" font-family="Helvetica,sans-Serif" font-size="10.00" fill="#000000">QwtDialSimpleNeedle</text>
</a>
</g>
</g>
<!-- Node0&#45;&gt;Node3 -->
<g id="edge3" class="edge">
<title>Node0&#45;&gt;Node3</title>
<path fill="none" stroke="#191970" d="M88.5141,-35.8879C109.0566,-30.5956 132.7998,-24.4787 152.0472,-19.5201"/>
<polygon fill="#191970" stroke="#191970" points="87.5311,-32.5268 78.7205,-38.411 89.2775,-39.3054 87.5311,-32.5268"/>
</g>
</g>
</svg>
