<?xml version="1.0" encoding="UTF-8" standalone="no"?>
<!DOCTYPE svg PUBLIC "-//W3C//DTD SVG 1.1//EN"
 "http://www.w3.org/Graphics/SVG/1.1/DTD/svg11.dtd">
<!-- Generated by graphviz version 2.40.1 (20161225.0304)
 -->
<!-- Title: Graphical Class Hierarchy Pages: 1 -->
<svg width="440pt" height="274pt"
 viewBox="0.00 0.00 440.00 273.50" xmlns="http://www.w3.org/2000/svg" xmlns:xlink="http://www.w3.org/1999/xlink">
<g id="graph0" class="graph" transform="scale(1 1) rotate(0) translate(4 269.5)">
<title>Graphical Class Hierarchy</title>
<!-- Node0 -->
<g id="node1" class="node">
<title>Node0</title>
<g id="a_node1"><a xlink:href="class_qwt_series_data.html" target="_top" xlink:title="Abstract interface for iterating over samples.">
<polygon fill="none" stroke="#000000" points="0,-117.5 0,-136.5 107,-136.5 107,-117.5 0,-117.5"/>
<text text-anchor="middle" x="53.5" y="-124.5" font-family="Helvetica,sans-Serif" font-size="10.00" fill="#000000">QwtSeriesData&lt; T &gt;</text>
</a>
</g>
</g>
<!-- Node1 -->
<g id="node2" class="node">
<title>Node1</title>
<g id="a_node2"><a xlink:href="class_qwt_array_series_data.html" target="_top" xlink:title=" ">
<polygon fill="none" stroke="#000000" points="151,-235 151,-265 269,-265 269,-235 151,-235"/>
<text text-anchor="start" x="159" y="-253" font-family="Helvetica,sans-Serif" font-size="10.00" fill="#000000">QwtArraySeriesData</text>
<text text-anchor="middle" x="210" y="-242" font-family="Helvetica,sans-Serif" font-size="10.00" fill="#000000">&lt; QwtIntervalSample &gt;</text>
</a>
</g>
</g>
<!-- Node0&#45;&gt;Node1 -->
<g id="edge1" class="edge">
<title>Node0&#45;&gt;Node1</title>
<path fill="none" stroke="#191970" d="M65.5229,-145.0135C81.0333,-166.9777 109.9783,-203.8968 143,-226 148.0312,-229.3677 153.5911,-232.3254 159.2928,-234.9068"/>
<polygon fill="#191970" stroke="#191970" points="68.2825,-142.8498 59.7254,-136.6027 62.519,-146.8226 68.2825,-142.8498"/>
</g>
<!-- Node3 -->
<g id="node4" class="node">
<title>Node3</title>
<g id="a_node4"><a xlink:href="class_qwt_array_series_data.html" target="_top" xlink:title=" ">
<polygon fill="none" stroke="#000000" points="143,-186 143,-216 277,-216 277,-186 143,-186"/>
<text text-anchor="start" x="151" y="-204" font-family="Helvetica,sans-Serif" font-size="10.00" fill="#000000">QwtArraySeriesData</text>
<text text-anchor="middle" x="210" y="-193" font-family="Helvetica,sans-Serif" font-size="10.00" fill="#000000">&lt; QwtVectorFieldSample &gt;</text>
</a>
</g>
</g>
<!-- Node0&#45;&gt;Node3 -->
<g id="edge3" class="edge">
<title>Node0&#45;&gt;Node3</title>
<path fill="none" stroke="#191970" d="M77.9795,-142.128C95.6541,-152.6876 120.3064,-166.6822 143,-177 149.8611,-180.1194 157.2566,-183.1149 164.5423,-185.8685"/>
<polygon fill="#191970" stroke="#191970" points="79.3034,-138.8385 68.9349,-136.6601 75.6819,-144.8289 79.3034,-138.8385"/>
</g>
<!-- Node5 -->
<g id="node6" class="node">
<title>Node5</title>
<g id="a_node6"><a xlink:href="class_qwt_array_series_data.html" target="_top" xlink:title=" ">
<polygon fill="none" stroke="#000000" points="153.5,-137 153.5,-167 266.5,-167 266.5,-137 153.5,-137"/>
<text text-anchor="start" x="161.5" y="-155" font-family="Helvetica,sans-Serif" font-size="10.00" fill="#000000">QwtArraySeriesData</text>
<text text-anchor="middle" x="210" y="-144" font-family="Helvetica,sans-Serif" font-size="10.00" fill="#000000">&lt; QwtOHLCSample &gt;</text>
</a>
</g>
</g>
<!-- Node0&#45;&gt;Node5 -->
<g id="edge5" class="edge">
<title>Node0&#45;&gt;Node5</title>
<path fill="none" stroke="#191970" d="M117.2678,-137.1866C129.2262,-139.0968 141.6522,-141.0818 153.3755,-142.9545"/>
<polygon fill="#191970" stroke="#191970" points="117.7854,-133.7249 107.3584,-135.6036 116.6811,-140.6373 117.7854,-133.7249"/>
</g>
<!-- Node7 -->
<g id="node8" class="node">
<title>Node7</title>
<g id="a_node8"><a xlink:href="class_qwt_array_series_data.html" target="_top" xlink:title=" ">
<polygon fill="none" stroke="#000000" points="156.5,-88 156.5,-118 263.5,-118 263.5,-88 156.5,-88"/>
<text text-anchor="start" x="164.5" y="-106" font-family="Helvetica,sans-Serif" font-size="10.00" fill="#000000">QwtArraySeriesData</text>
<text text-anchor="middle" x="210" y="-95" font-family="Helvetica,sans-Serif" font-size="10.00" fill="#000000">&lt; QwtSetSample &gt;</text>
</a>
</g>
</g>
<!-- Node0&#45;&gt;Node7 -->
<g id="edge7" class="edge">
<title>Node0&#45;&gt;Node7</title>
<path fill="none" stroke="#191970" d="M117.5434,-117.1787C130.4199,-115.204 143.8274,-113.1479 156.3075,-111.234"/>
<polygon fill="#191970" stroke="#191970" points="116.7123,-113.7651 107.3584,-118.7406 117.7734,-120.6842 116.7123,-113.7651"/>
</g>
<!-- Node9 -->
<g id="node10" class="node">
<title>Node9</title>
<g id="a_node10"><a xlink:href="class_qwt_array_series_data.html" target="_top" xlink:title=" ">
<polygon fill="none" stroke="#000000" points="156.5,-39 156.5,-69 263.5,-69 263.5,-39 156.5,-39"/>
<text text-anchor="start" x="164.5" y="-57" font-family="Helvetica,sans-Serif" font-size="10.00" fill="#000000">QwtArraySeriesData</text>
<text text-anchor="middle" x="210" y="-46" font-family="Helvetica,sans-Serif" font-size="10.00" fill="#000000">&lt; QwtPoint3D &gt;</text>
</a>
</g>
</g>
<!-- Node0&#45;&gt;Node9 -->
<g id="edge9" class="edge">
<title>Node0&#45;&gt;Node9</title>
<path fill="none" stroke="#191970" d="M78.7415,-112.2787C96.4222,-102.2625 120.7695,-89.0532 143,-79 150.6924,-75.5213 159.0255,-72.1267 167.1162,-69.0171"/>
<polygon fill="#191970" stroke="#191970" points="76.6021,-109.4704 69.6606,-117.4745 80.0785,-115.5462 76.6021,-109.4704"/>
</g>
<!-- Node11 -->
<g id="node12" class="node">
<title>Node11</title>
<g id="a_node12"><a xlink:href="class_qwt_array_series_data.html" target="_top" xlink:title="Template class for data, that is organized as QVector.">
<polygon fill="none" stroke="#000000" points="144.5,-.5 144.5,-19.5 275.5,-19.5 275.5,-.5 144.5,-.5"/>
<text text-anchor="middle" x="210" y="-7.5" font-family="Helvetica,sans-Serif" font-size="10.00" fill="#000000">QwtArraySeriesData&lt; T &gt;</text>
</a>
</g>
</g>
<!-- Node0&#45;&gt;Node11 -->
<g id="edge11" class="edge">
<title>Node0&#45;&gt;Node11</title>
<path fill="none" stroke="#191970" d="M65.3288,-108.8066C80.6412,-86.6952 109.3844,-49.7728 143,-29 149.274,-25.123 156.3622,-22.0148 163.5203,-19.5292"/>
<polygon fill="#191970" stroke="#191970" points="62.3005,-107.0373 59.6135,-117.2858 68.105,-110.9498 62.3005,-107.0373"/>
</g>
<!-- Node2 -->
<g id="node3" class="node">
<title>Node2</title>
<g id="a_node3"><a xlink:href="class_qwt_interval_series_data.html" target="_top" xlink:title="Interface for iterating over an array of intervals.">
<polygon fill="none" stroke="#000000" points="314.5,-240.5 314.5,-259.5 430.5,-259.5 430.5,-240.5 314.5,-240.5"/>
<text text-anchor="middle" x="372.5" y="-247.5" font-family="Helvetica,sans-Serif" font-size="10.00" fill="#000000">QwtIntervalSeriesData</text>
</a>
</g>
</g>
<!-- Node1&#45;&gt;Node2 -->
<g id="edge2" class="edge">
<title>Node1&#45;&gt;Node2</title>
<path fill="none" stroke="#191970" d="M279.2543,-250C290.9066,-250 302.8955,-250 314.2336,-250"/>
<polygon fill="#191970" stroke="#191970" points="279.1259,-246.5001 269.1259,-250 279.1259,-253.5001 279.1259,-246.5001"/>
</g>
<!-- Node4 -->
<g id="node5" class="node">
<title>Node4</title>
<g id="a_node5"><a xlink:href="class_qwt_vector_field_data.html" target="_top" xlink:title="Interface for iterating over an array of vector field samples.">
<polygon fill="none" stroke="#000000" points="320.5,-191.5 320.5,-210.5 424.5,-210.5 424.5,-191.5 320.5,-191.5"/>
<text text-anchor="middle" x="372.5" y="-198.5" font-family="Helvetica,sans-Serif" font-size="10.00" fill="#000000">QwtVectorFieldData</text>
</a>
</g>
</g>
<!-- Node3&#45;&gt;Node4 -->
<g id="edge4" class="edge">
<title>Node3&#45;&gt;Node4</title>
<path fill="none" stroke="#191970" d="M287.2533,-201C298.4395,-201 309.7269,-201 320.2648,-201"/>
<polygon fill="#191970" stroke="#191970" points="287.0332,-197.5001 277.0332,-201 287.0331,-204.5001 287.0332,-197.5001"/>
</g>
<!-- Node6 -->
<g id="node7" class="node">
<title>Node6</title>
<g id="a_node7"><a xlink:href="class_qwt_trading_chart_data.html" target="_top" xlink:title=" ">
<polygon fill="none" stroke="#000000" points="316.5,-142.5 316.5,-161.5 428.5,-161.5 428.5,-142.5 316.5,-142.5"/>
<text text-anchor="middle" x="372.5" y="-149.5" font-family="Helvetica,sans-Serif" font-size="10.00" fill="#000000">QwtTradingChartData</text>
</a>
</g>
</g>
<!-- Node5&#45;&gt;Node6 -->
<g id="edge6" class="edge">
<title>Node5&#45;&gt;Node6</title>
<path fill="none" stroke="#191970" d="M277.1299,-152C290.1335,-152 303.6348,-152 316.246,-152"/>
<polygon fill="#191970" stroke="#191970" points="276.8346,-148.5001 266.8346,-152 276.8346,-155.5001 276.8346,-148.5001"/>
</g>
<!-- Node8 -->
<g id="node9" class="node">
<title>Node8</title>
<g id="a_node9"><a xlink:href="class_qwt_set_series_data.html" target="_top" xlink:title="Interface for iterating over an array of samples.">
<polygon fill="none" stroke="#000000" points="323.5,-93.5 323.5,-112.5 421.5,-112.5 421.5,-93.5 323.5,-93.5"/>
<text text-anchor="middle" x="372.5" y="-100.5" font-family="Helvetica,sans-Serif" font-size="10.00" fill="#000000">QwtSetSeriesData</text>
</a>
</g>
</g>
<!-- Node7&#45;&gt;Node8 -->
<g id="edge8" class="edge">
<title>Node7&#45;&gt;Node8</title>
<path fill="none" stroke="#191970" d="M273.7554,-103C290.2212,-103 307.6933,-103 323.2899,-103"/>
<polygon fill="#191970" stroke="#191970" points="273.659,-99.5001 263.6589,-103 273.6589,-106.5001 273.659,-99.5001"/>
</g>
<!-- Node10 -->
<g id="node11" class="node">
<title>Node10</title>
<g id="a_node11"><a xlink:href="class_qwt_point3_d_series_data.html" target="_top" xlink:title="Interface for iterating over an array of 3D points.">
<polygon fill="none" stroke="#000000" points="313,-44.5 313,-63.5 432,-63.5 432,-44.5 313,-44.5"/>
<text text-anchor="middle" x="372.5" y="-51.5" font-family="Helvetica,sans-Serif" font-size="10.00" fill="#000000">QwtPoint3DSeriesData</text>
</a>
</g>
</g>
<!-- Node9&#45;&gt;Node10 -->
<g id="edge10" class="edge">
<title>Node9&#45;&gt;Node10</title>
<path fill="none" stroke="#191970" d="M273.7868,-54C286.6106,-54 300.0436,-54 312.7247,-54"/>
<polygon fill="#191970" stroke="#191970" points="273.659,-50.5001 263.6589,-54 273.6589,-57.5001 273.659,-50.5001"/>
</g>
</g>
</svg>
