<?xml version="1.0" encoding="UTF-8" standalone="no"?>
<!DOCTYPE svg PUBLIC "-//W3C//DTD SVG 1.1//EN"
 "http://www.w3.org/Graphics/SVG/1.1/DTD/svg11.dtd">
<!-- Generated by graphviz version 2.40.1 (20161225.0304)
 -->
<!-- Title: Graphical Class Hierarchy Pages: 1 -->
<svg width="227pt" height="104pt"
 viewBox="0.00 0.00 227.00 104.00" xmlns="http://www.w3.org/2000/svg" xmlns:xlink="http://www.w3.org/1999/xlink">
<g id="graph0" class="graph" transform="scale(1 1) rotate(0) translate(4 100)">
<title>Graphical Class Hierarchy</title>
<!-- Node0 -->
<g id="node1" class="node">
<title>Node0</title>
<g id="a_node1"><a xlink:href="class_qwt_transform.html" target="_top" xlink:title="A transformation between coordinate systems.">
<polygon fill="none" stroke="#000000" points="0,-38.5 0,-57.5 78,-57.5 78,-38.5 0,-38.5"/>
<text text-anchor="middle" x="39" y="-45.5" font-family="Helvetica,sans-Serif" font-size="10.00" fill="#000000">QwtTransform</text>
</a>
</g>
</g>
<!-- Node1 -->
<g id="node2" class="node">
<title>Node1</title>
<g id="a_node2"><a xlink:href="class_qwt_log_transform.html" target="_top" xlink:title="Logarithmic transformation.">
<polygon fill="none" stroke="#000000" points="119.5,-76.5 119.5,-95.5 213.5,-95.5 213.5,-76.5 119.5,-76.5"/>
<text text-anchor="middle" x="166.5" y="-83.5" font-family="Helvetica,sans-Serif" font-size="10.00" fill="#000000">QwtLogTransform</text>
</a>
</g>
</g>
<!-- Node0&#45;&gt;Node1 -->
<g id="edge1" class="edge">
<title>Node0&#45;&gt;Node1</title>
<path fill="none" stroke="#191970" d="M81.0592,-60.5353C98.4041,-65.7048 118.1812,-71.5991 134.3367,-76.4141"/>
<polygon fill="#191970" stroke="#191970" points="81.7568,-57.0911 71.1736,-57.589 79.7574,-63.7995 81.7568,-57.0911"/>
</g>
<!-- Node2 -->
<g id="node3" class="node">
<title>Node2</title>
<g id="a_node3"><a xlink:href="class_qwt_null_transform.html" target="_top" xlink:title="Null transformation.">
<polygon fill="none" stroke="#000000" points="119,-38.5 119,-57.5 214,-57.5 214,-38.5 119,-38.5"/>
<text text-anchor="middle" x="166.5" y="-45.5" font-family="Helvetica,sans-Serif" font-size="10.00" fill="#000000">QwtNullTransform</text>
</a>
</g>
</g>
<!-- Node0&#45;&gt;Node2 -->
<g id="edge2" class="edge">
<title>Node0&#45;&gt;Node2</title>
<path fill="none" stroke="#191970" d="M88.4043,-48C98.3164,-48 108.7165,-48 118.5773,-48"/>
<polygon fill="#191970" stroke="#191970" points="88.2946,-44.5001 78.2946,-48 88.2945,-51.5001 88.2946,-44.5001"/>
</g>
<!-- Node3 -->
<g id="node4" class="node">
<title>Node3</title>
<g id="a_node4"><a xlink:href="class_qwt_power_transform.html" target="_top" xlink:title="A transformation using pow()">
<polygon fill="none" stroke="#000000" points="114,-.5 114,-19.5 219,-19.5 219,-.5 114,-.5"/>
<text text-anchor="middle" x="166.5" y="-7.5" font-family="Helvetica,sans-Serif" font-size="10.00" fill="#000000">QwtPowerTransform</text>
</a>
</g>
</g>
<!-- Node0&#45;&gt;Node3 -->
<g id="edge3" class="edge">
<title>Node0&#45;&gt;Node3</title>
<path fill="none" stroke="#191970" d="M81.0592,-35.4647C98.4041,-30.2952 118.1812,-24.4009 134.3367,-19.5859"/>
<polygon fill="#191970" stroke="#191970" points="79.7574,-32.2005 71.1736,-38.411 81.7568,-38.9089 79.7574,-32.2005"/>
</g>
</g>
</svg>
