<?xml version="1.0" encoding="UTF-8" standalone="no"?>
<!DOCTYPE svg PUBLIC "-//W3C//DTD SVG 1.1//EN"
 "http://www.w3.org/Graphics/SVG/1.1/DTD/svg11.dtd">
<!-- Generated by graphviz version 2.40.1 (20161225.0304)
 -->
<!-- Title: QwtSpline Pages: 1 -->
<svg width="273pt" height="308pt"
 viewBox="0.00 0.00 272.50 308.00" xmlns="http://www.w3.org/2000/svg" xmlns:xlink="http://www.w3.org/1999/xlink">
<g id="graph0" class="graph" transform="scale(1 1) rotate(0) translate(4 304)">
<title>QwtSpline</title>
<!-- Node1 -->
<g id="node1" class="node">
<title>Node1</title>
<g id="a_node1"><a xlink:title="Base class for all splines.">
<polygon fill="#bfbfbf" stroke="#000000" points="71,-280.5 71,-299.5 133,-299.5 133,-280.5 71,-280.5"/>
<text text-anchor="middle" x="102" y="-287.5" font-family="Helvetica,sans-Serif" font-size="10.00" fill="#000000">QwtSpline</text>
</a>
</g>
</g>
<!-- Node2 -->
<g id="node2" class="node">
<title>Node2</title>
<g id="a_node2"><a xlink:href="class_qwt_spline_basis.html" target="_top" xlink:title="An approximation using a basis spline.">
<polygon fill="none" stroke="#000000" points="0,-224.5 0,-243.5 86,-243.5 86,-224.5 0,-224.5"/>
<text text-anchor="middle" x="43" y="-231.5" font-family="Helvetica,sans-Serif" font-size="10.00" fill="#000000">QwtSplineBasis</text>
</a>
</g>
</g>
<!-- Node1&#45;&gt;Node2 -->
<g id="edge1" class="edge">
<title>Node1&#45;&gt;Node2</title>
<path fill="none" stroke="#191970" d="M84.4693,-273.3607C74.2623,-263.6727 61.7531,-251.7995 53.1592,-243.6427"/>
<polygon fill="#191970" stroke="#191970" points="82.0604,-275.8998 91.723,-280.2455 86.8794,-270.8227 82.0604,-275.8998"/>
</g>
<!-- Node3 -->
<g id="node3" class="node">
<title>Node3</title>
<g id="a_node3"><a xlink:href="class_qwt_spline_interpolating.html" target="_top" xlink:title="Base class for a spline interpolation.">
<polygon fill="none" stroke="#000000" points="104,-224.5 104,-243.5 220,-243.5 220,-224.5 104,-224.5"/>
<text text-anchor="middle" x="162" y="-231.5" font-family="Helvetica,sans-Serif" font-size="10.00" fill="#000000">QwtSplineInterpolating</text>
</a>
</g>
</g>
<!-- Node1&#45;&gt;Node3 -->
<g id="edge2" class="edge">
<title>Node1&#45;&gt;Node3</title>
<path fill="none" stroke="#191970" d="M119.8278,-273.3607C130.2078,-263.6727 142.9291,-251.7995 151.6686,-243.6427"/>
<polygon fill="#191970" stroke="#191970" points="117.3737,-270.8636 112.4512,-280.2455 122.1499,-275.981 117.3737,-270.8636"/>
</g>
<!-- Node4 -->
<g id="node4" class="node">
<title>Node4</title>
<g id="a_node4"><a xlink:href="class_qwt_spline_g1.html" target="_top" xlink:title="Base class for spline interpolations providing a first order geometric continuity ( G1 ) between adjo...">
<polygon fill="none" stroke="#000000" points="125,-168.5 125,-187.5 199,-187.5 199,-168.5 125,-168.5"/>
<text text-anchor="middle" x="162" y="-175.5" font-family="Helvetica,sans-Serif" font-size="10.00" fill="#000000">QwtSplineG1</text>
</a>
</g>
</g>
<!-- Node3&#45;&gt;Node4 -->
<g id="edge3" class="edge">
<title>Node3&#45;&gt;Node4</title>
<path fill="none" stroke="#191970" d="M162,-214.1575C162,-205.155 162,-194.9199 162,-187.6427"/>
<polygon fill="#191970" stroke="#191970" points="158.5001,-214.2455 162,-224.2455 165.5001,-214.2456 158.5001,-214.2455"/>
</g>
<!-- Node5 -->
<g id="node5" class="node">
<title>Node5</title>
<g id="a_node5"><a xlink:href="class_qwt_spline_c1.html" target="_top" xlink:title="Base class for spline interpolations providing a first order parametric continuity ( C1 ) between adj...">
<polygon fill="none" stroke="#000000" points="73,-112.5 73,-131.5 147,-131.5 147,-112.5 73,-112.5"/>
<text text-anchor="middle" x="110" y="-119.5" font-family="Helvetica,sans-Serif" font-size="10.00" fill="#000000">QwtSplineC1</text>
</a>
</g>
</g>
<!-- Node4&#45;&gt;Node5 -->
<g id="edge4" class="edge">
<title>Node4&#45;&gt;Node5</title>
<path fill="none" stroke="#191970" d="M146.0178,-160.7884C137.1222,-151.2085 126.3796,-139.6396 118.9539,-131.6427"/>
<polygon fill="#191970" stroke="#191970" points="143.573,-163.2992 152.9423,-168.2455 148.7025,-158.536 143.573,-163.2992"/>
</g>
<!-- Node9 -->
<g id="node9" class="node">
<title>Node9</title>
<g id="a_node9"><a xlink:href="class_qwt_spline_pleasing.html" target="_top" xlink:title="A spline with G1 continuity.">
<polygon fill="none" stroke="#000000" points="165.5,-112.5 165.5,-131.5 264.5,-131.5 264.5,-112.5 165.5,-112.5"/>
<text text-anchor="middle" x="215" y="-119.5" font-family="Helvetica,sans-Serif" font-size="10.00" fill="#000000">QwtSplinePleasing</text>
</a>
</g>
</g>
<!-- Node4&#45;&gt;Node9 -->
<g id="edge8" class="edge">
<title>Node4&#45;&gt;Node9</title>
<path fill="none" stroke="#191970" d="M178.2896,-160.7884C187.3562,-151.2085 198.3054,-139.6396 205.8739,-131.6427"/>
<polygon fill="#191970" stroke="#191970" points="175.5637,-158.5767 171.2319,-168.2455 180.6478,-163.3884 175.5637,-158.5767"/>
</g>
<!-- Node6 -->
<g id="node6" class="node">
<title>Node6</title>
<g id="a_node6"><a xlink:href="class_qwt_spline_c2.html" target="_top" xlink:title="Base class for spline interpolations providing a second order parametric continuity ( C2 ) between ad...">
<polygon fill="none" stroke="#000000" points="24,-56.5 24,-75.5 98,-75.5 98,-56.5 24,-56.5"/>
<text text-anchor="middle" x="61" y="-63.5" font-family="Helvetica,sans-Serif" font-size="10.00" fill="#000000">QwtSplineC2</text>
</a>
</g>
</g>
<!-- Node5&#45;&gt;Node6 -->
<g id="edge5" class="edge">
<title>Node5&#45;&gt;Node6</title>
<path fill="none" stroke="#191970" d="M94.6878,-104.5004C86.3553,-94.9775 76.3647,-83.5596 69.4373,-75.6427"/>
<polygon fill="#191970" stroke="#191970" points="92.2457,-107.0245 101.4649,-112.2455 97.5138,-102.415 92.2457,-107.0245"/>
</g>
<!-- Node8 -->
<g id="node8" class="node">
<title>Node8</title>
<g id="a_node8"><a xlink:href="class_qwt_spline_local.html" target="_top" xlink:title="A spline with C1 continuity.">
<polygon fill="none" stroke="#000000" points="116.5,-56.5 116.5,-75.5 201.5,-75.5 201.5,-56.5 116.5,-56.5"/>
<text text-anchor="middle" x="159" y="-63.5" font-family="Helvetica,sans-Serif" font-size="10.00" fill="#000000">QwtSplineLocal</text>
</a>
</g>
</g>
<!-- Node5&#45;&gt;Node8 -->
<g id="edge7" class="edge">
<title>Node5&#45;&gt;Node8</title>
<path fill="none" stroke="#191970" d="M125.3122,-104.5004C133.6447,-94.9775 143.6353,-83.5596 150.5627,-75.6427"/>
<polygon fill="#191970" stroke="#191970" points="122.4862,-102.415 118.5351,-112.2455 127.7543,-107.0245 122.4862,-102.415"/>
</g>
<!-- Node7 -->
<g id="node7" class="node">
<title>Node7</title>
<g id="a_node7"><a xlink:href="class_qwt_spline_cubic.html" target="_top" xlink:title="A cubic spline.">
<polygon fill="none" stroke="#000000" points="17.5,-.5 17.5,-19.5 104.5,-19.5 104.5,-.5 17.5,-.5"/>
<text text-anchor="middle" x="61" y="-7.5" font-family="Helvetica,sans-Serif" font-size="10.00" fill="#000000">QwtSplineCubic</text>
</a>
</g>
</g>
<!-- Node6&#45;&gt;Node7 -->
<g id="edge6" class="edge">
<title>Node6&#45;&gt;Node7</title>
<path fill="none" stroke="#191970" d="M61,-46.1575C61,-37.155 61,-26.9199 61,-19.6427"/>
<polygon fill="#191970" stroke="#191970" points="57.5001,-46.2455 61,-56.2455 64.5001,-46.2456 57.5001,-46.2455"/>
</g>
</g>
</svg>
