<?xml version="1.0" encoding="UTF-8" standalone="no"?>
<!DOCTYPE svg PUBLIC "-//W3C//DTD SVG 1.1//EN"
 "http://www.w3.org/Graphics/SVG/1.1/DTD/svg11.dtd">
<!-- Generated by graphviz version 2.40.1 (20161225.0304)
 -->
<!-- Title: QwtPlotSeriesItem Pages: 1 -->
<svg width="578pt" height="275pt"
 viewBox="0.00 0.00 578.00 275.00" xmlns="http://www.w3.org/2000/svg" xmlns:xlink="http://www.w3.org/1999/xlink">
<g id="graph0" class="graph" transform="scale(1 1) rotate(0) translate(4 271)">
<title>QwtPlotSeriesItem</title>
<!-- Node1 -->
<g id="node1" class="node">
<title>Node1</title>
<g id="a_node1"><a xlink:title="Base class for plot items representing a series of samples.">
<polygon fill="#bfbfbf" stroke="#000000" points="158,-114.5 158,-133.5 257,-133.5 257,-114.5 158,-114.5"/>
<text text-anchor="middle" x="207.5" y="-121.5" font-family="Helvetica,sans-Serif" font-size="10.00" fill="#000000">QwtPlotSeriesItem</text>
</a>
</g>
</g>
<!-- Node4 -->
<g id="node4" class="node">
<title>Node4</title>
<g id="a_node4"><a xlink:href="class_qwt_plot_abstract_bar_chart.html" target="_top" xlink:title="Abstract base class for bar chart items.">
<polygon fill="none" stroke="#000000" points="293,-228.5 293,-247.5 421,-247.5 421,-228.5 293,-228.5"/>
<text text-anchor="middle" x="357" y="-235.5" font-family="Helvetica,sans-Serif" font-size="10.00" fill="#000000">QwtPlotAbstractBarChart</text>
</a>
</g>
</g>
<!-- Node1&#45;&gt;Node4 -->
<g id="edge3" class="edge">
<title>Node1&#45;&gt;Node4</title>
<path fill="none" stroke="#191970" d="M219.2016,-142.1925C233.9115,-163.6308 261.1319,-198.8742 293,-219 299.0759,-222.8371 305.9626,-225.9301 312.9111,-228.4142"/>
<polygon fill="#191970" stroke="#191970" points="221.9805,-140.0513 213.5186,-133.6758 216.1577,-143.9367 221.9805,-140.0513"/>
</g>
<!-- Node7 -->
<g id="node7" class="node">
<title>Node7</title>
<g id="a_node7"><a xlink:href="class_qwt_plot_curve.html" target="_top" xlink:title="A plot item, that represents a series of points.">
<polygon fill="none" stroke="#000000" points="318,-190.5 318,-209.5 396,-209.5 396,-190.5 318,-190.5"/>
<text text-anchor="middle" x="357" y="-197.5" font-family="Helvetica,sans-Serif" font-size="10.00" fill="#000000">QwtPlotCurve</text>
</a>
</g>
</g>
<!-- Node1&#45;&gt;Node7 -->
<g id="edge6" class="edge">
<title>Node1&#45;&gt;Node7</title>
<path fill="none" stroke="#191970" d="M227.2016,-139.6309C243.908,-152.2549 268.9272,-169.7171 293,-181 300.8711,-184.6892 309.6234,-187.8475 318.065,-190.4694"/>
<polygon fill="#191970" stroke="#191970" points="229.3317,-136.8537 219.2721,-133.5288 225.0626,-142.4013 229.3317,-136.8537"/>
</g>
<!-- Node8 -->
<g id="node8" class="node">
<title>Node8</title>
<g id="a_node8"><a xlink:href="class_qwt_plot_histogram.html" target="_top" xlink:title="QwtPlotHistogram represents a series of samples, where an interval is associated with a value ( &#160;).">
<polygon fill="none" stroke="#000000" points="308.5,-152.5 308.5,-171.5 405.5,-171.5 405.5,-152.5 308.5,-152.5"/>
<text text-anchor="middle" x="357" y="-159.5" font-family="Helvetica,sans-Serif" font-size="10.00" fill="#000000">QwtPlotHistogram</text>
</a>
</g>
</g>
<!-- Node1&#45;&gt;Node8 -->
<g id="edge7" class="edge">
<title>Node1&#45;&gt;Node8</title>
<path fill="none" stroke="#191970" d="M255.1516,-136.1121C275.9726,-141.4044 300.0377,-147.5213 319.5461,-152.4799"/>
<polygon fill="#191970" stroke="#191970" points="255.7792,-132.6604 245.2252,-133.589 254.0547,-139.4447 255.7792,-132.6604"/>
</g>
<!-- Node9 -->
<g id="node9" class="node">
<title>Node9</title>
<g id="a_node9"><a xlink:href="class_qwt_plot_interval_curve.html" target="_top" xlink:title="QwtPlotIntervalCurve represents a series of samples, where each value is associated with an interval ...">
<polygon fill="none" stroke="#000000" points="302,-114.5 302,-133.5 412,-133.5 412,-114.5 302,-114.5"/>
<text text-anchor="middle" x="357" y="-121.5" font-family="Helvetica,sans-Serif" font-size="10.00" fill="#000000">QwtPlotIntervalCurve</text>
</a>
</g>
</g>
<!-- Node1&#45;&gt;Node9 -->
<g id="edge8" class="edge">
<title>Node1&#45;&gt;Node9</title>
<path fill="none" stroke="#191970" d="M267.5096,-124C278.8249,-124 290.6094,-124 301.7697,-124"/>
<polygon fill="#191970" stroke="#191970" points="267.2814,-120.5001 257.2813,-124 267.2813,-127.5001 267.2814,-120.5001"/>
</g>
<!-- Node10 -->
<g id="node10" class="node">
<title>Node10</title>
<g id="a_node10"><a xlink:href="class_qwt_plot_spectro_curve.html" target="_top" xlink:title="Curve that displays 3D points as dots, where the z coordinate is mapped to a color.">
<polygon fill="none" stroke="#000000" points="301,-76.5 301,-95.5 413,-95.5 413,-76.5 301,-76.5"/>
<text text-anchor="middle" x="357" y="-83.5" font-family="Helvetica,sans-Serif" font-size="10.00" fill="#000000">QwtPlotSpectroCurve</text>
</a>
</g>
</g>
<!-- Node1&#45;&gt;Node10 -->
<g id="edge9" class="edge">
<title>Node1&#45;&gt;Node10</title>
<path fill="none" stroke="#191970" d="M255.1516,-111.8879C275.9726,-106.5956 300.0377,-100.4787 319.5461,-95.5201"/>
<polygon fill="#191970" stroke="#191970" points="254.0547,-108.5553 245.2252,-114.411 255.7792,-115.3396 254.0547,-108.5553"/>
</g>
<!-- Node11 -->
<g id="node11" class="node">
<title>Node11</title>
<g id="a_node11"><a xlink:href="class_qwt_plot_trading_curve.html" target="_top" xlink:title="QwtPlotTradingCurve illustrates movements in the price of a financial instrument over time.">
<polygon fill="none" stroke="#000000" points="302,-38.5 302,-57.5 412,-57.5 412,-38.5 302,-38.5"/>
<text text-anchor="middle" x="357" y="-45.5" font-family="Helvetica,sans-Serif" font-size="10.00" fill="#000000">QwtPlotTradingCurve</text>
</a>
</g>
</g>
<!-- Node1&#45;&gt;Node11 -->
<g id="edge10" class="edge">
<title>Node1&#45;&gt;Node11</title>
<path fill="none" stroke="#191970" d="M227.2016,-108.3691C243.908,-95.7451 268.9272,-78.2829 293,-67 300.8711,-63.3108 309.6234,-60.1525 318.065,-57.5306"/>
<polygon fill="#191970" stroke="#191970" points="225.0626,-105.5987 219.2721,-114.4712 229.3317,-111.1463 225.0626,-105.5987"/>
</g>
<!-- Node12 -->
<g id="node12" class="node">
<title>Node12</title>
<g id="a_node12"><a xlink:href="class_qwt_plot_vector_field.html" target="_top" xlink:title="A plot item, that represents a vector field.">
<polygon fill="none" stroke="#000000" points="306.5,-.5 306.5,-19.5 407.5,-19.5 407.5,-.5 306.5,-.5"/>
<text text-anchor="middle" x="357" y="-7.5" font-family="Helvetica,sans-Serif" font-size="10.00" fill="#000000">QwtPlotVectorField</text>
</a>
</g>
</g>
<!-- Node1&#45;&gt;Node12 -->
<g id="edge11" class="edge">
<title>Node1&#45;&gt;Node12</title>
<path fill="none" stroke="#191970" d="M219.2016,-105.8075C233.9115,-84.3692 261.1319,-49.1258 293,-29 299.0759,-25.1629 305.9626,-22.0699 312.9111,-19.5858"/>
<polygon fill="#191970" stroke="#191970" points="216.1577,-104.0633 213.5186,-114.3242 221.9805,-107.9487 216.1577,-104.0633"/>
</g>
<!-- Node2 -->
<g id="node2" class="node">
<title>Node2</title>
<g id="a_node2"><a xlink:href="class_qwt_plot_item.html" target="_top" xlink:title="Base class for items on the plot canvas.">
<polygon fill="none" stroke="#000000" points="25.5,-133.5 25.5,-152.5 96.5,-152.5 96.5,-133.5 25.5,-133.5"/>
<text text-anchor="middle" x="61" y="-140.5" font-family="Helvetica,sans-Serif" font-size="10.00" fill="#000000">QwtPlotItem</text>
</a>
</g>
</g>
<!-- Node2&#45;&gt;Node1 -->
<g id="edge1" class="edge">
<title>Node2&#45;&gt;Node1</title>
<path fill="none" stroke="#191970" d="M107.1228,-137.0182C123.2845,-134.9221 141.4978,-132.56 157.9297,-130.4289"/>
<polygon fill="#191970" stroke="#191970" points="106.3047,-133.5949 96.8379,-138.3521 107.2051,-140.5368 106.3047,-133.5949"/>
</g>
<!-- Node3 -->
<g id="node3" class="node">
<title>Node3</title>
<g id="a_node3"><a xlink:href="class_qwt_abstract_series_store.html" target="_top" xlink:title="Bridge between QwtSeriesStore and QwtPlotSeriesItem.">
<polygon fill="none" stroke="#000000" points="0,-95.5 0,-114.5 122,-114.5 122,-95.5 0,-95.5"/>
<text text-anchor="middle" x="61" y="-102.5" font-family="Helvetica,sans-Serif" font-size="10.00" fill="#000000">QwtAbstractSeriesStore</text>
</a>
</g>
</g>
<!-- Node3&#45;&gt;Node1 -->
<g id="edge2" class="edge">
<title>Node3&#45;&gt;Node1</title>
<path fill="none" stroke="#191970" d="M132.2763,-114.244C140.8292,-115.3533 149.418,-116.4672 157.5759,-117.5252"/>
<polygon fill="#191970" stroke="#191970" points="132.6475,-110.7629 122.2803,-112.9476 131.7471,-117.7048 132.6475,-110.7629"/>
</g>
<!-- Node5 -->
<g id="node5" class="node">
<title>Node5</title>
<g id="a_node5"><a xlink:href="class_qwt_plot_bar_chart.html" target="_top" xlink:title="QwtPlotBarChart displays a series of a values as bars.">
<polygon fill="none" stroke="#000000" points="467.5,-247.5 467.5,-266.5 559.5,-266.5 559.5,-247.5 467.5,-247.5"/>
<text text-anchor="middle" x="513.5" y="-254.5" font-family="Helvetica,sans-Serif" font-size="10.00" fill="#000000">QwtPlotBarChart</text>
</a>
</g>
</g>
<!-- Node4&#45;&gt;Node5 -->
<g id="edge4" class="edge">
<title>Node4&#45;&gt;Node5</title>
<path fill="none" stroke="#191970" d="M431.3826,-247.0305C443.6842,-248.524 456.1136,-250.033 467.4507,-251.4093"/>
<polygon fill="#191970" stroke="#191970" points="431.4551,-243.5137 421.1061,-245.7828 430.6114,-250.4626 431.4551,-243.5137"/>
</g>
<!-- Node6 -->
<g id="node6" class="node">
<title>Node6</title>
<g id="a_node6"><a xlink:href="class_qwt_plot_multi_bar_chart.html" target="_top" xlink:title="QwtPlotMultiBarChart displays a series of a samples that consist each of a set of values.">
<polygon fill="none" stroke="#000000" points="457,-209.5 457,-228.5 570,-228.5 570,-209.5 457,-209.5"/>
<text text-anchor="middle" x="513.5" y="-216.5" font-family="Helvetica,sans-Serif" font-size="10.00" fill="#000000">QwtPlotMultiBarChart</text>
</a>
</g>
</g>
<!-- Node4&#45;&gt;Node6 -->
<g id="edge5" class="edge">
<title>Node4&#45;&gt;Node6</title>
<path fill="none" stroke="#191970" d="M431.158,-228.9968C439.768,-227.9515 448.4443,-226.8981 456.7683,-225.8876"/>
<polygon fill="#191970" stroke="#191970" points="430.6114,-225.5374 421.1061,-230.2172 431.4551,-232.4863 430.6114,-225.5374"/>
</g>
</g>
</svg>
