<?xml version="1.0" encoding="UTF-8" standalone="no"?>
<!DOCTYPE svg PUBLIC "-//W3C//DTD SVG 1.1//EN"
 "http://www.w3.org/Graphics/SVG/1.1/DTD/svg11.dtd">
<!-- Generated by graphviz version 2.40.1 (20161225.0304)
 -->
<!-- Title: QwtPlotMagnifier Pages: 1 -->
<svg width="100pt" height="140pt"
 viewBox="0.00 0.00 100.00 140.00" xmlns="http://www.w3.org/2000/svg" xmlns:xlink="http://www.w3.org/1999/xlink">
<g id="graph0" class="graph" transform="scale(1 1) rotate(0) translate(4 136)">
<title>QwtPlotMagnifier</title>
<!-- Node1 -->
<g id="node1" class="node">
<title>Node1</title>
<g id="a_node1"><a xlink:title="QwtPlotMagnifier provides zooming, by magnifying in steps.">
<polygon fill="#bfbfbf" stroke="#000000" points="0,-.5 0,-19.5 92,-19.5 92,-.5 0,-.5"/>
<text text-anchor="middle" x="46" y="-7.5" font-family="Helvetica,sans-Serif" font-size="10.00" fill="#000000">QwtPlotMagnifier</text>
</a>
</g>
</g>
<!-- Node2 -->
<g id="node2" class="node">
<title>Node2</title>
<g id="a_node2"><a xlink:href="class_qwt_magnifier.html" target="_top" xlink:title="QwtMagnifier provides zooming, by magnifying in steps.">
<polygon fill="none" stroke="#000000" points="9,-56.5 9,-75.5 83,-75.5 83,-56.5 9,-56.5"/>
<text text-anchor="middle" x="46" y="-63.5" font-family="Helvetica,sans-Serif" font-size="10.00" fill="#000000">QwtMagnifier</text>
</a>
</g>
</g>
<!-- Node2&#45;&gt;Node1 -->
<g id="edge1" class="edge">
<title>Node2&#45;&gt;Node1</title>
<path fill="none" stroke="#191970" d="M46,-46.1575C46,-37.155 46,-26.9199 46,-19.6427"/>
<polygon fill="#191970" stroke="#191970" points="42.5001,-46.2455 46,-56.2455 49.5001,-46.2456 42.5001,-46.2455"/>
</g>
<!-- Node3 -->
<g id="node3" class="node">
<title>Node3</title>
<g id="a_node3"><a xlink:title=" ">
<polygon fill="none" stroke="#bfbfbf" points="19.5,-112.5 19.5,-131.5 72.5,-131.5 72.5,-112.5 19.5,-112.5"/>
<text text-anchor="middle" x="46" y="-119.5" font-family="Helvetica,sans-Serif" font-size="10.00" fill="#000000">QObject</text>
</a>
</g>
</g>
<!-- Node3&#45;&gt;Node2 -->
<g id="edge2" class="edge">
<title>Node3&#45;&gt;Node2</title>
<path fill="none" stroke="#191970" d="M46,-102.1575C46,-93.155 46,-82.9199 46,-75.6427"/>
<polygon fill="#191970" stroke="#191970" points="42.5001,-102.2455 46,-112.2455 49.5001,-102.2456 42.5001,-102.2455"/>
</g>
</g>
</svg>
