<?xml version="1.0" encoding="UTF-8" standalone="no"?>
<!DOCTYPE svg PUBLIC "-//W3C//DTD SVG 1.1//EN"
 "http://www.w3.org/Graphics/SVG/1.1/DTD/svg11.dtd">
<!-- Generated by graphviz version 2.40.1 (20161225.0304)
 -->
<!-- Title: QwtPlotAbstractGLCanvas Pages: 1 -->
<svg width="246pt" height="140pt"
 viewBox="0.00 0.00 245.50 140.00" xmlns="http://www.w3.org/2000/svg" xmlns:xlink="http://www.w3.org/1999/xlink">
<g id="graph0" class="graph" transform="scale(1 1) rotate(0) translate(4 136)">
<title>QwtPlotAbstractGLCanvas</title>
<!-- Node1 -->
<g id="node1" class="node">
<title>Node1</title>
<g id="a_node1"><a xlink:title="Base class of QwtPlotOpenGLCanvas and QwtPlotGLCanvas.">
<polygon fill="#bfbfbf" stroke="#000000" points="46,-56.5 46,-75.5 180,-75.5 180,-56.5 46,-56.5"/>
<text text-anchor="middle" x="113" y="-63.5" font-family="Helvetica,sans-Serif" font-size="10.00" fill="#000000">QwtPlotAbstractGLCanvas</text>
</a>
</g>
</g>
<!-- Node3 -->
<g id="node3" class="node">
<title>Node3</title>
<g id="a_node3"><a xlink:href="class_qwt_plot_g_l_canvas.html" target="_top" xlink:title="An alternative canvas for a QwtPlot derived from QGLWidget.">
<polygon fill="none" stroke="#000000" points="0,-.5 0,-19.5 98,-19.5 98,-.5 0,-.5"/>
<text text-anchor="middle" x="49" y="-7.5" font-family="Helvetica,sans-Serif" font-size="10.00" fill="#000000">QwtPlotGLCanvas</text>
</a>
</g>
</g>
<!-- Node1&#45;&gt;Node3 -->
<g id="edge2" class="edge">
<title>Node1&#45;&gt;Node3</title>
<path fill="none" stroke="#191970" d="M94.3086,-49.645C83.1781,-39.9058 69.4337,-27.8795 60.0202,-19.6427"/>
<polygon fill="#191970" stroke="#191970" points="92.0215,-52.2945 101.8521,-56.2455 96.631,-47.0264 92.0215,-52.2945"/>
</g>
<!-- Node4 -->
<g id="node4" class="node">
<title>Node4</title>
<g id="a_node4"><a xlink:href="class_qwt_plot_open_g_l_canvas.html" target="_top" xlink:title="An alternative canvas for a QwtPlot derived from QOpenGLWidget.">
<polygon fill="none" stroke="#000000" points="116.5,-.5 116.5,-19.5 237.5,-19.5 237.5,-.5 116.5,-.5"/>
<text text-anchor="middle" x="177" y="-7.5" font-family="Helvetica,sans-Serif" font-size="10.00" fill="#000000">QwtPlotOpenGLCanvas</text>
</a>
</g>
</g>
<!-- Node1&#45;&gt;Node4 -->
<g id="edge3" class="edge">
<title>Node1&#45;&gt;Node4</title>
<path fill="none" stroke="#191970" d="M131.6914,-49.645C142.8219,-39.9058 156.5663,-27.8795 165.9798,-19.6427"/>
<polygon fill="#191970" stroke="#191970" points="129.369,-47.0264 124.1479,-56.2455 133.9785,-52.2945 129.369,-47.0264"/>
</g>
<!-- Node2 -->
<g id="node2" class="node">
<title>Node2</title>
<g id="a_node2"><a xlink:href="class_qwt_plot_abstract_canvas.html" target="_top" xlink:title="Base class for all type of plot canvases.">
<polygon fill="none" stroke="#000000" points="52,-112.5 52,-131.5 174,-131.5 174,-112.5 52,-112.5"/>
<text text-anchor="middle" x="113" y="-119.5" font-family="Helvetica,sans-Serif" font-size="10.00" fill="#000000">QwtPlotAbstractCanvas</text>
</a>
</g>
</g>
<!-- Node2&#45;&gt;Node1 -->
<g id="edge1" class="edge">
<title>Node2&#45;&gt;Node1</title>
<path fill="none" stroke="#191970" d="M113,-102.1575C113,-93.155 113,-82.9199 113,-75.6427"/>
<polygon fill="#191970" stroke="#191970" points="109.5001,-102.2455 113,-112.2455 116.5001,-102.2456 109.5001,-102.2455"/>
</g>
</g>
</svg>
