<?xml version="1.0" encoding="UTF-8" standalone="no"?>
<!DOCTYPE svg PUBLIC "-//W3C//DTD SVG 1.1//EN"
 "http://www.w3.org/Graphics/SVG/1.1/DTD/svg11.dtd">
<!-- Generated by graphviz version 2.40.1 (20161225.0304)
 -->
<!-- Title: QwtPointSeriesData Pages: 1 -->
<!--zoomable 180 -->
<svg id="main" version="1.1" xmlns="http://www.w3.org/2000/svg" xmlns:xlink="http://www.w3.org/1999/xlink" xml:space="preserve" onload="init(evt)">
<style type="text/css"><![CDATA[
.edge:hover path { stroke: red; }
.edge:hover polygon { stroke: red; fill: red; }
]]></style>
<script type="text/javascript"><![CDATA[
var edges = document.getElementsByTagName('g');
if (edges && edges.length) {
  for (var i=0;i<edges.length;i++) {
    if (edges[i].id.substr(0,4)=='edge') {
      edges[i].setAttribute('class','edge');
    }
  }
}
]]></script>
        <defs>
                <circle id="rim" cx="0" cy="0" r="7"/>
                <circle id="rim2" cx="0" cy="0" r="3.5"/>
                <g id="zoomPlus">
                        <use xlink:href="#rim" fill="#404040">
                                <set attributeName="fill" to="#808080" begin="zoomplus.mouseover" end="zoomplus.mouseout"/>
                        </use>
                        <path d="M-4,0h8M0,-4v8" fill="none" stroke="white" stroke-width="1.5" pointer-events="none"/>
                </g>
                <g id="zoomMin">
                        <use xlink:href="#rim" fill="#404040">
                                <set attributeName="fill" to="#808080" begin="zoomminus.mouseover" end="zoomminus.mouseout"/>
                        </use>
                        <path d="M-4,0h8" fill="none" stroke="white" stroke-width="1.5" pointer-events="none"/>
                </g>
                <g id="dirArrow">
                        <path fill="none" stroke="white" stroke-width="1.5" d="M0,-3.0v7 M-2.5,-0.5L0,-3.0L2.5,-0.5"/>
                </g>
               <g id="resetDef">
                       <use xlink:href="#rim2" fill="#404040">
                               <set attributeName="fill" to="#808080" begin="reset.mouseover" end="reset.mouseout"/>
                       </use>
               </g>
        </defs>

<script type="text/javascript">
var viewWidth = 608;
var viewHeight = 180;
var sectionId = 'dynsection-0';
</script>
<script xlink:href="svgpan.js"/>
<svg id="graph" class="graph">
<g id="viewport">
<title>QwtPointSeriesData</title>
<!-- Node1 -->
<g id="node1" class="node">
<title>Node1</title>
<g id="a_node1"><a xlink:title="Interface for iterating over an array of points.">
<polygon fill="#bfbfbf" stroke="#000000" points="316,-76.5 316,-95.5 422,-95.5 422,-76.5 316,-76.5"/>
<text text-anchor="middle" x="369" y="-83.5" font-family="Helvetica,sans-Serif" font-size="10.00" fill="#000000">QwtPointSeriesData</text>
</a>
</g>
</g>
<!-- Node4 -->
<g id="node4" class="node">
<title>Node4</title>
<g id="a_node4"><a xlink:href="class_qwt_c_pointer_data.html" target="_top" xlink:title="Data class containing two pointers to memory blocks of T.">
<polygon fill="none" stroke="#000000" points="470,-152.5 470,-171.5 588,-171.5 588,-152.5 470,-152.5"/>
<text text-anchor="middle" x="529" y="-159.5" font-family="Helvetica,sans-Serif" font-size="10.00" fill="#000000">QwtCPointerData&lt; T &gt;</text>
</a>
</g>
</g>
<!-- Node1&#45;&gt;Node4 -->
<g id="edge3" class="edge">
<title>Node1&#45;&gt;Node4</title>
<path fill="none" stroke="#191970" d="M389.5299,-101.7589C406.9331,-114.459 432.9834,-131.9614 458,-143 466.4054,-146.7089 475.6989,-149.8345 484.7162,-152.4114"/>
<polygon fill="#191970" stroke="#191970" points="391.3815,-98.7741 381.2686,-95.615 387.2041,-104.3911 391.3815,-98.7741"/>
</g>
<!-- Node5 -->
<g id="node5" class="node">
<title>Node5</title>
<g id="a_node5"><a xlink:href="class_qwt_c_pointer_value_data.html" target="_top" xlink:title="Data class containing a pointer to memory of y coordinates.">
<polygon fill="none" stroke="#000000" points="458,-114.5 458,-133.5 600,-133.5 600,-114.5 458,-114.5"/>
<text text-anchor="middle" x="529" y="-121.5" font-family="Helvetica,sans-Serif" font-size="10.00" fill="#000000">QwtCPointerValueData&lt; T &gt;</text>
</a>
</g>
</g>
<!-- Node1&#45;&gt;Node5 -->
<g id="edge4" class="edge">
<title>Node1&#45;&gt;Node5</title>
<path fill="none" stroke="#191970" d="M419.3915,-97.968C441.813,-103.2931 467.8472,-109.4762 488.9156,-114.4799"/>
<polygon fill="#191970" stroke="#191970" points="419.9129,-94.4945 409.3748,-95.589 418.2953,-101.3051 419.9129,-94.4945"/>
</g>
<!-- Node6 -->
<g id="node6" class="node">
<title>Node6</title>
<g id="a_node6"><a xlink:href="class_qwt_point_array_data.html" target="_top" xlink:title="Interface for iterating over two QVector&lt;T&gt; objects.">
<polygon fill="none" stroke="#000000" points="466.5,-76.5 466.5,-95.5 591.5,-95.5 591.5,-76.5 466.5,-76.5"/>
<text text-anchor="middle" x="529" y="-83.5" font-family="Helvetica,sans-Serif" font-size="10.00" fill="#000000">QwtPointArrayData&lt; T &gt;</text>
</a>
</g>
</g>
<!-- Node1&#45;&gt;Node6 -->
<g id="edge5" class="edge">
<title>Node1&#45;&gt;Node6</title>
<path fill="none" stroke="#191970" d="M432.3646,-86C443.515,-86 455.1164,-86 466.2499,-86"/>
<polygon fill="#191970" stroke="#191970" points="432.2777,-82.5001 422.2777,-86 432.2776,-89.5001 432.2777,-82.5001"/>
</g>
<!-- Node7 -->
<g id="node7" class="node">
<title>Node7</title>
<g id="a_node7"><a xlink:href="class_qwt_synthetic_point_data.html" target="_top" xlink:title="Synthetic point data.">
<polygon fill="none" stroke="#000000" points="469.5,-38.5 469.5,-57.5 588.5,-57.5 588.5,-38.5 469.5,-38.5"/>
<text text-anchor="middle" x="529" y="-45.5" font-family="Helvetica,sans-Serif" font-size="10.00" fill="#000000">QwtSyntheticPointData</text>
</a>
</g>
</g>
<!-- Node1&#45;&gt;Node7 -->
<g id="edge6" class="edge">
<title>Node1&#45;&gt;Node7</title>
<path fill="none" stroke="#191970" d="M419.3915,-74.032C441.813,-68.7069 467.8472,-62.5238 488.9156,-57.5201"/>
<polygon fill="#191970" stroke="#191970" points="418.2953,-70.6949 409.3748,-76.411 419.9129,-77.5055 418.2953,-70.6949"/>
</g>
<!-- Node8 -->
<g id="node8" class="node">
<title>Node8</title>
<g id="a_node8"><a xlink:href="class_qwt_value_point_data.html" target="_top" xlink:title="Interface for iterating over a QVector&lt;T&gt;.">
<polygon fill="none" stroke="#000000" points="466,-.5 466,-19.5 592,-19.5 592,-.5 466,-.5"/>
<text text-anchor="middle" x="529" y="-7.5" font-family="Helvetica,sans-Serif" font-size="10.00" fill="#000000">QwtValuePointData&lt; T &gt;</text>
</a>
</g>
</g>
<!-- Node1&#45;&gt;Node8 -->
<g id="edge7" class="edge">
<title>Node1&#45;&gt;Node8</title>
<path fill="none" stroke="#191970" d="M389.5299,-70.2411C406.9331,-57.541 432.9834,-40.0386 458,-29 466.4054,-25.2911 475.6989,-22.1655 484.7162,-19.5886"/>
<polygon fill="#191970" stroke="#191970" points="387.2041,-67.6089 381.2686,-76.385 391.3815,-73.2259 387.2041,-67.6089"/>
</g>
<!-- Node2 -->
<g id="node2" class="node">
<title>Node2</title>
<g id="a_node2"><a xlink:href="class_qwt_array_series_data.html" target="_top" xlink:title=" ">
<polygon fill="none" stroke="#000000" points="173,-71 173,-101 280,-101 280,-71 173,-71"/>
<text text-anchor="start" x="181" y="-89" font-family="Helvetica,sans-Serif" font-size="10.00" fill="#000000">QwtArraySeriesData</text>
<text text-anchor="middle" x="226.5" y="-78" font-family="Helvetica,sans-Serif" font-size="10.00" fill="#000000">&lt; QPointF &gt;</text>
</a>
</g>
</g>
<!-- Node2&#45;&gt;Node1 -->
<g id="edge1" class="edge">
<title>Node2&#45;&gt;Node1</title>
<path fill="none" stroke="#191970" d="M290.6217,-86C299.1059,-86 307.7263,-86 315.9952,-86"/>
<polygon fill="#191970" stroke="#191970" points="290.3732,-82.5001 280.3731,-86 290.3731,-89.5001 290.3732,-82.5001"/>
</g>
<!-- Node3 -->
<g id="node3" class="node">
<title>Node3</title>
<g id="a_node3"><a xlink:href="class_qwt_series_data.html" target="_top" xlink:title=" ">
<polygon fill="none" stroke="#000000" points="0,-76.5 0,-95.5 137,-95.5 137,-76.5 0,-76.5"/>
<text text-anchor="middle" x="68.5" y="-83.5" font-family="Helvetica,sans-Serif" font-size="10.00" fill="#000000">QwtSeriesData&lt; QPointF &gt;</text>
</a>
</g>
</g>
<!-- Node3&#45;&gt;Node2 -->
<g id="edge2" class="edge">
<title>Node3&#45;&gt;Node2</title>
<path fill="none" stroke="#191970" d="M147.3541,-86C155.9047,-86 164.4576,-86 172.6121,-86"/>
<polygon fill="#191970" stroke="#191970" points="147.3415,-82.5001 137.3415,-86 147.3414,-89.5001 147.3415,-82.5001"/>
</g>
</g>
</svg>
        <g id="navigator" transform="translate(0 0)" fill="#404254">
                <rect fill="#f2f5e9" fill-opacity="0.5" stroke="#606060" stroke-width=".5" x="0" y="0" width="60" height="60"/>
                <use id="zoomplus" xlink:href="#zoomPlus" x="17" y="9" onmousedown="handleZoom(evt,'in')"/>
                <use id="zoomminus" xlink:href="#zoomMin" x="42" y="9" onmousedown="handleZoom(evt,'out')"/>
                <use id="reset" xlink:href="#resetDef" x="30" y="36" onmousedown="handleReset()"/>
                <g id="arrowUp" xlink:href="#dirArrow" transform="translate(30 24)" onmousedown="handlePan(0,-1)">
                  <use xlink:href="#rim" fill="#404040">
                        <set attributeName="fill" to="#808080" begin="arrowUp.mouseover" end="arrowUp.mouseout"/>
                  </use>
                  <path fill="none" stroke="white" stroke-width="1.5" d="M0,-3.0v7 M-2.5,-0.5L0,-3.0L2.5,-0.5"/>
                </g>
                <g id="arrowRight" xlink:href="#dirArrow" transform="rotate(90) translate(36 -43)" onmousedown="handlePan(1,0)">
                  <use xlink:href="#rim" fill="#404040">
                        <set attributeName="fill" to="#808080" begin="arrowRight.mouseover" end="arrowRight.mouseout"/>
                  </use>
                  <path fill="none" stroke="white" stroke-width="1.5" d="M0,-3.0v7 M-2.5,-0.5L0,-3.0L2.5,-0.5"/>
                </g>
                <g id="arrowDown" xlink:href="#dirArrow" transform="rotate(180) translate(-30 -48)" onmousedown="handlePan(0,1)">
                  <use xlink:href="#rim" fill="#404040">
                        <set attributeName="fill" to="#808080" begin="arrowDown.mouseover" end="arrowDown.mouseout"/>
                  </use>
                  <path fill="none" stroke="white" stroke-width="1.5" d="M0,-3.0v7 M-2.5,-0.5L0,-3.0L2.5,-0.5"/>
                </g>
                <g id="arrowLeft" xlink:href="#dirArrow" transform="rotate(270) translate(-36 17)" onmousedown="handlePan(-1,0)">
                  <use xlink:href="#rim" fill="#404040">
                        <set attributeName="fill" to="#808080" begin="arrowLeft.mouseover" end="arrowLeft.mouseout"/>
                  </use>
                  <path fill="none" stroke="white" stroke-width="1.5" d="M0,-3.0v7 M-2.5,-0.5L0,-3.0L2.5,-0.5"/>
                </g>
        </g>
        <svg viewBox="0 0 15 15" width="100%" height="30px" preserveAspectRatio="xMaxYMin meet">
         <g id="arrow_out" transform="scale(0.3 0.3)">
          <a xlink:href="class_qwt_point_series_data__inherit__graph_org.svg" target="_base">
           <rect id="button" ry="5" rx="5" y="6" x="6" height="38" width="38"
                fill="#f2f5e9" fill-opacity="0.5" stroke="#606060" stroke-width="1.0"/>
           <path id="arrow"
             d="M 11.500037,31.436501 C 11.940474,20.09759 22.043105,11.32322 32.158766,21.979434 L 37.068811,17.246167 C 37.068811,17.246167 37.088388,32 37.088388,32 L 22.160133,31.978069 C 22.160133,31.978069 26.997745,27.140456 26.997745,27.140456 C 18.528582,18.264221 13.291696,25.230495 11.500037,31.436501 z"
             style="fill:#404040;"/>
          </a>
         </g>
        </svg>
</svg>
