<?xml version="1.0" encoding="UTF-8" standalone="no"?>
<!DOCTYPE svg PUBLIC "-//W3C//DTD SVG 1.1//EN"
 "http://www.w3.org/Graphics/SVG/1.1/DTD/svg11.dtd">
<!-- Generated by graphviz version 2.40.1 (20161225.0304)
 -->
<!-- Title: QwtPlotItem Pages: 1 -->
<!--zoomable 389 -->
<svg id="main" version="1.1" xmlns="http://www.w3.org/2000/svg" xmlns:xlink="http://www.w3.org/1999/xlink" xml:space="preserve" onload="init(evt)">
<style type="text/css"><![CDATA[
.edge:hover path { stroke: red; }
.edge:hover polygon { stroke: red; fill: red; }
]]></style>
<script type="text/javascript"><![CDATA[
var edges = document.getElementsByTagName('g');
if (edges && edges.length) {
  for (var i=0;i<edges.length;i++) {
    if (edges[i].id.substr(0,4)=='edge') {
      edges[i].setAttribute('class','edge');
    }
  }
}
]]></script>
        <defs>
                <circle id="rim" cx="0" cy="0" r="7"/>
                <circle id="rim2" cx="0" cy="0" r="3.5"/>
                <g id="zoomPlus">
                        <use xlink:href="#rim" fill="#404040">
                                <set attributeName="fill" to="#808080" begin="zoomplus.mouseover" end="zoomplus.mouseout"/>
                        </use>
                        <path d="M-4,0h8M0,-4v8" fill="none" stroke="white" stroke-width="1.5" pointer-events="none"/>
                </g>
                <g id="zoomMin">
                        <use xlink:href="#rim" fill="#404040">
                                <set attributeName="fill" to="#808080" begin="zoomminus.mouseover" end="zoomminus.mouseout"/>
                        </use>
                        <path d="M-4,0h8" fill="none" stroke="white" stroke-width="1.5" pointer-events="none"/>
                </g>
                <g id="dirArrow">
                        <path fill="none" stroke="white" stroke-width="1.5" d="M0,-3.0v7 M-2.5,-0.5L0,-3.0L2.5,-0.5"/>
                </g>
               <g id="resetDef">
                       <use xlink:href="#rim2" fill="#404040">
                               <set attributeName="fill" to="#808080" begin="reset.mouseover" end="reset.mouseout"/>
                       </use>
               </g>
        </defs>

<script type="text/javascript">
var viewWidth = 533;
var viewHeight = 389;
var sectionId = 'dynsection-0';
</script>
<script xlink:href="svgpan.js"/>
<svg id="graph" class="graph">
<g id="viewport">
<title>QwtPlotItem</title>
<!-- Node1 -->
<g id="node1" class="node">
<title>Node1</title>
<g id="a_node1"><a xlink:title="Base class for items on the plot canvas.">
<polygon fill="#bfbfbf" stroke="#000000" points="0,-190.5 0,-209.5 71,-209.5 71,-190.5 0,-190.5"/>
<text text-anchor="middle" x="35.5" y="-197.5" font-family="Helvetica,sans-Serif" font-size="10.00" fill="#000000">QwtPlotItem</text>
</a>
</g>
</g>
<!-- Node2 -->
<g id="node2" class="node">
<title>Node2</title>
<g id="a_node2"><a xlink:href="class_qwt_plot_graphic_item.html" target="_top" xlink:title="A plot item, which displays a recorded sequence of QPainter commands.">
<polygon fill="none" stroke="#000000" points="107,-361.5 107,-380.5 212,-380.5 212,-361.5 107,-361.5"/>
<text text-anchor="middle" x="159.5" y="-368.5" font-family="Helvetica,sans-Serif" font-size="10.00" fill="#000000">QwtPlotGraphicItem</text>
</a>
</g>
</g>
<!-- Node1&#45;&gt;Node2 -->
<g id="edge1" class="edge">
<title>Node1&#45;&gt;Node2</title>
<path fill="none" stroke="#191970" d="M39.6149,-219.6503C47.3202,-251.7335 66.9,-315.4456 107,-352 111.2264,-355.8527 116.2933,-358.9388 121.5888,-361.4069"/>
<polygon fill="#191970" stroke="#191970" points="42.9885,-218.7001 37.3704,-209.7174 36.1606,-220.243 42.9885,-218.7001"/>
</g>
<!-- Node4 -->
<g id="node4" class="node">
<title>Node4</title>
<g id="a_node4"><a xlink:href="class_qwt_plot_grid.html" target="_top" xlink:title="A class which draws a coordinate grid.">
<polygon fill="none" stroke="#000000" points="124.5,-323.5 124.5,-342.5 194.5,-342.5 194.5,-323.5 124.5,-323.5"/>
<text text-anchor="middle" x="159.5" y="-330.5" font-family="Helvetica,sans-Serif" font-size="10.00" fill="#000000">QwtPlotGrid</text>
</a>
</g>
</g>
<!-- Node1&#45;&gt;Node4 -->
<g id="edge3" class="edge">
<title>Node1&#45;&gt;Node4</title>
<path fill="none" stroke="#191970" d="M42.8884,-219.3056C53.4533,-244.4812 75.1822,-288.3264 107,-314 112.1297,-318.1391 118.2384,-321.4199 124.4442,-324.0063"/>
<polygon fill="#191970" stroke="#191970" points="46.0293,-217.7354 39.0472,-209.7666 39.5359,-220.3501 46.0293,-217.7354"/>
</g>
<!-- Node5 -->
<g id="node5" class="node">
<title>Node5</title>
<g id="a_node5"><a xlink:href="class_qwt_plot_legend_item.html" target="_top" xlink:title="A class which draws a legend inside the plot canvas.">
<polygon fill="none" stroke="#000000" points="108,-285.5 108,-304.5 211,-304.5 211,-285.5 108,-285.5"/>
<text text-anchor="middle" x="159.5" y="-292.5" font-family="Helvetica,sans-Serif" font-size="10.00" fill="#000000">QwtPlotLegendItem</text>
</a>
</g>
</g>
<!-- Node1&#45;&gt;Node5 -->
<g id="edge4" class="edge">
<title>Node1&#45;&gt;Node5</title>
<path fill="none" stroke="#191970" d="M48.0905,-217.5722C61.1125,-234.6138 82.8946,-260.1528 107,-276 112.7507,-279.7806 119.3498,-282.9256 125.8845,-285.4968"/>
<polygon fill="#191970" stroke="#191970" points="50.8882,-215.469 42.1135,-209.5315 45.2703,-219.6451 50.8882,-215.469"/>
</g>
<!-- Node6 -->
<g id="node6" class="node">
<title>Node6</title>
<g id="a_node6"><a xlink:href="class_qwt_plot_marker.html" target="_top" xlink:title="A class for drawing markers.">
<polygon fill="none" stroke="#000000" points="118.5,-247.5 118.5,-266.5 200.5,-266.5 200.5,-247.5 118.5,-247.5"/>
<text text-anchor="middle" x="159.5" y="-254.5" font-family="Helvetica,sans-Serif" font-size="10.00" fill="#000000">QwtPlotMarker</text>
</a>
</g>
</g>
<!-- Node1&#45;&gt;Node6 -->
<g id="edge5" class="edge">
<title>Node1&#45;&gt;Node6</title>
<path fill="none" stroke="#191970" d="M60.6507,-214.4882C74.1611,-221.9827 91.2373,-231.001 107,-238 114.6188,-241.3829 123.0435,-244.6372 130.8729,-247.4674"/>
<polygon fill="#191970" stroke="#191970" points="62.3596,-211.4337 51.927,-209.5866 58.9306,-217.5364 62.3596,-211.4337"/>
</g>
<!-- Node7 -->
<g id="node7" class="node">
<title>Node7</title>
<g id="a_node7"><a xlink:href="class_qwt_plot_raster_item.html" target="_top" xlink:title="A class, which displays raster data.">
<polygon fill="none" stroke="#000000" points="109.5,-209.5 109.5,-228.5 209.5,-228.5 209.5,-209.5 109.5,-209.5"/>
<text text-anchor="middle" x="159.5" y="-216.5" font-family="Helvetica,sans-Serif" font-size="10.00" fill="#000000">QwtPlotRasterItem</text>
</a>
</g>
</g>
<!-- Node1&#45;&gt;Node7 -->
<g id="edge6" class="edge">
<title>Node1&#45;&gt;Node7</title>
<path fill="none" stroke="#191970" d="M81.09,-206.9856C90.2316,-208.3863 99.8861,-209.8656 109.1776,-211.2893"/>
<polygon fill="#191970" stroke="#191970" points="81.4482,-203.4997 71.0334,-205.4446 80.3879,-210.4189 81.4482,-203.4997"/>
</g>
<!-- Node9 -->
<g id="node9" class="node">
<title>Node9</title>
<g id="a_node9"><a xlink:href="class_qwt_plot_scale_item.html" target="_top" xlink:title="A class which draws a scale inside the plot canvas.">
<polygon fill="none" stroke="#000000" points="111.5,-171.5 111.5,-190.5 207.5,-190.5 207.5,-171.5 111.5,-171.5"/>
<text text-anchor="middle" x="159.5" y="-178.5" font-family="Helvetica,sans-Serif" font-size="10.00" fill="#000000">QwtPlotScaleItem</text>
</a>
</g>
</g>
<!-- Node1&#45;&gt;Node9 -->
<g id="edge8" class="edge">
<title>Node1&#45;&gt;Node9</title>
<path fill="none" stroke="#191970" d="M81.0864,-193.015C90.9871,-191.498 101.4894,-189.8887 111.4807,-188.3578"/>
<polygon fill="#191970" stroke="#191970" points="80.3879,-189.5811 71.0334,-194.5554 81.4482,-196.5003 80.3879,-189.5811"/>
</g>
<!-- Node10 -->
<g id="node10" class="node">
<title>Node10</title>
<g id="a_node10"><a xlink:href="class_qwt_plot_series_item.html" target="_top" xlink:title="Base class for plot items representing a series of samples.">
<polygon fill="none" stroke="#000000" points="110,-133.5 110,-152.5 209,-152.5 209,-133.5 110,-133.5"/>
<text text-anchor="middle" x="159.5" y="-140.5" font-family="Helvetica,sans-Serif" font-size="10.00" fill="#000000">QwtPlotSeriesItem</text>
</a>
</g>
</g>
<!-- Node1&#45;&gt;Node10 -->
<g id="edge9" class="edge">
<title>Node1&#45;&gt;Node10</title>
<path fill="none" stroke="#191970" d="M60.6507,-185.5118C74.1611,-178.0173 91.2373,-168.999 107,-162 114.6188,-158.6171 123.0435,-155.3628 130.8729,-152.5326"/>
<polygon fill="#191970" stroke="#191970" points="58.9306,-182.4636 51.927,-190.4134 62.3596,-188.5663 58.9306,-182.4636"/>
</g>
<!-- Node20 -->
<g id="node20" class="node">
<title>Node20</title>
<g id="a_node20"><a xlink:href="class_qwt_plot_shape_item.html" target="_top" xlink:title="A plot item, which displays any graphical shape, that can be defined by a QPainterPath.">
<polygon fill="none" stroke="#000000" points="110,-95.5 110,-114.5 209,-114.5 209,-95.5 110,-95.5"/>
<text text-anchor="middle" x="159.5" y="-102.5" font-family="Helvetica,sans-Serif" font-size="10.00" fill="#000000">QwtPlotShapeItem</text>
</a>
</g>
</g>
<!-- Node1&#45;&gt;Node20 -->
<g id="edge19" class="edge">
<title>Node1&#45;&gt;Node20</title>
<path fill="none" stroke="#191970" d="M48.0905,-182.4278C61.1125,-165.3862 82.8946,-139.8472 107,-124 112.7507,-120.2194 119.3498,-117.0744 125.8845,-114.5032"/>
<polygon fill="#191970" stroke="#191970" points="45.2703,-180.3549 42.1135,-190.4685 50.8882,-184.531 45.2703,-180.3549"/>
</g>
<!-- Node21 -->
<g id="node21" class="node">
<title>Node21</title>
<g id="a_node21"><a xlink:href="class_qwt_plot_text_label.html" target="_top" xlink:title="A plot item, which displays a text label.">
<polygon fill="none" stroke="#000000" points="112.5,-57.5 112.5,-76.5 206.5,-76.5 206.5,-57.5 112.5,-57.5"/>
<text text-anchor="middle" x="159.5" y="-64.5" font-family="Helvetica,sans-Serif" font-size="10.00" fill="#000000">QwtPlotTextLabel</text>
</a>
</g>
</g>
<!-- Node1&#45;&gt;Node21 -->
<g id="edge20" class="edge">
<title>Node1&#45;&gt;Node21</title>
<path fill="none" stroke="#191970" d="M42.8884,-180.6944C53.4533,-155.5188 75.1822,-111.6736 107,-86 111.7525,-82.1653 117.3454,-79.0672 123.0772,-76.5756"/>
<polygon fill="#191970" stroke="#191970" points="39.5359,-179.6499 39.0472,-190.2334 46.0293,-182.2646 39.5359,-179.6499"/>
</g>
<!-- Node22 -->
<g id="node22" class="node">
<title>Node22</title>
<g id="a_node22"><a xlink:href="class_qwt_plot_zone_item.html" target="_top" xlink:title="A plot item, which displays a zone.">
<polygon fill="none" stroke="#000000" points="113,-19.5 113,-38.5 206,-38.5 206,-19.5 113,-19.5"/>
<text text-anchor="middle" x="159.5" y="-26.5" font-family="Helvetica,sans-Serif" font-size="10.00" fill="#000000">QwtPlotZoneItem</text>
</a>
</g>
</g>
<!-- Node1&#45;&gt;Node22 -->
<g id="edge21" class="edge">
<title>Node1&#45;&gt;Node22</title>
<path fill="none" stroke="#191970" d="M39.6149,-180.3497C47.3202,-148.2665 66.9,-84.5544 107,-48 111.2264,-44.1473 116.2933,-41.0612 121.5888,-38.5931"/>
<polygon fill="#191970" stroke="#191970" points="36.1606,-179.757 37.3704,-190.2826 42.9885,-181.2999 36.1606,-179.757"/>
</g>
<!-- Node3 -->
<g id="node3" class="node">
<title>Node3</title>
<g id="a_node3"><a xlink:href="class_qwt_plot_svg_item.html" target="_top" xlink:title="A plot item, which displays data in Scalable Vector Graphics (SVG) format.">
<polygon fill="none" stroke="#000000" points="268,-361.5 268,-380.5 356,-380.5 356,-361.5 268,-361.5"/>
<text text-anchor="middle" x="312" y="-368.5" font-family="Helvetica,sans-Serif" font-size="10.00" fill="#000000">QwtPlotSvgItem</text>
</a>
</g>
</g>
<!-- Node2&#45;&gt;Node3 -->
<g id="edge2" class="edge">
<title>Node2&#45;&gt;Node3</title>
<path fill="none" stroke="#191970" d="M222.7446,-371C237.8801,-371 253.7202,-371 267.7835,-371"/>
<polygon fill="#191970" stroke="#191970" points="222.4091,-367.5001 212.4091,-371 222.4091,-374.5001 222.4091,-367.5001"/>
</g>
<!-- Node8 -->
<g id="node8" class="node">
<title>Node8</title>
<g id="a_node8"><a xlink:href="class_qwt_plot_spectrogram.html" target="_top" xlink:title="A plot item, which displays a spectrogram.">
<polygon fill="none" stroke="#000000" points="258.5,-266.5 258.5,-285.5 365.5,-285.5 365.5,-266.5 258.5,-266.5"/>
<text text-anchor="middle" x="312" y="-273.5" font-family="Helvetica,sans-Serif" font-size="10.00" fill="#000000">QwtPlotSpectrogram</text>
</a>
</g>
</g>
<!-- Node7&#45;&gt;Node8 -->
<g id="edge7" class="edge">
<title>Node7&#45;&gt;Node8</title>
<path fill="none" stroke="#191970" d="M197.8644,-232.1846C202.6639,-234.0386 207.4735,-235.9979 212,-238 228.5455,-245.3181 231.247,-250.1702 248,-257 256.6936,-260.5441 266.293,-263.7477 275.3546,-266.4713"/>
<polygon fill="#191970" stroke="#191970" points="198.7132,-228.7656 188.1206,-228.5471 196.265,-235.3235 198.7132,-228.7656"/>
</g>
<!-- Node11 -->
<g id="node11" class="node">
<title>Node11</title>
<g id="a_node11"><a xlink:href="class_qwt_plot_abstract_bar_chart.html" target="_top" xlink:title="Abstract base class for bar chart items.">
<polygon fill="none" stroke="#000000" points="248,-228.5 248,-247.5 376,-247.5 376,-228.5 248,-228.5"/>
<text text-anchor="middle" x="312" y="-235.5" font-family="Helvetica,sans-Serif" font-size="10.00" fill="#000000">QwtPlotAbstractBarChart</text>
</a>
</g>
</g>
<!-- Node10&#45;&gt;Node11 -->
<g id="edge10" class="edge">
<title>Node10&#45;&gt;Node11</title>
<path fill="none" stroke="#191970" d="M205.0807,-157.2368C207.5157,-158.682 209.8438,-160.2658 212,-162 235.348,-180.7789 224.1114,-200.9138 248,-219 253.0824,-222.8479 258.935,-225.9194 264.9924,-228.3705"/>
<polygon fill="#191970" stroke="#191970" points="206.4144,-153.9889 195.9126,-152.5883 203.2489,-160.2322 206.4144,-153.9889"/>
</g>
<!-- Node14 -->
<g id="node14" class="node">
<title>Node14</title>
<g id="a_node14"><a xlink:href="class_qwt_plot_curve.html" target="_top" xlink:title="A plot item, that represents a series of points.">
<polygon fill="none" stroke="#000000" points="273,-190.5 273,-209.5 351,-209.5 351,-190.5 273,-190.5"/>
<text text-anchor="middle" x="312" y="-197.5" font-family="Helvetica,sans-Serif" font-size="10.00" fill="#000000">QwtPlotCurve</text>
</a>
</g>
</g>
<!-- Node10&#45;&gt;Node14 -->
<g id="edge13" class="edge">
<title>Node10&#45;&gt;Node14</title>
<path fill="none" stroke="#191970" d="M197.8644,-156.1846C202.6639,-158.0386 207.4735,-159.9979 212,-162 228.5455,-169.3181 231.247,-174.1702 248,-181 256.6936,-184.5441 266.293,-187.7477 275.3546,-190.4713"/>
<polygon fill="#191970" stroke="#191970" points="198.7132,-152.7656 188.1206,-152.5471 196.265,-159.3235 198.7132,-152.7656"/>
</g>
<!-- Node15 -->
<g id="node15" class="node">
<title>Node15</title>
<g id="a_node15"><a xlink:href="class_qwt_plot_histogram.html" target="_top" xlink:title="QwtPlotHistogram represents a series of samples, where an interval is associated with a value ( &#160;).">
<polygon fill="none" stroke="#000000" points="263.5,-152.5 263.5,-171.5 360.5,-171.5 360.5,-152.5 263.5,-152.5"/>
<text text-anchor="middle" x="312" y="-159.5" font-family="Helvetica,sans-Serif" font-size="10.00" fill="#000000">QwtPlotHistogram</text>
</a>
</g>
</g>
<!-- Node10&#45;&gt;Node15 -->
<g id="edge14" class="edge">
<title>Node10&#45;&gt;Node15</title>
<path fill="none" stroke="#191970" d="M218.9923,-150.4122C233.6494,-152.2383 249.1756,-154.1727 263.2566,-155.9271"/>
<polygon fill="#191970" stroke="#191970" points="219.3684,-146.932 209.0124,-149.1688 218.5029,-153.8783 219.3684,-146.932"/>
</g>
<!-- Node16 -->
<g id="node16" class="node">
<title>Node16</title>
<g id="a_node16"><a xlink:href="class_qwt_plot_interval_curve.html" target="_top" xlink:title="QwtPlotIntervalCurve represents a series of samples, where each value is associated with an interval ...">
<polygon fill="none" stroke="#000000" points="257,-114.5 257,-133.5 367,-133.5 367,-114.5 257,-114.5"/>
<text text-anchor="middle" x="312" y="-121.5" font-family="Helvetica,sans-Serif" font-size="10.00" fill="#000000">QwtPlotIntervalCurve</text>
</a>
</g>
</g>
<!-- Node10&#45;&gt;Node16 -->
<g id="edge15" class="edge">
<title>Node10&#45;&gt;Node16</title>
<path fill="none" stroke="#191970" d="M219.263,-135.5541C231.6742,-134.0078 244.6973,-132.3852 256.9305,-130.8611"/>
<polygon fill="#191970" stroke="#191970" points="218.5029,-132.1217 209.0124,-136.8312 219.3684,-139.068 218.5029,-132.1217"/>
</g>
<!-- Node17 -->
<g id="node17" class="node">
<title>Node17</title>
<g id="a_node17"><a xlink:href="class_qwt_plot_spectro_curve.html" target="_top" xlink:title="Curve that displays 3D points as dots, where the z coordinate is mapped to a color.">
<polygon fill="none" stroke="#000000" points="256,-76.5 256,-95.5 368,-95.5 368,-76.5 256,-76.5"/>
<text text-anchor="middle" x="312" y="-83.5" font-family="Helvetica,sans-Serif" font-size="10.00" fill="#000000">QwtPlotSpectroCurve</text>
</a>
</g>
</g>
<!-- Node10&#45;&gt;Node17 -->
<g id="edge16" class="edge">
<title>Node10&#45;&gt;Node17</title>
<path fill="none" stroke="#191970" d="M197.8644,-129.8154C202.6639,-127.9614 207.4735,-126.0021 212,-124 228.5455,-116.6819 231.247,-111.8298 248,-105 256.6936,-101.4559 266.293,-98.2523 275.3546,-95.5287"/>
<polygon fill="#191970" stroke="#191970" points="196.265,-126.6765 188.1206,-133.4529 198.7132,-133.2344 196.265,-126.6765"/>
</g>
<!-- Node18 -->
<g id="node18" class="node">
<title>Node18</title>
<g id="a_node18"><a xlink:href="class_qwt_plot_trading_curve.html" target="_top" xlink:title="QwtPlotTradingCurve illustrates movements in the price of a financial instrument over time.">
<polygon fill="none" stroke="#000000" points="257,-38.5 257,-57.5 367,-57.5 367,-38.5 257,-38.5"/>
<text text-anchor="middle" x="312" y="-45.5" font-family="Helvetica,sans-Serif" font-size="10.00" fill="#000000">QwtPlotTradingCurve</text>
</a>
</g>
</g>
<!-- Node10&#45;&gt;Node18 -->
<g id="edge17" class="edge">
<title>Node10&#45;&gt;Node18</title>
<path fill="none" stroke="#191970" d="M205.0807,-128.7632C207.5157,-127.318 209.8438,-125.7342 212,-124 235.348,-105.2211 224.1114,-85.0862 248,-67 253.0824,-63.1521 258.935,-60.0806 264.9924,-57.6295"/>
<polygon fill="#191970" stroke="#191970" points="203.2489,-125.7678 195.9126,-133.4117 206.4144,-132.0111 203.2489,-125.7678"/>
</g>
<!-- Node19 -->
<g id="node19" class="node">
<title>Node19</title>
<g id="a_node19"><a xlink:href="class_qwt_plot_vector_field.html" target="_top" xlink:title="A plot item, that represents a vector field.">
<polygon fill="none" stroke="#000000" points="261.5,-.5 261.5,-19.5 362.5,-19.5 362.5,-.5 261.5,-.5"/>
<text text-anchor="middle" x="312" y="-7.5" font-family="Helvetica,sans-Serif" font-size="10.00" fill="#000000">QwtPlotVectorField</text>
</a>
</g>
</g>
<!-- Node10&#45;&gt;Node19 -->
<g id="edge18" class="edge">
<title>Node10&#45;&gt;Node19</title>
<path fill="none" stroke="#191970" d="M207.2437,-128.0393C208.9285,-126.7977 210.524,-125.454 212,-124 244.1657,-92.3127 214.919,-59.7305 248,-29 252.161,-25.1347 257.0738,-22.053 262.2982,-19.5965"/>
<polygon fill="#191970" stroke="#191970" points="205.0037,-125.3006 198.2157,-133.4353 208.595,-131.3091 205.0037,-125.3006"/>
</g>
<!-- Node12 -->
<g id="node12" class="node">
<title>Node12</title>
<g id="a_node12"><a xlink:href="class_qwt_plot_bar_chart.html" target="_top" xlink:title="QwtPlotBarChart displays a series of a values as bars.">
<polygon fill="none" stroke="#000000" points="422.5,-247.5 422.5,-266.5 514.5,-266.5 514.5,-247.5 422.5,-247.5"/>
<text text-anchor="middle" x="468.5" y="-254.5" font-family="Helvetica,sans-Serif" font-size="10.00" fill="#000000">QwtPlotBarChart</text>
</a>
</g>
</g>
<!-- Node11&#45;&gt;Node12 -->
<g id="edge11" class="edge">
<title>Node11&#45;&gt;Node12</title>
<path fill="none" stroke="#191970" d="M386.3826,-247.0305C398.6842,-248.524 411.1136,-250.033 422.4507,-251.4093"/>
<polygon fill="#191970" stroke="#191970" points="386.4551,-243.5137 376.1061,-245.7828 385.6114,-250.4626 386.4551,-243.5137"/>
</g>
<!-- Node13 -->
<g id="node13" class="node">
<title>Node13</title>
<g id="a_node13"><a xlink:href="class_qwt_plot_multi_bar_chart.html" target="_top" xlink:title="QwtPlotMultiBarChart displays a series of a samples that consist each of a set of values.">
<polygon fill="none" stroke="#000000" points="412,-209.5 412,-228.5 525,-228.5 525,-209.5 412,-209.5"/>
<text text-anchor="middle" x="468.5" y="-216.5" font-family="Helvetica,sans-Serif" font-size="10.00" fill="#000000">QwtPlotMultiBarChart</text>
</a>
</g>
</g>
<!-- Node11&#45;&gt;Node13 -->
<g id="edge12" class="edge">
<title>Node11&#45;&gt;Node13</title>
<path fill="none" stroke="#191970" d="M386.158,-228.9968C394.768,-227.9515 403.4443,-226.8981 411.7683,-225.8876"/>
<polygon fill="#191970" stroke="#191970" points="385.6114,-225.5374 376.1061,-230.2172 386.4551,-232.4863 385.6114,-225.5374"/>
</g>
</g>
</svg>
        <g id="navigator" transform="translate(0 0)" fill="#404254">
                <rect fill="#f2f5e9" fill-opacity="0.5" stroke="#606060" stroke-width=".5" x="0" y="0" width="60" height="60"/>
                <use id="zoomplus" xlink:href="#zoomPlus" x="17" y="9" onmousedown="handleZoom(evt,'in')"/>
                <use id="zoomminus" xlink:href="#zoomMin" x="42" y="9" onmousedown="handleZoom(evt,'out')"/>
                <use id="reset" xlink:href="#resetDef" x="30" y="36" onmousedown="handleReset()"/>
                <g id="arrowUp" xlink:href="#dirArrow" transform="translate(30 24)" onmousedown="handlePan(0,-1)">
                  <use xlink:href="#rim" fill="#404040">
                        <set attributeName="fill" to="#808080" begin="arrowUp.mouseover" end="arrowUp.mouseout"/>
                  </use>
                  <path fill="none" stroke="white" stroke-width="1.5" d="M0,-3.0v7 M-2.5,-0.5L0,-3.0L2.5,-0.5"/>
                </g>
                <g id="arrowRight" xlink:href="#dirArrow" transform="rotate(90) translate(36 -43)" onmousedown="handlePan(1,0)">
                  <use xlink:href="#rim" fill="#404040">
                        <set attributeName="fill" to="#808080" begin="arrowRight.mouseover" end="arrowRight.mouseout"/>
                  </use>
                  <path fill="none" stroke="white" stroke-width="1.5" d="M0,-3.0v7 M-2.5,-0.5L0,-3.0L2.5,-0.5"/>
                </g>
                <g id="arrowDown" xlink:href="#dirArrow" transform="rotate(180) translate(-30 -48)" onmousedown="handlePan(0,1)">
                  <use xlink:href="#rim" fill="#404040">
                        <set attributeName="fill" to="#808080" begin="arrowDown.mouseover" end="arrowDown.mouseout"/>
                  </use>
                  <path fill="none" stroke="white" stroke-width="1.5" d="M0,-3.0v7 M-2.5,-0.5L0,-3.0L2.5,-0.5"/>
                </g>
                <g id="arrowLeft" xlink:href="#dirArrow" transform="rotate(270) translate(-36 17)" onmousedown="handlePan(-1,0)">
                  <use xlink:href="#rim" fill="#404040">
                        <set attributeName="fill" to="#808080" begin="arrowLeft.mouseover" end="arrowLeft.mouseout"/>
                  </use>
                  <path fill="none" stroke="white" stroke-width="1.5" d="M0,-3.0v7 M-2.5,-0.5L0,-3.0L2.5,-0.5"/>
                </g>
        </g>
        <svg viewBox="0 0 15 15" width="100%" height="30px" preserveAspectRatio="xMaxYMin meet">
         <g id="arrow_out" transform="scale(0.3 0.3)">
          <a xlink:href="class_qwt_plot_item__inherit__graph_org.svg" target="_base">
           <rect id="button" ry="5" rx="5" y="6" x="6" height="38" width="38"
                fill="#f2f5e9" fill-opacity="0.5" stroke="#606060" stroke-width="1.0"/>
           <path id="arrow"
             d="M 11.500037,31.436501 C 11.940474,20.09759 22.043105,11.32322 32.158766,21.979434 L 37.068811,17.246167 C 37.068811,17.246167 37.088388,32 37.088388,32 L 22.160133,31.978069 C 22.160133,31.978069 26.997745,27.140456 26.997745,27.140456 C 18.528582,18.264221 13.291696,25.230495 11.500037,31.436501 z"
             style="fill:#404040;"/>
          </a>
         </g>
        </svg>
</svg>
