<?xml version="1.0" encoding="UTF-8" standalone="no"?>
<!DOCTYPE svg PUBLIC "-//W3C//DTD SVG 1.1//EN"
 "http://www.w3.org/Graphics/SVG/1.1/DTD/svg11.dtd">
<!-- Generated by graphviz version 2.40.1 (20161225.0304)
 -->
<!-- Title: QwtPolarMagnifier Pages: 1 -->
<svg width="105pt" height="140pt"
 viewBox="0.00 0.00 105.00 140.00" xmlns="http://www.w3.org/2000/svg" xmlns:xlink="http://www.w3.org/1999/xlink">
<g id="graph0" class="graph" transform="scale(1 1) rotate(0) translate(4 136)">
<title>QwtPolarMagnifier</title>
<!-- Node1 -->
<g id="node1" class="node">
<title>Node1</title>
<g id="a_node1"><a xlink:title="QwtPolarMagnifier provides zooming, by magnifying in steps.">
<polygon fill="#bfbfbf" stroke="#000000" points="0,-.5 0,-19.5 97,-19.5 97,-.5 0,-.5"/>
<text text-anchor="middle" x="48.5" y="-7.5" font-family="Helvetica,sans-Serif" font-size="10.00" fill="#000000">QwtPolarMagnifier</text>
</a>
</g>
</g>
<!-- Node2 -->
<g id="node2" class="node">
<title>Node2</title>
<g id="a_node2"><a xlink:href="class_qwt_magnifier.html" target="_top" xlink:title="QwtMagnifier provides zooming, by magnifying in steps.">
<polygon fill="none" stroke="#000000" points="11.5,-56.5 11.5,-75.5 85.5,-75.5 85.5,-56.5 11.5,-56.5"/>
<text text-anchor="middle" x="48.5" y="-63.5" font-family="Helvetica,sans-Serif" font-size="10.00" fill="#000000">QwtMagnifier</text>
</a>
</g>
</g>
<!-- Node2&#45;&gt;Node1 -->
<g id="edge1" class="edge">
<title>Node2&#45;&gt;Node1</title>
<path fill="none" stroke="#191970" d="M48.5,-46.1575C48.5,-37.155 48.5,-26.9199 48.5,-19.6427"/>
<polygon fill="#191970" stroke="#191970" points="45.0001,-46.2455 48.5,-56.2455 52.0001,-46.2456 45.0001,-46.2455"/>
</g>
<!-- Node3 -->
<g id="node3" class="node">
<title>Node3</title>
<g id="a_node3"><a xlink:title=" ">
<polygon fill="none" stroke="#bfbfbf" points="22,-112.5 22,-131.5 75,-131.5 75,-112.5 22,-112.5"/>
<text text-anchor="middle" x="48.5" y="-119.5" font-family="Helvetica,sans-Serif" font-size="10.00" fill="#000000">QObject</text>
</a>
</g>
</g>
<!-- Node3&#45;&gt;Node2 -->
<g id="edge2" class="edge">
<title>Node3&#45;&gt;Node2</title>
<path fill="none" stroke="#191970" d="M48.5,-102.1575C48.5,-93.155 48.5,-82.9199 48.5,-75.6427"/>
<polygon fill="#191970" stroke="#191970" points="45.0001,-102.2455 48.5,-112.2455 52.0001,-102.2456 45.0001,-102.2455"/>
</g>
</g>
</svg>
