<?xml version="1.0" encoding="UTF-8" standalone="no"?>
<!DOCTYPE svg PUBLIC "-//W3C//DTD SVG 1.1//EN"
 "http://www.w3.org/Graphics/SVG/1.1/DTD/svg11.dtd">
<!-- Generated by graphviz version 2.40.1 (20161225.0304)
 -->
<!-- Title: QwtColorMap Pages: 1 -->
<svg width="506pt" height="84pt"
 viewBox="0.00 0.00 506.00 84.00" xmlns="http://www.w3.org/2000/svg" xmlns:xlink="http://www.w3.org/1999/xlink">
<g id="graph0" class="graph" transform="scale(1 1) rotate(0) translate(4 80)">
<title>QwtColorMap</title>
<!-- Node1 -->
<g id="node1" class="node">
<title>Node1</title>
<g id="a_node1"><a xlink:title="QwtColorMap is used to map values into colors.">
<polygon fill="#bfbfbf" stroke="#000000" points="186,-56.5 186,-75.5 263,-75.5 263,-56.5 186,-56.5"/>
<text text-anchor="middle" x="224.5" y="-63.5" font-family="Helvetica,sans-Serif" font-size="10.00" fill="#000000">QwtColorMap</text>
</a>
</g>
</g>
<!-- Node2 -->
<g id="node2" class="node">
<title>Node2</title>
<g id="a_node2"><a xlink:href="class_qwt_alpha_color_map.html" target="_top" xlink:title="QwtAlphaColorMap varies the alpha value of a color.">
<polygon fill="none" stroke="#000000" points="0,-.5 0,-19.5 101,-19.5 101,-.5 0,-.5"/>
<text text-anchor="middle" x="50.5" y="-7.5" font-family="Helvetica,sans-Serif" font-size="10.00" fill="#000000">QwtAlphaColorMap</text>
</a>
</g>
</g>
<!-- Node1&#45;&gt;Node2 -->
<g id="edge1" class="edge">
<title>Node1&#45;&gt;Node2</title>
<path fill="none" stroke="#191970" d="M184.699,-53.1905C152.821,-42.9309 108.8184,-28.7691 80.0213,-19.5011"/>
<polygon fill="#191970" stroke="#191970" points="183.9969,-56.6413 194.5883,-56.3733 186.1415,-49.9779 183.9969,-56.6413"/>
</g>
<!-- Node3 -->
<g id="node3" class="node">
<title>Node3</title>
<g id="a_node3"><a xlink:href="class_qwt_hue_color_map.html" target="_top" xlink:title="QwtHueColorMap varies the hue value of the HSV color model.">
<polygon fill="none" stroke="#000000" points="119,-.5 119,-19.5 214,-19.5 214,-.5 119,-.5"/>
<text text-anchor="middle" x="166.5" y="-7.5" font-family="Helvetica,sans-Serif" font-size="10.00" fill="#000000">QwtHueColorMap</text>
</a>
</g>
</g>
<!-- Node1&#45;&gt;Node3 -->
<g id="edge2" class="edge">
<title>Node1&#45;&gt;Node3</title>
<path fill="none" stroke="#191970" d="M206.9707,-49.0751C196.9917,-39.4402 184.8524,-27.7196 176.4871,-19.6427"/>
<polygon fill="#191970" stroke="#191970" points="204.772,-51.8175 214.3972,-56.2455 209.6342,-46.7817 204.772,-51.8175"/>
</g>
<!-- Node4 -->
<g id="node4" class="node">
<title>Node4</title>
<g id="a_node4"><a xlink:href="class_qwt_linear_color_map.html" target="_top" xlink:title="QwtLinearColorMap builds a color map from color stops.">
<polygon fill="none" stroke="#000000" points="232,-.5 232,-19.5 335,-19.5 335,-.5 232,-.5"/>
<text text-anchor="middle" x="283.5" y="-7.5" font-family="Helvetica,sans-Serif" font-size="10.00" fill="#000000">QwtLinearColorMap</text>
</a>
</g>
</g>
<!-- Node1&#45;&gt;Node4 -->
<g id="edge3" class="edge">
<title>Node1&#45;&gt;Node4</title>
<path fill="none" stroke="#191970" d="M242.0307,-49.3607C252.2377,-39.6727 264.7469,-27.7995 273.3408,-19.6427"/>
<polygon fill="#191970" stroke="#191970" points="239.6206,-46.8227 234.777,-56.2455 244.4396,-51.8998 239.6206,-46.8227"/>
</g>
<!-- Node5 -->
<g id="node5" class="node">
<title>Node5</title>
<g id="a_node5"><a xlink:href="class_qwt_saturation_value_color_map.html" target="_top" xlink:title="QwtSaturationValueColorMap varies the saturation and/or value for a given hue in the HSV color model.">
<polygon fill="none" stroke="#000000" points="353,-.5 353,-19.5 498,-19.5 498,-.5 353,-.5"/>
<text text-anchor="middle" x="425.5" y="-7.5" font-family="Helvetica,sans-Serif" font-size="10.00" fill="#000000">QwtSaturationValueColorMap</text>
</a>
</g>
</g>
<!-- Node1&#45;&gt;Node5 -->
<g id="edge4" class="edge">
<title>Node1&#45;&gt;Node5</title>
<path fill="none" stroke="#191970" d="M269.0494,-53.5882C305.9784,-43.2996 357.7002,-28.8895 391.3978,-19.5011"/>
<polygon fill="#191970" stroke="#191970" points="267.7469,-50.3177 259.0531,-56.3733 269.6256,-57.0609 267.7469,-50.3177"/>
</g>
</g>
</svg>
