<?xml version="1.0" encoding="UTF-8" standalone="no"?>
<!DOCTYPE svg PUBLIC "-//W3C//DTD SVG 1.1//EN"
 "http://www.w3.org/Graphics/SVG/1.1/DTD/svg11.dtd">
<!-- Generated by graphviz version 2.40.1 (20161225.0304)
 -->
<!-- Title: QwtPlotCurve Pages: 1 -->
<svg width="266pt" height="140pt"
 viewBox="0.00 0.00 265.50 140.00" xmlns="http://www.w3.org/2000/svg" xmlns:xlink="http://www.w3.org/1999/xlink">
<g id="graph0" class="graph" transform="scale(1 1) rotate(0) translate(4 136)">
<title>QwtPlotCurve</title>
<!-- Node1 -->
<g id="node1" class="node">
<title>Node1</title>
<g id="a_node1"><a xlink:title="A plot item, that represents a series of points.">
<polygon fill="#bfbfbf" stroke="#000000" points="79.5,-.5 79.5,-19.5 157.5,-19.5 157.5,-.5 79.5,-.5"/>
<text text-anchor="middle" x="118.5" y="-7.5" font-family="Helvetica,sans-Serif" font-size="10.00" fill="#000000">QwtPlotCurve</text>
</a>
</g>
</g>
<!-- Node2 -->
<g id="node2" class="node">
<title>Node2</title>
<g id="a_node2"><a xlink:href="class_qwt_plot_series_item.html" target="_top" xlink:title="Base class for plot items representing a series of samples.">
<polygon fill="none" stroke="#000000" points="0,-56.5 0,-75.5 99,-75.5 99,-56.5 0,-56.5"/>
<text text-anchor="middle" x="49.5" y="-63.5" font-family="Helvetica,sans-Serif" font-size="10.00" fill="#000000">QwtPlotSeriesItem</text>
</a>
</g>
</g>
<!-- Node2&#45;&gt;Node1 -->
<g id="edge1" class="edge">
<title>Node2&#45;&gt;Node1</title>
<path fill="none" stroke="#191970" d="M69.303,-49.928C81.3636,-40.1397 96.3714,-27.9595 106.6188,-19.6427"/>
<polygon fill="#191970" stroke="#191970" points="67.0779,-47.2262 61.5189,-56.2455 71.4891,-52.6614 67.0779,-47.2262"/>
</g>
<!-- Node3 -->
<g id="node3" class="node">
<title>Node3</title>
<g id="a_node3"><a xlink:href="class_qwt_plot_item.html" target="_top" xlink:title="Base class for items on the plot canvas.">
<polygon fill="none" stroke="#000000" points="14,-112.5 14,-131.5 85,-131.5 85,-112.5 14,-112.5"/>
<text text-anchor="middle" x="49.5" y="-119.5" font-family="Helvetica,sans-Serif" font-size="10.00" fill="#000000">QwtPlotItem</text>
</a>
</g>
</g>
<!-- Node3&#45;&gt;Node2 -->
<g id="edge2" class="edge">
<title>Node3&#45;&gt;Node2</title>
<path fill="none" stroke="#191970" d="M49.5,-102.1575C49.5,-93.155 49.5,-82.9199 49.5,-75.6427"/>
<polygon fill="#191970" stroke="#191970" points="46.0001,-102.2455 49.5,-112.2455 53.0001,-102.2456 46.0001,-102.2455"/>
</g>
<!-- Node4 -->
<g id="node4" class="node">
<title>Node4</title>
<g id="a_node4"><a xlink:href="class_qwt_abstract_series_store.html" target="_top" xlink:title="Bridge between QwtSeriesStore and QwtPlotSeriesItem.">
<polygon fill="none" stroke="#000000" points="114.5,-112.5 114.5,-131.5 236.5,-131.5 236.5,-112.5 114.5,-112.5"/>
<text text-anchor="middle" x="175.5" y="-119.5" font-family="Helvetica,sans-Serif" font-size="10.00" fill="#000000">QwtAbstractSeriesStore</text>
</a>
</g>
</g>
<!-- Node4&#45;&gt;Node2 -->
<g id="edge3" class="edge">
<title>Node4&#45;&gt;Node2</title>
<path fill="none" stroke="#191970" d="M144.5564,-108.2473C121.6735,-98.0771 91.0986,-84.4883 70.8775,-75.5011"/>
<polygon fill="#191970" stroke="#191970" points="143.2802,-111.5102 153.8398,-112.3733 146.1232,-105.1135 143.2802,-111.5102"/>
</g>
<!-- Node5 -->
<g id="node5" class="node">
<title>Node5</title>
<g id="a_node5"><a xlink:href="class_qwt_series_store.html" target="_top" xlink:title=" ">
<polygon fill="none" stroke="#000000" points="117.5,-56.5 117.5,-75.5 257.5,-75.5 257.5,-56.5 117.5,-56.5"/>
<text text-anchor="middle" x="187.5" y="-63.5" font-family="Helvetica,sans-Serif" font-size="10.00" fill="#000000">QwtSeriesStore&lt; QPointF &gt;</text>
</a>
</g>
</g>
<!-- Node4&#45;&gt;Node5 -->
<g id="edge5" class="edge">
<title>Node4&#45;&gt;Node5</title>
<path fill="none" stroke="#191970" d="M179.6885,-102.4538C181.6328,-93.3803 183.8572,-82.9998 185.4337,-75.6427"/>
<polygon fill="#191970" stroke="#191970" points="176.2633,-101.7341 177.5902,-112.2455 183.1079,-103.2009 176.2633,-101.7341"/>
</g>
<!-- Node5&#45;&gt;Node1 -->
<g id="edge4" class="edge">
<title>Node5&#45;&gt;Node1</title>
<path fill="none" stroke="#191970" d="M167.697,-49.928C155.6364,-40.1397 140.6286,-27.9595 130.3812,-19.6427"/>
<polygon fill="#191970" stroke="#191970" points="165.5109,-52.6614 175.4811,-56.2455 169.9221,-47.2262 165.5109,-52.6614"/>
</g>
</g>
</svg>
