<?xml version="1.0" encoding="UTF-8" standalone="no"?>
<!DOCTYPE svg PUBLIC "-//W3C//DTD SVG 1.1//EN"
 "http://www.w3.org/Graphics/SVG/1.1/DTD/svg11.dtd">
<!-- Generated by graphviz version 2.40.1 (20161225.0304)
 -->
<!-- Title: QwtDialNeedle Pages: 1 -->
<svg width="423pt" height="84pt"
 viewBox="0.00 0.00 422.50 84.00" xmlns="http://www.w3.org/2000/svg" xmlns:xlink="http://www.w3.org/1999/xlink">
<g id="graph0" class="graph" transform="scale(1 1) rotate(0) translate(4 80)">
<title>QwtDialNeedle</title>
<!-- Node1 -->
<g id="node1" class="node">
<title>Node1</title>
<g id="a_node1"><a xlink:title="Base class for needles that can be used in a QwtDial.">
<polygon fill="#bfbfbf" stroke="#000000" points="179.5,-56.5 179.5,-75.5 262.5,-75.5 262.5,-56.5 179.5,-56.5"/>
<text text-anchor="middle" x="221" y="-63.5" font-family="Helvetica,sans-Serif" font-size="10.00" fill="#000000">QwtDialNeedle</text>
</a>
</g>
</g>
<!-- Node2 -->
<g id="node2" class="node">
<title>Node2</title>
<g id="a_node2"><a xlink:href="class_qwt_compass_magnet_needle.html" target="_top" xlink:title="A magnet needle for compass widgets.">
<polygon fill="none" stroke="#000000" points="0,-.5 0,-19.5 140,-19.5 140,-.5 0,-.5"/>
<text text-anchor="middle" x="70" y="-7.5" font-family="Helvetica,sans-Serif" font-size="10.00" fill="#000000">QwtCompassMagnetNeedle</text>
</a>
</g>
</g>
<!-- Node1&#45;&gt;Node2 -->
<g id="edge1" class="edge">
<title>Node1&#45;&gt;Node2</title>
<path fill="none" stroke="#191970" d="M185.377,-52.7888C157.8062,-42.5639 120.2851,-28.6488 95.6191,-19.5011"/>
<polygon fill="#191970" stroke="#191970" points="184.4491,-56.1776 195.0422,-56.3733 186.8832,-49.6144 184.4491,-56.1776"/>
</g>
<!-- Node3 -->
<g id="node3" class="node">
<title>Node3</title>
<g id="a_node3"><a xlink:href="class_qwt_compass_wind_arrow.html" target="_top" xlink:title="An indicator for the wind direction.">
<polygon fill="none" stroke="#000000" points="158.5,-.5 158.5,-19.5 283.5,-19.5 283.5,-.5 158.5,-.5"/>
<text text-anchor="middle" x="221" y="-7.5" font-family="Helvetica,sans-Serif" font-size="10.00" fill="#000000">QwtCompassWindArrow</text>
</a>
</g>
</g>
<!-- Node1&#45;&gt;Node3 -->
<g id="edge2" class="edge">
<title>Node1&#45;&gt;Node3</title>
<path fill="none" stroke="#191970" d="M221,-46.1575C221,-37.155 221,-26.9199 221,-19.6427"/>
<polygon fill="#191970" stroke="#191970" points="217.5001,-46.2455 221,-56.2455 224.5001,-46.2456 217.5001,-46.2455"/>
</g>
<!-- Node4 -->
<g id="node4" class="node">
<title>Node4</title>
<g id="a_node4"><a xlink:href="class_qwt_dial_simple_needle.html" target="_top" xlink:title="A needle for dial widgets.">
<polygon fill="none" stroke="#000000" points="301.5,-.5 301.5,-19.5 414.5,-19.5 414.5,-.5 301.5,-.5"/>
<text text-anchor="middle" x="358" y="-7.5" font-family="Helvetica,sans-Serif" font-size="10.00" fill="#000000">QwtDialSimpleNeedle</text>
</a>
</g>
</g>
<!-- Node1&#45;&gt;Node4 -->
<g id="edge3" class="edge">
<title>Node1&#45;&gt;Node4</title>
<path fill="none" stroke="#191970" d="M253.9806,-52.5189C278.9311,-42.3201 312.5734,-28.5685 334.7562,-19.5011"/>
<polygon fill="#191970" stroke="#191970" points="252.4834,-49.3497 244.5511,-56.3733 255.132,-55.8293 252.4834,-49.3497"/>
</g>
</g>
</svg>
