<?xml version="1.0" encoding="UTF-8" standalone="no"?>
<!DOCTYPE svg PUBLIC "-//W3C//DTD SVG 1.1//EN"
 "http://www.w3.org/Graphics/SVG/1.1/DTD/svg11.dtd">
<!-- Generated by graphviz version 2.40.1 (20161225.0304)
 -->
<!-- Title: QwtMagnifier Pages: 1 -->
<svg width="216pt" height="140pt"
 viewBox="0.00 0.00 215.50 140.00" xmlns="http://www.w3.org/2000/svg" xmlns:xlink="http://www.w3.org/1999/xlink">
<g id="graph0" class="graph" transform="scale(1 1) rotate(0) translate(4 136)">
<title>QwtMagnifier</title>
<!-- Node1 -->
<g id="node1" class="node">
<title>Node1</title>
<g id="a_node1"><a xlink:title="QwtMagnifier provides zooming, by magnifying in steps.">
<polygon fill="#bfbfbf" stroke="#000000" points="65,-56.5 65,-75.5 139,-75.5 139,-56.5 65,-56.5"/>
<text text-anchor="middle" x="102" y="-63.5" font-family="Helvetica,sans-Serif" font-size="10.00" fill="#000000">QwtMagnifier</text>
</a>
</g>
</g>
<!-- Node3 -->
<g id="node3" class="node">
<title>Node3</title>
<g id="a_node3"><a xlink:href="class_qwt_plot_magnifier.html" target="_top" xlink:title="QwtPlotMagnifier provides zooming, by magnifying in steps.">
<polygon fill="none" stroke="#000000" points="0,-.5 0,-19.5 92,-19.5 92,-.5 0,-.5"/>
<text text-anchor="middle" x="46" y="-7.5" font-family="Helvetica,sans-Serif" font-size="10.00" fill="#000000">QwtPlotMagnifier</text>
</a>
</g>
</g>
<!-- Node1&#45;&gt;Node3 -->
<g id="edge2" class="edge">
<title>Node1&#45;&gt;Node3</title>
<path fill="none" stroke="#191970" d="M85.0751,-49.0751C75.4402,-39.4402 63.7196,-27.7196 55.6427,-19.6427"/>
<polygon fill="#191970" stroke="#191970" points="82.6996,-51.6493 92.2455,-56.2455 87.6493,-46.6996 82.6996,-51.6493"/>
</g>
<!-- Node4 -->
<g id="node4" class="node">
<title>Node4</title>
<g id="a_node4"><a xlink:href="class_qwt_polar_magnifier.html" target="_top" xlink:title="QwtPolarMagnifier provides zooming, by magnifying in steps.">
<polygon fill="none" stroke="#000000" points="110.5,-.5 110.5,-19.5 207.5,-19.5 207.5,-.5 110.5,-.5"/>
<text text-anchor="middle" x="159" y="-7.5" font-family="Helvetica,sans-Serif" font-size="10.00" fill="#000000">QwtPolarMagnifier</text>
</a>
</g>
</g>
<!-- Node1&#45;&gt;Node4 -->
<g id="edge3" class="edge">
<title>Node1&#45;&gt;Node4</title>
<path fill="none" stroke="#191970" d="M119.2271,-49.0751C129.0341,-39.4402 140.964,-27.7196 149.1851,-19.6427"/>
<polygon fill="#191970" stroke="#191970" points="116.6091,-46.7406 111.9286,-56.2455 121.5149,-51.734 116.6091,-46.7406"/>
</g>
<!-- Node2 -->
<g id="node2" class="node">
<title>Node2</title>
<g id="a_node2"><a xlink:title=" ">
<polygon fill="none" stroke="#bfbfbf" points="75.5,-112.5 75.5,-131.5 128.5,-131.5 128.5,-112.5 75.5,-112.5"/>
<text text-anchor="middle" x="102" y="-119.5" font-family="Helvetica,sans-Serif" font-size="10.00" fill="#000000">QObject</text>
</a>
</g>
</g>
<!-- Node2&#45;&gt;Node1 -->
<g id="edge1" class="edge">
<title>Node2&#45;&gt;Node1</title>
<path fill="none" stroke="#191970" d="M102,-102.1575C102,-93.155 102,-82.9199 102,-75.6427"/>
<polygon fill="#191970" stroke="#191970" points="98.5001,-102.2455 102,-112.2455 105.5001,-102.2456 98.5001,-102.2455"/>
</g>
</g>
</svg>
