<?xml version="1.0" encoding="UTF-8" standalone="no"?>
<!DOCTYPE svg PUBLIC "-//W3C//DTD SVG 1.1//EN"
 "http://www.w3.org/Graphics/SVG/1.1/DTD/svg11.dtd">
<!-- Generated by graphviz version 2.40.1 (20161225.0304)
 -->
<!-- Title: QwtPlotSpectroCurve Pages: 1 -->
<svg width="282pt" height="140pt"
 viewBox="0.00 0.00 282.00 140.00" xmlns="http://www.w3.org/2000/svg" xmlns:xlink="http://www.w3.org/1999/xlink">
<g id="graph0" class="graph" transform="scale(1 1) rotate(0) translate(4 136)">
<title>QwtPlotSpectroCurve</title>
<!-- Node1 -->
<g id="node1" class="node">
<title>Node1</title>
<g id="a_node1"><a xlink:title="Curve that displays 3D points as dots, where the z coordinate is mapped to a color.">
<polygon fill="#bfbfbf" stroke="#000000" points="66.5,-.5 66.5,-19.5 178.5,-19.5 178.5,-.5 66.5,-.5"/>
<text text-anchor="middle" x="122.5" y="-7.5" font-family="Helvetica,sans-Serif" font-size="10.00" fill="#000000">QwtPlotSpectroCurve</text>
</a>
</g>
</g>
<!-- Node2 -->
<g id="node2" class="node">
<title>Node2</title>
<g id="a_node2"><a xlink:href="class_qwt_plot_series_item.html" target="_top" xlink:title="Base class for plot items representing a series of samples.">
<polygon fill="none" stroke="#000000" points="0,-56.5 0,-75.5 99,-75.5 99,-56.5 0,-56.5"/>
<text text-anchor="middle" x="49.5" y="-63.5" font-family="Helvetica,sans-Serif" font-size="10.00" fill="#000000">QwtPlotSeriesItem</text>
</a>
</g>
</g>
<!-- Node2&#45;&gt;Node1 -->
<g id="edge1" class="edge">
<title>Node2&#45;&gt;Node1</title>
<path fill="none" stroke="#191970" d="M70.451,-49.928C83.2107,-40.1397 99.0885,-27.9595 109.9301,-19.6427"/>
<polygon fill="#191970" stroke="#191970" points="68.0196,-47.3819 62.2156,-56.2455 72.2803,-52.9359 68.0196,-47.3819"/>
</g>
<!-- Node3 -->
<g id="node3" class="node">
<title>Node3</title>
<g id="a_node3"><a xlink:href="class_qwt_plot_item.html" target="_top" xlink:title="Base class for items on the plot canvas.">
<polygon fill="none" stroke="#000000" points="14,-112.5 14,-131.5 85,-131.5 85,-112.5 14,-112.5"/>
<text text-anchor="middle" x="49.5" y="-119.5" font-family="Helvetica,sans-Serif" font-size="10.00" fill="#000000">QwtPlotItem</text>
</a>
</g>
</g>
<!-- Node3&#45;&gt;Node2 -->
<g id="edge2" class="edge">
<title>Node3&#45;&gt;Node2</title>
<path fill="none" stroke="#191970" d="M49.5,-102.1575C49.5,-93.155 49.5,-82.9199 49.5,-75.6427"/>
<polygon fill="#191970" stroke="#191970" points="46.0001,-102.2455 49.5,-112.2455 53.0001,-102.2456 46.0001,-102.2455"/>
</g>
<!-- Node4 -->
<g id="node4" class="node">
<title>Node4</title>
<g id="a_node4"><a xlink:href="class_qwt_abstract_series_store.html" target="_top" xlink:title="Bridge between QwtSeriesStore and QwtPlotSeriesItem.">
<polygon fill="none" stroke="#000000" points="118.5,-112.5 118.5,-131.5 240.5,-131.5 240.5,-112.5 118.5,-112.5"/>
<text text-anchor="middle" x="179.5" y="-119.5" font-family="Helvetica,sans-Serif" font-size="10.00" fill="#000000">QwtAbstractSeriesStore</text>
</a>
</g>
</g>
<!-- Node4&#45;&gt;Node2 -->
<g id="edge3" class="edge">
<title>Node4&#45;&gt;Node2</title>
<path fill="none" stroke="#191970" d="M147.8898,-108.3833C124.2465,-98.1985 92.5124,-84.5284 71.5562,-75.5011"/>
<polygon fill="#191970" stroke="#191970" points="146.5834,-111.6314 157.1522,-112.3733 149.3528,-105.2025 146.5834,-111.6314"/>
</g>
<!-- Node5 -->
<g id="node5" class="node">
<title>Node5</title>
<g id="a_node5"><a xlink:href="class_qwt_series_store.html" target="_top" xlink:title=" ">
<polygon fill="none" stroke="#000000" points="117,-56.5 117,-75.5 274,-75.5 274,-56.5 117,-56.5"/>
<text text-anchor="middle" x="195.5" y="-63.5" font-family="Helvetica,sans-Serif" font-size="10.00" fill="#000000">QwtSeriesStore&lt; QwtPoint3D &gt;</text>
</a>
</g>
</g>
<!-- Node4&#45;&gt;Node5 -->
<g id="edge5" class="edge">
<title>Node4&#45;&gt;Node5</title>
<path fill="none" stroke="#191970" d="M185.0846,-102.4538C187.677,-93.3803 190.6429,-82.9998 192.745,-75.6427"/>
<polygon fill="#191970" stroke="#191970" points="181.6689,-101.6688 182.287,-112.2455 188.3996,-103.5919 181.6689,-101.6688"/>
</g>
<!-- Node5&#45;&gt;Node1 -->
<g id="edge4" class="edge">
<title>Node5&#45;&gt;Node1</title>
<path fill="none" stroke="#191970" d="M174.549,-49.928C161.7893,-40.1397 145.9115,-27.9595 135.0699,-19.6427"/>
<polygon fill="#191970" stroke="#191970" points="172.7197,-52.9359 182.7844,-56.2455 176.9804,-47.3819 172.7197,-52.9359"/>
</g>
</g>
</svg>
