<?xml version="1.0" encoding="UTF-8" standalone="no"?>
<!DOCTYPE svg PUBLIC "-//W3C//DTD SVG 1.1//EN"
 "http://www.w3.org/Graphics/SVG/1.1/DTD/svg11.dtd">
<!-- Generated by graphviz version 2.40.1 (20161225.0304)
 -->
<!-- Title: QwtSplinePleasing Pages: 1 -->
<svg width="124pt" height="196pt"
 viewBox="0.00 0.00 124.00 196.00" xmlns="http://www.w3.org/2000/svg" xmlns:xlink="http://www.w3.org/1999/xlink">
<g id="graph0" class="graph" transform="scale(1 1) rotate(0) translate(4 192)">
<title>QwtSplinePleasing</title>
<!-- Node1 -->
<g id="node1" class="node">
<title>Node1</title>
<g id="a_node1"><a xlink:title="A spline with G1 continuity.">
<polygon fill="#bfbfbf" stroke="#000000" points="8.5,-.5 8.5,-19.5 107.5,-19.5 107.5,-.5 8.5,-.5"/>
<text text-anchor="middle" x="58" y="-7.5" font-family="Helvetica,sans-Serif" font-size="10.00" fill="#000000">QwtSplinePleasing</text>
</a>
</g>
</g>
<!-- Node2 -->
<g id="node2" class="node">
<title>Node2</title>
<g id="a_node2"><a xlink:href="class_qwt_spline_g1.html" target="_top" xlink:title="Base class for spline interpolations providing a first order geometric continuity ( G1 ) between adjo...">
<polygon fill="none" stroke="#000000" points="21,-56.5 21,-75.5 95,-75.5 95,-56.5 21,-56.5"/>
<text text-anchor="middle" x="58" y="-63.5" font-family="Helvetica,sans-Serif" font-size="10.00" fill="#000000">QwtSplineG1</text>
</a>
</g>
</g>
<!-- Node2&#45;&gt;Node1 -->
<g id="edge1" class="edge">
<title>Node2&#45;&gt;Node1</title>
<path fill="none" stroke="#191970" d="M58,-46.1575C58,-37.155 58,-26.9199 58,-19.6427"/>
<polygon fill="#191970" stroke="#191970" points="54.5001,-46.2455 58,-56.2455 61.5001,-46.2456 54.5001,-46.2455"/>
</g>
<!-- Node3 -->
<g id="node3" class="node">
<title>Node3</title>
<g id="a_node3"><a xlink:href="class_qwt_spline_interpolating.html" target="_top" xlink:title="Base class for a spline interpolation.">
<polygon fill="none" stroke="#000000" points="0,-112.5 0,-131.5 116,-131.5 116,-112.5 0,-112.5"/>
<text text-anchor="middle" x="58" y="-119.5" font-family="Helvetica,sans-Serif" font-size="10.00" fill="#000000">QwtSplineInterpolating</text>
</a>
</g>
</g>
<!-- Node3&#45;&gt;Node2 -->
<g id="edge2" class="edge">
<title>Node3&#45;&gt;Node2</title>
<path fill="none" stroke="#191970" d="M58,-102.1575C58,-93.155 58,-82.9199 58,-75.6427"/>
<polygon fill="#191970" stroke="#191970" points="54.5001,-102.2455 58,-112.2455 61.5001,-102.2456 54.5001,-102.2455"/>
</g>
<!-- Node4 -->
<g id="node4" class="node">
<title>Node4</title>
<g id="a_node4"><a xlink:href="class_qwt_spline.html" target="_top" xlink:title="Base class for all splines.">
<polygon fill="none" stroke="#000000" points="27,-168.5 27,-187.5 89,-187.5 89,-168.5 27,-168.5"/>
<text text-anchor="middle" x="58" y="-175.5" font-family="Helvetica,sans-Serif" font-size="10.00" fill="#000000">QwtSpline</text>
</a>
</g>
</g>
<!-- Node4&#45;&gt;Node3 -->
<g id="edge3" class="edge">
<title>Node4&#45;&gt;Node3</title>
<path fill="none" stroke="#191970" d="M58,-158.1575C58,-149.155 58,-138.9199 58,-131.6427"/>
<polygon fill="#191970" stroke="#191970" points="54.5001,-158.2455 58,-168.2455 61.5001,-158.2456 54.5001,-158.2455"/>
</g>
</g>
</svg>
