<?xml version="1.0" encoding="UTF-8" standalone="no"?>
<!DOCTYPE svg PUBLIC "-//W3C//DTD SVG 1.1//EN"
 "http://www.w3.org/Graphics/SVG/1.1/DTD/svg11.dtd">
<!-- Generated by graphviz version 2.40.1 (20161225.0304)
 -->
<!-- Title: Graphical Class Hierarchy Pages: 1 -->
<svg width="266pt" height="142pt"
 viewBox="0.00 0.00 266.00 142.00" xmlns="http://www.w3.org/2000/svg" xmlns:xlink="http://www.w3.org/1999/xlink">
<g id="graph0" class="graph" transform="scale(1 1) rotate(0) translate(4 138)">
<title>Graphical Class Hierarchy</title>
<!-- Node0 -->
<g id="node1" class="node">
<title>Node0</title>
<g id="a_node1"><a xlink:href="class_qwt_color_map.html" target="_top" xlink:title="QwtColorMap is used to map values into colors.">
<polygon fill="none" stroke="#000000" points="0,-57.5 0,-76.5 77,-76.5 77,-57.5 0,-57.5"/>
<text text-anchor="middle" x="38.5" y="-64.5" font-family="Helvetica,sans-Serif" font-size="10.00" fill="#000000">QwtColorMap</text>
</a>
</g>
</g>
<!-- Node1 -->
<g id="node2" class="node">
<title>Node1</title>
<g id="a_node2"><a xlink:href="class_qwt_alpha_color_map.html" target="_top" xlink:title="QwtAlphaColorMap varies the alpha value of a color.">
<polygon fill="none" stroke="#000000" points="135,-114.5 135,-133.5 236,-133.5 236,-114.5 135,-114.5"/>
<text text-anchor="middle" x="185.5" y="-121.5" font-family="Helvetica,sans-Serif" font-size="10.00" fill="#000000">QwtAlphaColorMap</text>
</a>
</g>
</g>
<!-- Node0&#45;&gt;Node1 -->
<g id="edge1" class="edge">
<title>Node0&#45;&gt;Node1</title>
<path fill="none" stroke="#191970" d="M63.9697,-81.7199C78.0799,-89.4287 96.1331,-98.5744 113,-105 122.4843,-108.6132 132.9196,-111.7884 142.846,-114.4572"/>
<polygon fill="#191970" stroke="#191970" points="65.3333,-78.4731 54.8941,-76.6637 61.9264,-84.5882 65.3333,-78.4731"/>
</g>
<!-- Node2 -->
<g id="node3" class="node">
<title>Node2</title>
<g id="a_node3"><a xlink:href="class_qwt_hue_color_map.html" target="_top" xlink:title="QwtHueColorMap varies the hue value of the HSV color model.">
<polygon fill="none" stroke="#000000" points="138,-76.5 138,-95.5 233,-95.5 233,-76.5 138,-76.5"/>
<text text-anchor="middle" x="185.5" y="-83.5" font-family="Helvetica,sans-Serif" font-size="10.00" fill="#000000">QwtHueColorMap</text>
</a>
</g>
</g>
<!-- Node0&#45;&gt;Node2 -->
<g id="edge2" class="edge">
<title>Node0&#45;&gt;Node2</title>
<path fill="none" stroke="#191970" d="M87.5028,-73.3337C103.7534,-75.4341 121.8081,-77.7677 137.9478,-79.8538"/>
<polygon fill="#191970" stroke="#191970" points="87.4887,-69.8028 77.1225,-71.992 86.5913,-76.7451 87.4887,-69.8028"/>
</g>
<!-- Node3 -->
<g id="node4" class="node">
<title>Node3</title>
<g id="a_node4"><a xlink:href="class_qwt_linear_color_map.html" target="_top" xlink:title="QwtLinearColorMap builds a color map from color stops.">
<polygon fill="none" stroke="#000000" points="134,-38.5 134,-57.5 237,-57.5 237,-38.5 134,-38.5"/>
<text text-anchor="middle" x="185.5" y="-45.5" font-family="Helvetica,sans-Serif" font-size="10.00" fill="#000000">QwtLinearColorMap</text>
</a>
</g>
</g>
<!-- Node0&#45;&gt;Node3 -->
<g id="edge3" class="edge">
<title>Node0&#45;&gt;Node3</title>
<path fill="none" stroke="#191970" d="M87.204,-60.7049C102.1769,-58.7696 118.7049,-56.6334 133.8671,-54.6736"/>
<polygon fill="#191970" stroke="#191970" points="86.5913,-57.2549 77.1225,-62.008 87.4887,-64.1972 86.5913,-57.2549"/>
</g>
<!-- Node4 -->
<g id="node5" class="node">
<title>Node4</title>
<g id="a_node5"><a xlink:href="class_qwt_saturation_value_color_map.html" target="_top" xlink:title="QwtSaturationValueColorMap varies the saturation and/or value for a given hue in the HSV color model.">
<polygon fill="none" stroke="#000000" points="113,-.5 113,-19.5 258,-19.5 258,-.5 113,-.5"/>
<text text-anchor="middle" x="185.5" y="-7.5" font-family="Helvetica,sans-Serif" font-size="10.00" fill="#000000">QwtSaturationValueColorMap</text>
</a>
</g>
</g>
<!-- Node0&#45;&gt;Node4 -->
<g id="edge4" class="edge">
<title>Node0&#45;&gt;Node4</title>
<path fill="none" stroke="#191970" d="M63.9697,-52.2801C78.0799,-44.5713 96.1331,-35.4256 113,-29 122.4843,-25.3868 132.9196,-22.2116 142.846,-19.5428"/>
<polygon fill="#191970" stroke="#191970" points="61.9264,-49.4118 54.8941,-57.3363 65.3333,-55.5269 61.9264,-49.4118"/>
</g>
</g>
</svg>
