<?xml version="1.0" encoding="UTF-8" standalone="no"?>
<!DOCTYPE svg PUBLIC "-//W3C//DTD SVG 1.1//EN"
 "http://www.w3.org/Graphics/SVG/1.1/DTD/svg11.dtd">
<!-- Generated by graphviz version 2.40.1 (20161225.0304)
 -->
<!-- Title: Graphical Class Hierarchy Pages: 1 -->
<svg width="330pt" height="28pt"
 viewBox="0.00 0.00 330.00 28.00" xmlns="http://www.w3.org/2000/svg" xmlns:xlink="http://www.w3.org/1999/xlink">
<g id="graph0" class="graph" transform="scale(1 1) rotate(0) translate(4 24)">
<title>Graphical Class Hierarchy</title>
<!-- Node45 -->
<g id="node1" class="node">
<title>Node45</title>
<g id="a_node1"><a xlink:title=" ">
<polygon fill="none" stroke="#bfbfbf" points="0,-.5 0,-19.5 77,-19.5 77,-.5 0,-.5"/>
<text text-anchor="middle" x="38.5" y="-7.5" font-family="Helvetica,sans-Serif" font-size="10.00" fill="#000000">QPaintDevice</text>
</a>
</g>
</g>
<!-- Node0 -->
<g id="node2" class="node">
<title>Node0</title>
<g id="a_node2"><a xlink:href="class_qwt_null_paint_device.html" target="_top" xlink:title="A null paint device doing nothing.">
<polygon fill="none" stroke="#000000" points="113,-.5 113,-19.5 218,-19.5 218,-.5 113,-.5"/>
<text text-anchor="middle" x="165.5" y="-7.5" font-family="Helvetica,sans-Serif" font-size="10.00" fill="#000000">QwtNullPaintDevice</text>
</a>
</g>
</g>
<!-- Node45&#45;&gt;Node0 -->
<g id="edge1" class="edge">
<title>Node45&#45;&gt;Node0</title>
<path fill="none" stroke="#191970" d="M87.3,-10C95.6848,-10 104.4313,-10 112.9103,-10"/>
<polygon fill="#191970" stroke="#191970" points="87.2943,-6.5001 77.2943,-10 87.2942,-13.5001 87.2943,-6.5001"/>
</g>
<!-- Node1 -->
<g id="node3" class="node">
<title>Node1</title>
<g id="a_node3"><a xlink:href="class_qwt_graphic.html" target="_top" xlink:title="A paint device for scalable graphics.">
<polygon fill="none" stroke="#000000" points="254,-.5 254,-19.5 322,-19.5 322,-.5 254,-.5"/>
<text text-anchor="middle" x="288" y="-7.5" font-family="Helvetica,sans-Serif" font-size="10.00" fill="#000000">QwtGraphic</text>
</a>
</g>
</g>
<!-- Node0&#45;&gt;Node1 -->
<g id="edge2" class="edge">
<title>Node0&#45;&gt;Node1</title>
<path fill="none" stroke="#191970" d="M228.4037,-10C237.147,-10 245.8453,-10 253.7853,-10"/>
<polygon fill="#191970" stroke="#191970" points="228.162,-6.5001 218.162,-10 228.1619,-13.5001 228.162,-6.5001"/>
</g>
</g>
</svg>
