<?xml version="1.0" encoding="UTF-8" standalone="no"?>
<!DOCTYPE svg PUBLIC "-//W3C//DTD SVG 1.1//EN"
 "http://www.w3.org/Graphics/SVG/1.1/DTD/svg11.dtd">
<!-- Generated by graphviz version 2.40.1 (20161225.0304)
 -->
<!-- Title: Graphical Class Hierarchy Pages: 1 -->
<svg width="711pt" height="85pt"
 viewBox="0.00 0.00 711.00 85.00" xmlns="http://www.w3.org/2000/svg" xmlns:xlink="http://www.w3.org/1999/xlink">
<g id="graph0" class="graph" transform="scale(1 1) rotate(0) translate(4 81)">
<title>Graphical Class Hierarchy</title>
<!-- Node0 -->
<g id="node1" class="node">
<title>Node0</title>
<g id="a_node1"><a xlink:href="class_qwt_spline.html" target="_top" xlink:title="Base class for all splines.">
<polygon fill="none" stroke="#000000" points="0,-38.5 0,-57.5 62,-57.5 62,-38.5 0,-38.5"/>
<text text-anchor="middle" x="31" y="-45.5" font-family="Helvetica,sans-Serif" font-size="10.00" fill="#000000">QwtSpline</text>
</a>
</g>
</g>
<!-- Node1 -->
<g id="node2" class="node">
<title>Node1</title>
<g id="a_node2"><a xlink:href="class_qwt_spline_basis.html" target="_top" xlink:title="An approximation using a basis spline.">
<polygon fill="none" stroke="#000000" points="113,-57.5 113,-76.5 199,-76.5 199,-57.5 113,-57.5"/>
<text text-anchor="middle" x="156" y="-64.5" font-family="Helvetica,sans-Serif" font-size="10.00" fill="#000000">QwtSplineBasis</text>
</a>
</g>
</g>
<!-- Node0&#45;&gt;Node1 -->
<g id="edge1" class="edge">
<title>Node0&#45;&gt;Node1</title>
<path fill="none" stroke="#191970" d="M72.3221,-54.281C85.3542,-56.2618 99.7794,-58.4545 112.9301,-60.4534"/>
<polygon fill="#191970" stroke="#191970" points="72.6328,-50.7881 62.2203,-52.7455 71.5808,-57.7086 72.6328,-50.7881"/>
</g>
<!-- Node2 -->
<g id="node3" class="node">
<title>Node2</title>
<g id="a_node3"><a xlink:href="class_qwt_spline_interpolating.html" target="_top" xlink:title="Base class for a spline interpolation.">
<polygon fill="none" stroke="#000000" points="98,-19.5 98,-38.5 214,-38.5 214,-19.5 98,-19.5"/>
<text text-anchor="middle" x="156" y="-26.5" font-family="Helvetica,sans-Serif" font-size="10.00" fill="#000000">QwtSplineInterpolating</text>
</a>
</g>
</g>
<!-- Node0&#45;&gt;Node2 -->
<g id="edge2" class="edge">
<title>Node0&#45;&gt;Node2</title>
<path fill="none" stroke="#191970" d="M72.2783,-41.7257C80.4929,-40.4771 89.2625,-39.1441 97.9184,-37.8284"/>
<polygon fill="#191970" stroke="#191970" points="71.5808,-38.2914 62.2203,-43.2545 72.6328,-45.2119 71.5808,-38.2914"/>
</g>
<!-- Node3 -->
<g id="node4" class="node">
<title>Node3</title>
<g id="a_node4"><a xlink:href="class_qwt_spline_g1.html" target="_top" xlink:title="Base class for spline interpolations providing a first order geometric continuity ( G1 ) between adjo...">
<polygon fill="none" stroke="#000000" points="250,-19.5 250,-38.5 324,-38.5 324,-19.5 250,-19.5"/>
<text text-anchor="middle" x="287" y="-26.5" font-family="Helvetica,sans-Serif" font-size="10.00" fill="#000000">QwtSplineG1</text>
</a>
</g>
</g>
<!-- Node2&#45;&gt;Node3 -->
<g id="edge3" class="edge">
<title>Node2&#45;&gt;Node3</title>
<path fill="none" stroke="#191970" d="M224.4109,-29C233.0954,-29 241.7115,-29 249.6469,-29"/>
<polygon fill="#191970" stroke="#191970" points="224.2214,-25.5001 214.2214,-29 224.2214,-32.5001 224.2214,-25.5001"/>
</g>
<!-- Node4 -->
<g id="node5" class="node">
<title>Node4</title>
<g id="a_node5"><a xlink:href="class_qwt_spline_c1.html" target="_top" xlink:title="Base class for spline interpolations providing a first order parametric continuity ( C1 ) between adj...">
<polygon fill="none" stroke="#000000" points="372.5,-38.5 372.5,-57.5 446.5,-57.5 446.5,-38.5 372.5,-38.5"/>
<text text-anchor="middle" x="409.5" y="-45.5" font-family="Helvetica,sans-Serif" font-size="10.00" fill="#000000">QwtSplineC1</text>
</a>
</g>
</g>
<!-- Node3&#45;&gt;Node4 -->
<g id="edge4" class="edge">
<title>Node3&#45;&gt;Node4</title>
<path fill="none" stroke="#191970" d="M333.9839,-36.2873C346.6091,-38.2455 360.0905,-40.3365 372.1168,-42.2018"/>
<polygon fill="#191970" stroke="#191970" points="334.5048,-32.8263 324.0865,-34.7522 333.4318,-39.7436 334.5048,-32.8263"/>
</g>
<!-- Node8 -->
<g id="node9" class="node">
<title>Node8</title>
<g id="a_node9"><a xlink:href="class_qwt_spline_pleasing.html" target="_top" xlink:title="A spline with G1 continuity.">
<polygon fill="none" stroke="#000000" points="360,-.5 360,-19.5 459,-19.5 459,-.5 360,-.5"/>
<text text-anchor="middle" x="409.5" y="-7.5" font-family="Helvetica,sans-Serif" font-size="10.00" fill="#000000">QwtSplinePleasing</text>
</a>
</g>
</g>
<!-- Node3&#45;&gt;Node8 -->
<g id="edge8" class="edge">
<title>Node3&#45;&gt;Node8</title>
<path fill="none" stroke="#191970" d="M334.1367,-21.689C342.5673,-20.3814 351.3752,-19.0153 359.8732,-17.6972"/>
<polygon fill="#191970" stroke="#191970" points="333.4318,-18.2564 324.0865,-23.2478 334.5048,-25.1737 333.4318,-18.2564"/>
</g>
<!-- Node5 -->
<g id="node6" class="node">
<title>Node5</title>
<g id="a_node6"><a xlink:href="class_qwt_spline_c2.html" target="_top" xlink:title="Base class for spline interpolations providing a second order parametric continuity ( C2 ) between ad...">
<polygon fill="none" stroke="#000000" points="500.5,-57.5 500.5,-76.5 574.5,-76.5 574.5,-57.5 500.5,-57.5"/>
<text text-anchor="middle" x="537.5" y="-64.5" font-family="Helvetica,sans-Serif" font-size="10.00" fill="#000000">QwtSplineC2</text>
</a>
</g>
</g>
<!-- Node4&#45;&gt;Node5 -->
<g id="edge5" class="edge">
<title>Node4&#45;&gt;Node5</title>
<path fill="none" stroke="#191970" d="M456.6905,-55.0048C471.0091,-57.1303 486.5358,-59.435 500.1169,-61.4509"/>
<polygon fill="#191970" stroke="#191970" points="456.9285,-51.5019 446.5229,-53.4956 455.9006,-58.426 456.9285,-51.5019"/>
</g>
<!-- Node7 -->
<g id="node8" class="node">
<title>Node7</title>
<g id="a_node8"><a xlink:href="class_qwt_spline_local.html" target="_top" xlink:title="A spline with C1 continuity.">
<polygon fill="none" stroke="#000000" points="495,-19.5 495,-38.5 580,-38.5 580,-19.5 495,-19.5"/>
<text text-anchor="middle" x="537.5" y="-26.5" font-family="Helvetica,sans-Serif" font-size="10.00" fill="#000000">QwtSplineLocal</text>
</a>
</g>
</g>
<!-- Node4&#45;&gt;Node7 -->
<g id="edge7" class="edge">
<title>Node4&#45;&gt;Node7</title>
<path fill="none" stroke="#191970" d="M456.7124,-40.9919C469.1517,-39.1454 482.5015,-37.1638 494.6943,-35.354"/>
<polygon fill="#191970" stroke="#191970" points="455.9006,-37.574 446.5229,-42.5044 456.9285,-44.4981 455.9006,-37.574"/>
</g>
<!-- Node6 -->
<g id="node7" class="node">
<title>Node6</title>
<g id="a_node7"><a xlink:href="class_qwt_spline_cubic.html" target="_top" xlink:title="A cubic spline.">
<polygon fill="none" stroke="#000000" points="616,-57.5 616,-76.5 703,-76.5 703,-57.5 616,-57.5"/>
<text text-anchor="middle" x="659.5" y="-64.5" font-family="Helvetica,sans-Serif" font-size="10.00" fill="#000000">QwtSplineCubic</text>
</a>
</g>
</g>
<!-- Node5&#45;&gt;Node6 -->
<g id="edge6" class="edge">
<title>Node5&#45;&gt;Node6</title>
<path fill="none" stroke="#191970" d="M585.0244,-67C595.0937,-67 605.6787,-67 615.606,-67"/>
<polygon fill="#191970" stroke="#191970" points="584.767,-63.5001 574.7669,-67 584.7669,-70.5001 584.767,-63.5001"/>
</g>
</g>
</svg>
