<?xml version="1.0" encoding="UTF-8" standalone="no"?>
<!DOCTYPE svg PUBLIC "-//W3C//DTD SVG 1.1//EN"
 "http://www.w3.org/Graphics/SVG/1.1/DTD/svg11.dtd">
<!-- Generated by graphviz version 2.40.1 (20161225.0304)
 -->
<!-- Title: Graphical Class Hierarchy Pages: 1 -->
<svg width="234pt" height="142pt"
 viewBox="0.00 0.00 234.00 142.00" xmlns="http://www.w3.org/2000/svg" xmlns:xlink="http://www.w3.org/1999/xlink">
<g id="graph0" class="graph" transform="scale(1 1) rotate(0) translate(4 138)">
<title>Graphical Class Hierarchy</title>
<!-- Node0 -->
<g id="node1" class="node">
<title>Node0</title>
<g id="a_node1"><a xlink:href="class_qwt_polar_item.html" target="_top" xlink:title="Base class for items on a polar plot.">
<polygon fill="none" stroke="#000000" points="0,-57.5 0,-76.5 77,-76.5 77,-57.5 0,-57.5"/>
<text text-anchor="middle" x="38.5" y="-64.5" font-family="Helvetica,sans-Serif" font-size="10.00" fill="#000000">QwtPolarItem</text>
</a>
</g>
</g>
<!-- Node1 -->
<g id="node2" class="node">
<title>Node1</title>
<g id="a_node2"><a xlink:href="class_qwt_polar_curve.html" target="_top" xlink:title="An item, that represents a series of points.">
<polygon fill="none" stroke="#000000" points="128,-114.5 128,-133.5 211,-133.5 211,-114.5 128,-114.5"/>
<text text-anchor="middle" x="169.5" y="-121.5" font-family="Helvetica,sans-Serif" font-size="10.00" fill="#000000">QwtPolarCurve</text>
</a>
</g>
</g>
<!-- Node0&#45;&gt;Node1 -->
<g id="edge1" class="edge">
<title>Node0&#45;&gt;Node1</title>
<path fill="none" stroke="#191970" d="M64.7085,-81.5649C78.7865,-89.081 96.5791,-98.0953 113,-105 121.1088,-108.4096 130.0617,-111.6497 138.4042,-114.4569"/>
<polygon fill="#191970" stroke="#191970" points="66.0787,-78.3268 55.6182,-76.6452 62.7469,-84.483 66.0787,-78.3268"/>
</g>
<!-- Node2 -->
<g id="node3" class="node">
<title>Node2</title>
<g id="a_node3"><a xlink:href="class_qwt_polar_grid.html" target="_top" xlink:title="An item which draws scales and grid lines on a polar plot.">
<polygon fill="none" stroke="#000000" points="132,-76.5 132,-95.5 207,-95.5 207,-76.5 132,-76.5"/>
<text text-anchor="middle" x="169.5" y="-83.5" font-family="Helvetica,sans-Serif" font-size="10.00" fill="#000000">QwtPolarGrid</text>
</a>
</g>
</g>
<!-- Node0&#45;&gt;Node2 -->
<g id="edge2" class="edge">
<title>Node0&#45;&gt;Node2</title>
<path fill="none" stroke="#191970" d="M87.0512,-74.0418C101.7723,-76.1769 117.7199,-78.4899 131.6314,-80.5076"/>
<polygon fill="#191970" stroke="#191970" points="87.4946,-70.5696 77.0958,-72.5979 86.4898,-77.4971 87.4946,-70.5696"/>
</g>
<!-- Node3 -->
<g id="node4" class="node">
<title>Node3</title>
<g id="a_node4"><a xlink:href="class_qwt_polar_marker.html" target="_top" xlink:title="A class for drawing markers.">
<polygon fill="none" stroke="#000000" points="126,-38.5 126,-57.5 213,-57.5 213,-38.5 126,-38.5"/>
<text text-anchor="middle" x="169.5" y="-45.5" font-family="Helvetica,sans-Serif" font-size="10.00" fill="#000000">QwtPolarMarker</text>
</a>
</g>
</g>
<!-- Node0&#45;&gt;Node3 -->
<g id="edge3" class="edge">
<title>Node0&#45;&gt;Node3</title>
<path fill="none" stroke="#191970" d="M87.0177,-59.9631C99.6822,-58.1262 113.2566,-56.1574 125.6626,-54.3581"/>
<polygon fill="#191970" stroke="#191970" points="86.4898,-56.5029 77.0958,-61.4021 87.4946,-63.4304 86.4898,-56.5029"/>
</g>
<!-- Node4 -->
<g id="node5" class="node">
<title>Node4</title>
<g id="a_node5"><a xlink:href="class_qwt_polar_spectrogram.html" target="_top" xlink:title="An item, which displays a spectrogram.">
<polygon fill="none" stroke="#000000" points="113,-.5 113,-19.5 226,-19.5 226,-.5 113,-.5"/>
<text text-anchor="middle" x="169.5" y="-7.5" font-family="Helvetica,sans-Serif" font-size="10.00" fill="#000000">QwtPolarSpectrogram</text>
</a>
</g>
</g>
<!-- Node0&#45;&gt;Node4 -->
<g id="edge4" class="edge">
<title>Node0&#45;&gt;Node4</title>
<path fill="none" stroke="#191970" d="M64.7085,-52.4351C78.7865,-44.919 96.5791,-35.9047 113,-29 121.1088,-25.5904 130.0617,-22.3503 138.4042,-19.5431"/>
<polygon fill="#191970" stroke="#191970" points="62.7469,-49.517 55.6182,-57.3548 66.0787,-55.6732 62.7469,-49.517"/>
</g>
</g>
</svg>
