<?xml version="1.0" encoding="UTF-8" standalone="no"?>
<!DOCTYPE svg PUBLIC "-//W3C//DTD SVG 1.1//EN"
 "http://www.w3.org/Graphics/SVG/1.1/DTD/svg11.dtd">
<!-- Generated by graphviz version 2.40.1 (20161225.0304)
 -->
<!-- Title: Graphical Class Hierarchy Pages: 1 -->
<svg width="288pt" height="66pt"
 viewBox="0.00 0.00 288.00 66.00" xmlns="http://www.w3.org/2000/svg" xmlns:xlink="http://www.w3.org/1999/xlink">
<g id="graph0" class="graph" transform="scale(1 1) rotate(0) translate(4 62)">
<title>Graphical Class Hierarchy</title>
<!-- Node0 -->
<g id="node1" class="node">
<title>Node0</title>
<g id="a_node1"><a xlink:href="class_qwt_vector_field_symbol.html" target="_top" xlink:title=" ">
<polygon fill="none" stroke="#000000" points="0,-19.5 0,-38.5 116,-38.5 116,-19.5 0,-19.5"/>
<text text-anchor="middle" x="58" y="-26.5" font-family="Helvetica,sans-Serif" font-size="10.00" fill="#000000">QwtVectorFieldSymbol</text>
</a>
</g>
</g>
<!-- Node1 -->
<g id="node2" class="node">
<title>Node1</title>
<g id="a_node2"><a xlink:href="class_qwt_vector_field_arrow.html" target="_top" xlink:title=" ">
<polygon fill="none" stroke="#000000" points="161.5,-38.5 161.5,-57.5 270.5,-57.5 270.5,-38.5 161.5,-38.5"/>
<text text-anchor="middle" x="216" y="-45.5" font-family="Helvetica,sans-Serif" font-size="10.00" fill="#000000">QwtVectorFieldArrow</text>
</a>
</g>
</g>
<!-- Node0&#45;&gt;Node1 -->
<g id="edge1" class="edge">
<title>Node0&#45;&gt;Node1</title>
<path fill="none" stroke="#191970" d="M126.4939,-37.2366C138.1178,-38.6344 150.0506,-40.0694 161.2614,-41.4175"/>
<polygon fill="#191970" stroke="#191970" points="126.7308,-33.74 116.3845,-36.0209 125.895,-40.6899 126.7308,-33.74"/>
</g>
<!-- Node2 -->
<g id="node3" class="node">
<title>Node2</title>
<g id="a_node3"><a xlink:href="class_qwt_vector_field_thin_arrow.html" target="_top" xlink:title=" ">
<polygon fill="none" stroke="#000000" points="152,-.5 152,-19.5 280,-19.5 280,-.5 152,-.5"/>
<text text-anchor="middle" x="216" y="-7.5" font-family="Helvetica,sans-Serif" font-size="10.00" fill="#000000">QwtVectorFieldThinArrow</text>
</a>
</g>
</g>
<!-- Node0&#45;&gt;Node2 -->
<g id="edge2" class="edge">
<title>Node0&#45;&gt;Node2</title>
<path fill="none" stroke="#191970" d="M126.5024,-20.7624C134.8838,-19.7545 143.4256,-18.7273 151.7416,-17.7273"/>
<polygon fill="#191970" stroke="#191970" points="125.895,-17.3101 116.3845,-21.9791 126.7308,-24.26 125.895,-17.3101"/>
</g>
</g>
</svg>
