<?xml version="1.0" encoding="UTF-8" standalone="no"?>
<!DOCTYPE svg PUBLIC "-//W3C//DTD SVG 1.1//EN"
 "http://www.w3.org/Graphics/SVG/1.1/DTD/svg11.dtd">
<!-- Generated by graphviz version 2.40.1 (20161225.0304)
 -->
<!-- Title: Graphical Class Hierarchy Pages: 1 -->
<svg width="498pt" height="256pt"
 viewBox="0.00 0.00 498.00 256.00" xmlns="http://www.w3.org/2000/svg" xmlns:xlink="http://www.w3.org/1999/xlink">
<g id="graph0" class="graph" transform="scale(1 1) rotate(0) translate(4 252)">
<title>Graphical Class Hierarchy</title>
<!-- Node31 -->
<g id="node1" class="node">
<title>Node31</title>
<g id="a_node1"><a xlink:title=" ">
<polygon fill="none" stroke="#bfbfbf" points="19,-95.5 19,-114.5 72,-114.5 72,-95.5 19,-95.5"/>
<text text-anchor="middle" x="45.5" y="-102.5" font-family="Helvetica,sans-Serif" font-size="10.00" fill="#000000">QObject</text>
</a>
</g>
</g>
<!-- Node0 -->
<g id="node2" class="node">
<title>Node0</title>
<g id="a_node2"><a xlink:href="class_qwt_magnifier.html" target="_top" xlink:title="QwtMagnifier provides zooming, by magnifying in steps.">
<polygon fill="none" stroke="#000000" points="144.5,-152.5 144.5,-171.5 218.5,-171.5 218.5,-152.5 144.5,-152.5"/>
<text text-anchor="middle" x="181.5" y="-159.5" font-family="Helvetica,sans-Serif" font-size="10.00" fill="#000000">QwtMagnifier</text>
</a>
</g>
</g>
<!-- Node31&#45;&gt;Node0 -->
<g id="edge1" class="edge">
<title>Node31&#45;&gt;Node0</title>
<path fill="none" stroke="#191970" d="M73.7722,-119.0394C89.3135,-126.5386 109.0332,-135.7013 127,-143 135.1695,-146.3187 144.1624,-149.601 152.4473,-152.4796"/>
<polygon fill="#191970" stroke="#191970" points="75.2116,-115.8475 64.6885,-114.6166 72.1472,-122.1411 75.2116,-115.8475"/>
</g>
<!-- Node35 -->
<g id="node5" class="node">
<title>Node35</title>
<g id="a_node5"><a xlink:href="class_qwt_picker.html" target="_top" xlink:title="QwtPicker provides selections on a widget.">
<polygon fill="none" stroke="#000000" points="150.5,-190.5 150.5,-209.5 212.5,-209.5 212.5,-190.5 150.5,-190.5"/>
<text text-anchor="middle" x="181.5" y="-197.5" font-family="Helvetica,sans-Serif" font-size="10.00" fill="#000000">QwtPicker</text>
</a>
</g>
</g>
<!-- Node31&#45;&gt;Node35 -->
<g id="edge4" class="edge">
<title>Node31&#45;&gt;Node35</title>
<path fill="none" stroke="#191970" d="M59.9067,-122.0757C75.0654,-139.0912 100.3807,-164.936 127,-181 134.1207,-185.2972 142.353,-188.8051 150.2276,-191.5839"/>
<polygon fill="#191970" stroke="#191970" points="62.5271,-119.7552 53.3198,-114.5134 57.2486,-124.3528 62.5271,-119.7552"/>
</g>
<!-- Node39 -->
<g id="node9" class="node">
<title>Node39</title>
<g id="a_node9"><a xlink:href="class_qwt_plot_direct_painter.html" target="_top" xlink:title="Painter object trying to paint incrementally.">
<polygon fill="none" stroke="#000000" points="127,-76.5 127,-95.5 236,-95.5 236,-76.5 127,-76.5"/>
<text text-anchor="middle" x="181.5" y="-83.5" font-family="Helvetica,sans-Serif" font-size="10.00" fill="#000000">QwtPlotDirectPainter</text>
</a>
</g>
</g>
<!-- Node31&#45;&gt;Node39 -->
<g id="edge8" class="edge">
<title>Node31&#45;&gt;Node39</title>
<path fill="none" stroke="#191970" d="M82.0926,-99.8878C95.8602,-97.9644 111.829,-95.7334 126.8862,-93.6299"/>
<polygon fill="#191970" stroke="#191970" points="81.4645,-96.4415 72.045,-101.2915 82.4331,-103.3741 81.4645,-96.4415"/>
</g>
<!-- Node40 -->
<g id="node10" class="node">
<title>Node40</title>
<g id="a_node10"><a xlink:href="class_qwt_plot_renderer.html" target="_top" xlink:title="Renderer for exporting a plot to a document, a printer or anything else, that is supported by QPainte...">
<polygon fill="none" stroke="#000000" points="136,-38.5 136,-57.5 227,-57.5 227,-38.5 136,-38.5"/>
<text text-anchor="middle" x="181.5" y="-45.5" font-family="Helvetica,sans-Serif" font-size="10.00" fill="#000000">QwtPlotRenderer</text>
</a>
</g>
</g>
<!-- Node31&#45;&gt;Node40 -->
<g id="edge9" class="edge">
<title>Node31&#45;&gt;Node40</title>
<path fill="none" stroke="#191970" d="M73.7722,-90.9606C89.3135,-83.4614 109.0332,-74.2987 127,-67 135.1695,-63.6813 144.1624,-60.399 152.4473,-57.5204"/>
<polygon fill="#191970" stroke="#191970" points="72.1472,-87.8589 64.6885,-95.3834 75.2116,-94.1525 72.1472,-87.8589"/>
</g>
<!-- Node41 -->
<g id="node11" class="node">
<title>Node41</title>
<g id="a_node11"><a xlink:href="class_qwt_plot_rescaler.html" target="_top" xlink:title="QwtPlotRescaler takes care of fixed aspect ratios for plot scales.">
<polygon fill="none" stroke="#000000" points="136.5,-.5 136.5,-19.5 226.5,-19.5 226.5,-.5 136.5,-.5"/>
<text text-anchor="middle" x="181.5" y="-7.5" font-family="Helvetica,sans-Serif" font-size="10.00" fill="#000000">QwtPlotRescaler</text>
</a>
</g>
</g>
<!-- Node31&#45;&gt;Node41 -->
<g id="edge10" class="edge">
<title>Node31&#45;&gt;Node41</title>
<path fill="none" stroke="#191970" d="M59.9067,-87.9243C75.0654,-70.9088 100.3807,-45.064 127,-29 133.177,-25.2723 140.1905,-22.1386 147.0813,-19.5595"/>
<polygon fill="#191970" stroke="#191970" points="57.2486,-85.6472 53.3198,-95.4866 62.5271,-90.2448 57.2486,-85.6472"/>
</g>
<!-- Node42 -->
<g id="node12" class="node">
<title>Node42</title>
<g id="a_node12"><a xlink:href="class_qwt_polar_renderer.html" target="_top" xlink:title="Renderer for exporting a polar plot to a document, a printer or anything else, that is supported by Q...">
<polygon fill="none" stroke="#000000" points="133.5,-114.5 133.5,-133.5 229.5,-133.5 229.5,-114.5 133.5,-114.5"/>
<text text-anchor="middle" x="181.5" y="-121.5" font-family="Helvetica,sans-Serif" font-size="10.00" fill="#000000">QwtPolarRenderer</text>
</a>
</g>
</g>
<!-- Node31&#45;&gt;Node42 -->
<g id="edge11" class="edge">
<title>Node31&#45;&gt;Node42</title>
<path fill="none" stroke="#191970" d="M82.3896,-110.1537C98.0612,-112.3431 116.5432,-114.9252 133.2756,-117.2628"/>
<polygon fill="#191970" stroke="#191970" points="82.4331,-106.6259 72.045,-108.7085 81.4645,-113.5585 82.4331,-106.6259"/>
</g>
<!-- Node1 -->
<g id="node3" class="node">
<title>Node1</title>
<g id="a_node3"><a xlink:href="class_qwt_plot_magnifier.html" target="_top" xlink:title="QwtPlotMagnifier provides zooming, by magnifying in steps.">
<polygon fill="none" stroke="#000000" points="274.5,-152.5 274.5,-171.5 366.5,-171.5 366.5,-152.5 274.5,-152.5"/>
<text text-anchor="middle" x="320.5" y="-159.5" font-family="Helvetica,sans-Serif" font-size="10.00" fill="#000000">QwtPlotMagnifier</text>
</a>
</g>
</g>
<!-- Node0&#45;&gt;Node1 -->
<g id="edge2" class="edge">
<title>Node0&#45;&gt;Node1</title>
<path fill="none" stroke="#191970" d="M229.1273,-162C243.7894,-162 259.8978,-162 274.4518,-162"/>
<polygon fill="#191970" stroke="#191970" points="228.7495,-158.5001 218.7494,-162 228.7494,-165.5001 228.7495,-158.5001"/>
</g>
<!-- Node2 -->
<g id="node4" class="node">
<title>Node2</title>
<g id="a_node4"><a xlink:href="class_qwt_polar_magnifier.html" target="_top" xlink:title="QwtPolarMagnifier provides zooming, by magnifying in steps.">
<polygon fill="none" stroke="#000000" points="272,-114.5 272,-133.5 369,-133.5 369,-114.5 272,-114.5"/>
<text text-anchor="middle" x="320.5" y="-121.5" font-family="Helvetica,sans-Serif" font-size="10.00" fill="#000000">QwtPolarMagnifier</text>
</a>
</g>
</g>
<!-- Node0&#45;&gt;Node2 -->
<g id="edge3" class="edge">
<title>Node0&#45;&gt;Node2</title>
<path fill="none" stroke="#191970" d="M226.2953,-149.7538C245.4547,-144.516 267.4938,-138.4909 285.4357,-133.5859"/>
<polygon fill="#191970" stroke="#191970" points="225.2986,-146.3978 216.5756,-152.411 227.1446,-153.15 225.2986,-146.3978"/>
</g>
<!-- Node36 -->
<g id="node6" class="node">
<title>Node36</title>
<g id="a_node6"><a xlink:href="class_qwt_plot_picker.html" target="_top" xlink:title="QwtPlotPicker provides selections on a plot canvas.">
<polygon fill="none" stroke="#000000" points="281,-228.5 281,-247.5 360,-247.5 360,-228.5 281,-228.5"/>
<text text-anchor="middle" x="320.5" y="-235.5" font-family="Helvetica,sans-Serif" font-size="10.00" fill="#000000">QwtPlotPicker</text>
</a>
</g>
</g>
<!-- Node35&#45;&gt;Node36 -->
<g id="edge5" class="edge">
<title>Node35&#45;&gt;Node36</title>
<path fill="none" stroke="#191970" d="M222.4743,-211.2016C242.4965,-216.6753 266.3406,-223.1938 285.4988,-228.4313"/>
<polygon fill="#191970" stroke="#191970" points="223.2633,-207.7889 212.6943,-208.5279 221.4174,-214.5412 223.2633,-207.7889"/>
</g>
<!-- Node38 -->
<g id="node8" class="node">
<title>Node38</title>
<g id="a_node8"><a xlink:href="class_qwt_polar_picker.html" target="_top" xlink:title="QwtPolarPicker provides selections on a plot canvas.">
<polygon fill="none" stroke="#000000" points="278.5,-190.5 278.5,-209.5 362.5,-209.5 362.5,-190.5 278.5,-190.5"/>
<text text-anchor="middle" x="320.5" y="-197.5" font-family="Helvetica,sans-Serif" font-size="10.00" fill="#000000">QwtPolarPicker</text>
</a>
</g>
</g>
<!-- Node35&#45;&gt;Node38 -->
<g id="edge7" class="edge">
<title>Node35&#45;&gt;Node38</title>
<path fill="none" stroke="#191970" d="M223.1441,-200C240.5892,-200 260.8402,-200 278.34,-200"/>
<polygon fill="#191970" stroke="#191970" points="222.6943,-196.5001 212.6943,-200 222.6943,-203.5001 222.6943,-196.5001"/>
</g>
<!-- Node37 -->
<g id="node7" class="node">
<title>Node37</title>
<g id="a_node7"><a xlink:href="class_qwt_plot_zoomer.html" target="_top" xlink:title="QwtPlotZoomer provides stacked zooming for a plot widget.">
<polygon fill="none" stroke="#000000" points="405,-228.5 405,-247.5 490,-247.5 490,-228.5 405,-228.5"/>
<text text-anchor="middle" x="447.5" y="-235.5" font-family="Helvetica,sans-Serif" font-size="10.00" fill="#000000">QwtPlotZoomer</text>
</a>
</g>
</g>
<!-- Node36&#45;&gt;Node37 -->
<g id="edge6" class="edge">
<title>Node36&#45;&gt;Node37</title>
<path fill="none" stroke="#191970" d="M370.5139,-238C381.8286,-238 393.7421,-238 404.7263,-238"/>
<polygon fill="#191970" stroke="#191970" points="370.3352,-234.5001 360.3351,-238 370.3351,-241.5001 370.3352,-234.5001"/>
</g>
<!-- Node125 -->
<g id="node13" class="node">
<title>Node125</title>
<g id="a_node13"><a xlink:href="class_qwt_event_pattern.html" target="_top" xlink:title="A collection of event patterns.">
<polygon fill="none" stroke="#000000" points="0,-190.5 0,-209.5 91,-209.5 91,-190.5 0,-190.5"/>
<text text-anchor="middle" x="45.5" y="-197.5" font-family="Helvetica,sans-Serif" font-size="10.00" fill="#000000">QwtEventPattern</text>
</a>
</g>
</g>
<!-- Node125&#45;&gt;Node35 -->
<g id="edge12" class="edge">
<title>Node125&#45;&gt;Node35</title>
<path fill="none" stroke="#191970" d="M101.3966,-200C118.0995,-200 135.8091,-200 150.3175,-200"/>
<polygon fill="#191970" stroke="#191970" points="101.1644,-196.5001 91.1644,-200 101.1643,-203.5001 101.1644,-196.5001"/>
</g>
</g>
</svg>
