<?xml version="1.0" encoding="UTF-8" standalone="no"?>
<!DOCTYPE svg PUBLIC "-//W3C//DTD SVG 1.1//EN"
 "http://www.w3.org/Graphics/SVG/1.1/DTD/svg11.dtd">
<!-- Generated by graphviz version 2.40.1 (20161225.0304)
 -->
<!-- Title: Graphical Class Hierarchy Pages: 1 -->
<svg width="703pt" height="674pt"
 viewBox="0.00 0.00 703.00 674.17" xmlns="http://www.w3.org/2000/svg" xmlns:xlink="http://www.w3.org/1999/xlink">
<g id="graph0" class="graph" transform="scale(1 1) rotate(0) translate(4 670.1663)">
<title>Graphical Class Hierarchy</title>
<!-- Node0 -->
<g id="node1" class="node">
<title>Node0</title>
<g id="a_node1"><a xlink:href="class_qwt_abstract_series_store.html" target="_top" xlink:title="Bridge between QwtSeriesStore and QwtPlotSeriesItem.">
<polygon fill="none" stroke="#000000" points="0,-487.5 0,-506.5 122,-506.5 122,-487.5 0,-487.5"/>
<text text-anchor="middle" x="61" y="-494.5" font-family="Helvetica,sans-Serif" font-size="10.00" fill="#000000">QwtAbstractSeriesStore</text>
</a>
</g>
</g>
<!-- Node1 -->
<g id="node2" class="node">
<title>Node1</title>
<g id="a_node2"><a xlink:href="class_qwt_series_store.html" target="_top" xlink:title=" ">
<polygon fill="none" stroke="#000000" points="176.5,-381 176.5,-411 321.5,-411 321.5,-381 176.5,-381"/>
<text text-anchor="start" x="184.5" y="-399" font-family="Helvetica,sans-Serif" font-size="10.00" fill="#000000">QwtSeriesStore&lt; QwtInterval</text>
<text text-anchor="middle" x="249" y="-388" font-family="Helvetica,sans-Serif" font-size="10.00" fill="#000000">Sample &gt;</text>
</a>
</g>
</g>
<!-- Node0&#45;&gt;Node1 -->
<g id="edge1" class="edge">
<title>Node0&#45;&gt;Node1</title>
<path fill="none" stroke="#191970" d="M78.0533,-480.1399C96.3603,-462.9316 127.0119,-436.5991 158,-421 165.6099,-417.1693 173.8829,-413.8633 182.2356,-411.0269"/>
<polygon fill="#191970" stroke="#191970" points="75.348,-477.885 70.5537,-487.3331 80.1935,-482.9369 75.348,-477.885"/>
</g>
<!-- Node4 -->
<g id="node5" class="node">
<title>Node4</title>
<g id="a_node5"><a xlink:href="class_qwt_series_store.html" target="_top" xlink:title=" ">
<polygon fill="none" stroke="#000000" points="179,-583 179,-613 319,-613 319,-583 179,-583"/>
<text text-anchor="start" x="187" y="-601" font-family="Helvetica,sans-Serif" font-size="10.00" fill="#000000">QwtSeriesStore&lt; QwtVector</text>
<text text-anchor="middle" x="249" y="-590" font-family="Helvetica,sans-Serif" font-size="10.00" fill="#000000">FieldSample &gt;</text>
</a>
</g>
</g>
<!-- Node0&#45;&gt;Node4 -->
<g id="edge4" class="edge">
<title>Node0&#45;&gt;Node4</title>
<path fill="none" stroke="#191970" d="M78.0533,-513.8601C96.3603,-531.0684 127.0119,-557.4009 158,-573 165.6099,-576.8307 173.8829,-580.1367 182.2356,-582.9731"/>
<polygon fill="#191970" stroke="#191970" points="80.1935,-511.0631 70.5537,-506.6669 75.348,-516.115 80.1935,-511.0631"/>
</g>
<!-- Node6 -->
<g id="node7" class="node">
<title>Node6</title>
<g id="a_node7"><a xlink:href="class_qwt_series_store.html" target="_top" xlink:title=" ">
<polygon fill="none" stroke="#000000" points="158,-544.5 158,-563.5 340,-563.5 340,-544.5 158,-544.5"/>
<text text-anchor="middle" x="249" y="-551.5" font-family="Helvetica,sans-Serif" font-size="10.00" fill="#000000">QwtSeriesStore&lt; QwtOHLCSample &gt;</text>
</a>
</g>
</g>
<!-- Node0&#45;&gt;Node6 -->
<g id="edge6" class="edge">
<title>Node0&#45;&gt;Node6</title>
<path fill="none" stroke="#191970" d="M91.4935,-510.467C110.3722,-518.4209 135.2691,-528.2266 158,-535 170.0644,-538.595 183.225,-541.7631 195.6938,-544.4308"/>
<polygon fill="#191970" stroke="#191970" points="92.7841,-507.2124 82.2131,-506.5024 90.034,-513.6496 92.7841,-507.2124"/>
</g>
<!-- Node8 -->
<g id="node9" class="node">
<title>Node8</title>
<g id="a_node9"><a xlink:href="class_qwt_series_store.html" target="_top" xlink:title=" ">
<polygon fill="none" stroke="#000000" points="179,-632.5 179,-651.5 319,-651.5 319,-632.5 179,-632.5"/>
<text text-anchor="middle" x="249" y="-639.5" font-family="Helvetica,sans-Serif" font-size="10.00" fill="#000000">QwtSeriesStore&lt; QPointF &gt;</text>
</a>
</g>
</g>
<!-- Node0&#45;&gt;Node8 -->
<g id="edge8" class="edge">
<title>Node0&#45;&gt;Node8</title>
<path fill="none" stroke="#191970" d="M70.0347,-515.9498C84.4738,-544.0593 115.5113,-596.3454 158,-623 164.4257,-627.0311 171.5593,-630.2224 178.9242,-632.7465"/>
<polygon fill="#191970" stroke="#191970" points="73.0616,-514.1759 65.4756,-506.7797 66.7935,-517.2923 73.0616,-514.1759"/>
</g>
<!-- Node11 -->
<g id="node12" class="node">
<title>Node11</title>
<g id="a_node12"><a xlink:href="class_qwt_series_store.html" target="_top" xlink:title=" ">
<polygon fill="none" stroke="#000000" points="170.5,-506.5 170.5,-525.5 327.5,-525.5 327.5,-506.5 170.5,-506.5"/>
<text text-anchor="middle" x="249" y="-513.5" font-family="Helvetica,sans-Serif" font-size="10.00" fill="#000000">QwtSeriesStore&lt; QwtPoint3D &gt;</text>
</a>
</g>
</g>
<!-- Node0&#45;&gt;Node11 -->
<g id="edge11" class="edge">
<title>Node0&#45;&gt;Node11</title>
<path fill="none" stroke="#191970" d="M132.3444,-504.2103C144.7963,-505.4688 157.8122,-506.7842 170.4454,-508.061"/>
<polygon fill="#191970" stroke="#191970" points="132.3395,-500.6921 122.0382,-503.1688 131.6356,-507.6566 132.3395,-500.6921"/>
</g>
<!-- Node13 -->
<g id="node14" class="node">
<title>Node13</title>
<g id="a_node14"><a xlink:href="class_qwt_series_store.html" target="_top" xlink:title=" ">
<polygon fill="none" stroke="#000000" points="376,-342.5 376,-361.5 546,-361.5 546,-342.5 376,-342.5"/>
<text text-anchor="middle" x="461" y="-349.5" font-family="Helvetica,sans-Serif" font-size="10.00" fill="#000000">QwtSeriesStore&lt; QwtSetSample &gt;</text>
</a>
</g>
</g>
<!-- Node0&#45;&gt;Node13 -->
<g id="edge13" class="edge">
<title>Node0&#45;&gt;Node13</title>
<path fill="none" stroke="#191970" d="M69.4307,-477.8585C83.2565,-449.0789 113.7109,-395.5316 158,-372 235.3983,-330.877 340.0563,-334.7309 403.9265,-342.4876"/>
<polygon fill="#191970" stroke="#191970" points="66.1133,-476.6937 65.0945,-487.2395 72.4674,-479.6308 66.1133,-476.6937"/>
</g>
<!-- Node15 -->
<g id="node16" class="node">
<title>Node15</title>
<g id="a_node16"><a xlink:href="class_qwt_plot_series_item.html" target="_top" xlink:title="Base class for plot items representing a series of samples.">
<polygon fill="none" stroke="#000000" points="199.5,-430.5 199.5,-449.5 298.5,-449.5 298.5,-430.5 199.5,-430.5"/>
<text text-anchor="middle" x="249" y="-437.5" font-family="Helvetica,sans-Serif" font-size="10.00" fill="#000000">QwtPlotSeriesItem</text>
</a>
</g>
</g>
<!-- Node0&#45;&gt;Node15 -->
<g id="edge15" class="edge">
<title>Node0&#45;&gt;Node15</title>
<path fill="none" stroke="#191970" d="M91.4935,-483.533C110.3722,-475.5791 135.2691,-465.7734 158,-459 171.1471,-455.0824 185.596,-451.6717 199.0328,-448.8631"/>
<polygon fill="#191970" stroke="#191970" points="90.034,-480.3504 82.2131,-487.4976 92.7841,-486.7876 90.034,-480.3504"/>
</g>
<!-- Node17 -->
<g id="node18" class="node">
<title>Node17</title>
<g id="a_node18"><a xlink:href="class_qwt_series_store.html" target="_top" xlink:title="Class storing a QwtSeriesData object.">
<polygon fill="none" stroke="#000000" points="194,-468.5 194,-487.5 304,-487.5 304,-468.5 194,-468.5"/>
<text text-anchor="middle" x="249" y="-475.5" font-family="Helvetica,sans-Serif" font-size="10.00" fill="#000000">QwtSeriesStore&lt; T &gt;</text>
</a>
</g>
</g>
<!-- Node0&#45;&gt;Node17 -->
<g id="edge25" class="edge">
<title>Node0&#45;&gt;Node17</title>
<path fill="none" stroke="#191970" d="M132.251,-489.7991C152.6986,-487.7326 174.6742,-485.5117 193.9828,-483.5603"/>
<polygon fill="#191970" stroke="#191970" points="131.6356,-486.3434 122.0382,-490.8312 132.3395,-493.3079 131.6356,-486.3434"/>
</g>
<!-- Node2 -->
<g id="node3" class="node">
<title>Node2</title>
<g id="a_node3"><a xlink:href="class_qwt_plot_histogram.html" target="_top" xlink:title="QwtPlotHistogram represents a series of samples, where an interval is associated with a value ( &#160;).">
<polygon fill="none" stroke="#000000" points="412.5,-380.5 412.5,-399.5 509.5,-399.5 509.5,-380.5 412.5,-380.5"/>
<text text-anchor="middle" x="461" y="-387.5" font-family="Helvetica,sans-Serif" font-size="10.00" fill="#000000">QwtPlotHistogram</text>
</a>
</g>
</g>
<!-- Node1&#45;&gt;Node2 -->
<g id="edge2" class="edge">
<title>Node1&#45;&gt;Node2</title>
<path fill="none" stroke="#191970" d="M331.9818,-393.6515C359.2227,-392.8805 388.5946,-392.0492 412.4221,-391.3748"/>
<polygon fill="#191970" stroke="#191970" points="331.5587,-390.1619 321.6618,-393.9435 331.7568,-397.1591 331.5587,-390.1619"/>
</g>
<!-- Node3 -->
<g id="node4" class="node">
<title>Node3</title>
<g id="a_node4"><a xlink:href="class_qwt_plot_interval_curve.html" target="_top" xlink:title="QwtPlotIntervalCurve represents a series of samples, where each value is associated with an interval ...">
<polygon fill="none" stroke="#000000" points="406,-418.5 406,-437.5 516,-437.5 516,-418.5 406,-418.5"/>
<text text-anchor="middle" x="461" y="-425.5" font-family="Helvetica,sans-Serif" font-size="10.00" fill="#000000">QwtPlotIntervalCurve</text>
</a>
</g>
</g>
<!-- Node1&#45;&gt;Node3 -->
<g id="edge3" class="edge">
<title>Node1&#45;&gt;Node3</title>
<path fill="none" stroke="#191970" d="M331.809,-408.4995C356.6416,-412.2478 383.2597,-416.2656 405.8432,-419.6744"/>
<polygon fill="#191970" stroke="#191970" points="332.0722,-404.9996 321.6618,-406.9678 331.0274,-411.9212 332.0722,-404.9996"/>
</g>
<!-- Node5 -->
<g id="node6" class="node">
<title>Node5</title>
<g id="a_node6"><a xlink:href="class_qwt_plot_vector_field.html" target="_top" xlink:title="A plot item, that represents a vector field.">
<polygon fill="none" stroke="#000000" points="410.5,-570.5 410.5,-589.5 511.5,-589.5 511.5,-570.5 410.5,-570.5"/>
<text text-anchor="middle" x="461" y="-577.5" font-family="Helvetica,sans-Serif" font-size="10.00" fill="#000000">QwtPlotVectorField</text>
</a>
</g>
</g>
<!-- Node4&#45;&gt;Node5 -->
<g id="edge5" class="edge">
<title>Node4&#45;&gt;Node5</title>
<path fill="none" stroke="#191970" d="M329.2778,-591.184C356.4317,-588.8784 385.9823,-586.3694 410.2007,-584.3131"/>
<polygon fill="#191970" stroke="#191970" points="328.6723,-587.7227 319.0043,-592.0562 329.2646,-594.6976 328.6723,-587.7227"/>
</g>
<!-- Node7 -->
<g id="node8" class="node">
<title>Node7</title>
<g id="a_node8"><a xlink:href="class_qwt_plot_trading_curve.html" target="_top" xlink:title="QwtPlotTradingCurve illustrates movements in the price of a financial instrument over time.">
<polygon fill="none" stroke="#000000" points="406,-532.5 406,-551.5 516,-551.5 516,-532.5 406,-532.5"/>
<text text-anchor="middle" x="461" y="-539.5" font-family="Helvetica,sans-Serif" font-size="10.00" fill="#000000">QwtPlotTradingCurve</text>
</a>
</g>
</g>
<!-- Node6&#45;&gt;Node7 -->
<g id="edge7" class="edge">
<title>Node6&#45;&gt;Node7</title>
<path fill="none" stroke="#191970" d="M350.1285,-548.2757C369.2969,-547.1907 388.6782,-546.0937 405.7579,-545.1269"/>
<polygon fill="#191970" stroke="#191970" points="349.9236,-544.7816 340.1374,-548.8413 350.3193,-551.7705 349.9236,-544.7816"/>
</g>
<!-- Node9 -->
<g id="node10" class="node">
<title>Node9</title>
<g id="a_node10"><a xlink:href="class_qwt_plot_bar_chart.html" target="_top" xlink:title="QwtPlotBarChart displays a series of a values as bars.">
<polygon fill="none" stroke="#000000" points="592.5,-494.5 592.5,-513.5 684.5,-513.5 684.5,-494.5 592.5,-494.5"/>
<text text-anchor="middle" x="638.5" y="-501.5" font-family="Helvetica,sans-Serif" font-size="10.00" fill="#000000">QwtPlotBarChart</text>
</a>
</g>
</g>
<!-- Node8&#45;&gt;Node9 -->
<g id="edge9" class="edge">
<title>Node8&#45;&gt;Node9</title>
<path fill="none" stroke="#191970" d="M295.7107,-653.6202C357.1086,-666.2468 466.4751,-679.4145 546,-637 597.3704,-609.6017 626.1439,-539.553 635.2768,-513.7413"/>
<polygon fill="#191970" stroke="#191970" points="296.4268,-650.1943 285.916,-651.5262 294.9633,-657.0396 296.4268,-650.1943"/>
</g>
<!-- Node10 -->
<g id="node11" class="node">
<title>Node10</title>
<g id="a_node11"><a xlink:href="class_qwt_plot_curve.html" target="_top" xlink:title="A plot item, that represents a series of points.">
<polygon fill="none" stroke="#000000" points="422,-608.5 422,-627.5 500,-627.5 500,-608.5 422,-608.5"/>
<text text-anchor="middle" x="461" y="-615.5" font-family="Helvetica,sans-Serif" font-size="10.00" fill="#000000">QwtPlotCurve</text>
</a>
</g>
</g>
<!-- Node8&#45;&gt;Node10 -->
<g id="edge10" class="edge">
<title>Node8&#45;&gt;Node10</title>
<path fill="none" stroke="#191970" d="M329.1863,-632.9223C360.9516,-629.3262 396.0101,-625.3574 421.9809,-622.4173"/>
<polygon fill="#191970" stroke="#191970" points="328.5471,-629.4722 319.0043,-634.075 329.3345,-636.4278 328.5471,-629.4722"/>
</g>
<!-- Node12 -->
<g id="node13" class="node">
<title>Node12</title>
<g id="a_node13"><a xlink:href="class_qwt_plot_spectro_curve.html" target="_top" xlink:title="Curve that displays 3D points as dots, where the z coordinate is mapped to a color.">
<polygon fill="none" stroke="#000000" points="405,-494.5 405,-513.5 517,-513.5 517,-494.5 405,-494.5"/>
<text text-anchor="middle" x="461" y="-501.5" font-family="Helvetica,sans-Serif" font-size="10.00" fill="#000000">QwtPlotSpectroCurve</text>
</a>
</g>
</g>
<!-- Node11&#45;&gt;Node12 -->
<g id="edge12" class="edge">
<title>Node11&#45;&gt;Node12</title>
<path fill="none" stroke="#191970" d="M337.6746,-510.9807C360.4729,-509.6902 384.3702,-508.3375 404.9929,-507.1702"/>
<polygon fill="#191970" stroke="#191970" points="337.4259,-507.4891 327.6397,-511.5487 337.8216,-514.4779 337.4259,-507.4891"/>
</g>
<!-- Node14 -->
<g id="node15" class="node">
<title>Node14</title>
<g id="a_node15"><a xlink:href="class_qwt_plot_multi_bar_chart.html" target="_top" xlink:title="QwtPlotMultiBarChart displays a series of a samples that consist each of a set of values.">
<polygon fill="none" stroke="#000000" points="582,-418.5 582,-437.5 695,-437.5 695,-418.5 582,-418.5"/>
<text text-anchor="middle" x="638.5" y="-425.5" font-family="Helvetica,sans-Serif" font-size="10.00" fill="#000000">QwtPlotMultiBarChart</text>
</a>
</g>
</g>
<!-- Node13&#45;&gt;Node14 -->
<g id="edge14" class="edge">
<title>Node13&#45;&gt;Node14</title>
<path fill="none" stroke="#191970" d="M526.1902,-364.221C532.9778,-366.1875 539.6942,-368.4368 546,-371 576.7554,-383.5017 608.9428,-405.755 626.0565,-418.4424"/>
<polygon fill="#191970" stroke="#191970" points="526.8004,-360.7607 516.2341,-361.5386 524.9793,-367.5197 526.8004,-360.7607"/>
</g>
<!-- Node15&#45;&gt;Node2 -->
<g id="edge20" class="edge">
<title>Node15&#45;&gt;Node2</title>
<path fill="none" stroke="#191970" d="M308.7519,-428.558C319.2166,-426.2602 329.9636,-423.7107 340,-421 356.2821,-416.6024 359.7493,-413.5121 376,-409 388.3844,-405.5614 401.9156,-402.3116 414.4668,-399.5043"/>
<polygon fill="#191970" stroke="#191970" points="307.8832,-425.1646 298.8377,-430.6809 309.3489,-432.0094 307.8832,-425.1646"/>
</g>
<!-- Node15&#45;&gt;Node3 -->
<g id="edge21" class="edge">
<title>Node15&#45;&gt;Node3</title>
<path fill="none" stroke="#191970" d="M308.7547,-436.6177C339.1601,-434.8966 375.8799,-432.8181 405.6391,-431.1336"/>
<polygon fill="#191970" stroke="#191970" points="308.4908,-433.1269 298.7046,-437.1865 308.8864,-440.1157 308.4908,-433.1269"/>
</g>
<!-- Node15&#45;&gt;Node5 -->
<g id="edge24" class="edge">
<title>Node15&#45;&gt;Node5</title>
<path fill="none" stroke="#191970" d="M308.9323,-443.4885C320.2503,-446.5088 331.2621,-451.3569 340,-459 376.1845,-490.6511 340.0392,-529.0949 376,-561 385.5013,-569.4297 397.9189,-574.3731 410.3162,-577.2104"/>
<polygon fill="#191970" stroke="#191970" points="309.4768,-440.0244 298.9567,-441.2805 307.964,-446.859 309.4768,-440.0244"/>
</g>
<!-- Node15&#45;&gt;Node7 -->
<g id="edge23" class="edge">
<title>Node15&#45;&gt;Node7</title>
<path fill="none" stroke="#191970" d="M308.6929,-444.8957C319.8319,-447.8309 330.8356,-452.2883 340,-459 366.3297,-478.283 349.8067,-503.5321 376,-523 384.738,-529.4945 395.2846,-533.8387 405.9311,-536.7285"/>
<polygon fill="#191970" stroke="#191970" points="309.4372,-441.4757 298.9122,-442.6896 307.897,-448.3042 309.4372,-441.4757"/>
</g>
<!-- Node15&#45;&gt;Node10 -->
<g id="edge19" class="edge">
<title>Node15&#45;&gt;Node10</title>
<path fill="none" stroke="#191970" d="M308.3863,-442.62C320.0499,-445.6531 331.338,-450.7264 340,-459 386.4587,-503.3757 329.8549,-554.2984 376,-599 388.0555,-610.6783 405.6369,-615.8014 421.6857,-617.8583"/>
<polygon fill="#191970" stroke="#191970" points="309.0596,-439.1849 298.55,-440.5264 307.6023,-446.0316 309.0596,-439.1849"/>
</g>
<!-- Node15&#45;&gt;Node12 -->
<g id="edge22" class="edge">
<title>Node15&#45;&gt;Node12</title>
<path fill="none" stroke="#191970" d="M308.9034,-448.763C319.5093,-451.3597 330.2655,-454.7034 340,-459 358.056,-466.9695 358.0006,-476.9036 376,-485 384.9637,-489.032 394.8553,-492.2414 404.6257,-494.786"/>
<polygon fill="#191970" stroke="#191970" points="309.3433,-445.2746 298.8191,-446.4956 307.8077,-452.1041 309.3433,-445.2746"/>
</g>
<!-- Node16 -->
<g id="node17" class="node">
<title>Node16</title>
<g id="a_node17"><a xlink:href="class_qwt_plot_abstract_bar_chart.html" target="_top" xlink:title="Abstract base class for bar chart items.">
<polygon fill="none" stroke="#000000" points="397,-456.5 397,-475.5 525,-475.5 525,-456.5 397,-456.5"/>
<text text-anchor="middle" x="461" y="-463.5" font-family="Helvetica,sans-Serif" font-size="10.00" fill="#000000">QwtPlotAbstractBarChart</text>
</a>
</g>
</g>
<!-- Node15&#45;&gt;Node16 -->
<g id="edge16" class="edge">
<title>Node15&#45;&gt;Node16</title>
<path fill="none" stroke="#191970" d="M308.9349,-447.3505C336.3318,-450.7105 368.8256,-454.6956 396.7288,-458.1177"/>
<polygon fill="#191970" stroke="#191970" points="309.0563,-443.8393 298.7046,-446.0958 308.2041,-450.7872 309.0563,-443.8393"/>
</g>
<!-- Node16&#45;&gt;Node9 -->
<g id="edge17" class="edge">
<title>Node16&#45;&gt;Node9</title>
<path fill="none" stroke="#191970" d="M515.8969,-477.7526C540.9954,-483.1258 570.3428,-489.4086 594.0313,-494.4799"/>
<polygon fill="#191970" stroke="#191970" points="516.3019,-474.26 505.7907,-475.589 514.8365,-481.1049 516.3019,-474.26"/>
</g>
<!-- Node16&#45;&gt;Node14 -->
<g id="edge18" class="edge">
<title>Node16&#45;&gt;Node14</title>
<path fill="none" stroke="#191970" d="M515.8969,-454.2474C540.9954,-448.8742 570.3428,-442.5914 594.0313,-437.5201"/>
<polygon fill="#191970" stroke="#191970" points="514.8365,-450.8951 505.7907,-456.411 516.3019,-457.74 514.8365,-450.8951"/>
</g>
<!-- Node144 -->
<g id="node19" class="node">
<title>Node144</title>
<g id="a_node19"><a xlink:href="class_qwt_plot_item.html" target="_top" xlink:title="Base class for items on the plot canvas.">
<polygon fill="none" stroke="#000000" points="25.5,-171.5 25.5,-190.5 96.5,-190.5 96.5,-171.5 25.5,-171.5"/>
<text text-anchor="middle" x="61" y="-178.5" font-family="Helvetica,sans-Serif" font-size="10.00" fill="#000000">QwtPlotItem</text>
</a>
</g>
</g>
<!-- Node144&#45;&gt;Node15 -->
<g id="edge34" class="edge">
<title>Node144&#45;&gt;Node15</title>
<path fill="none" stroke="#191970" d="M62.8386,-200.8344C68.2437,-247.1337 88.3868,-362.8082 158,-421 169.5159,-430.6265 184.6744,-435.7663 199.3091,-438.4087"/>
<polygon fill="#191970" stroke="#191970" points="66.2924,-200.2121 61.7608,-190.6353 59.3312,-200.9478 66.2924,-200.2121"/>
</g>
<!-- Node145 -->
<g id="node20" class="node">
<title>Node145</title>
<g id="a_node20"><a xlink:href="class_qwt_plot_graphic_item.html" target="_top" xlink:title="A plot item, which displays a recorded sequence of QPainter commands.">
<polygon fill="none" stroke="#000000" points="196.5,-38.5 196.5,-57.5 301.5,-57.5 301.5,-38.5 196.5,-38.5"/>
<text text-anchor="middle" x="249" y="-45.5" font-family="Helvetica,sans-Serif" font-size="10.00" fill="#000000">QwtPlotGraphicItem</text>
</a>
</g>
</g>
<!-- Node144&#45;&gt;Node145 -->
<g id="edge26" class="edge">
<title>Node144&#45;&gt;Node145</title>
<path fill="none" stroke="#191970" d="M71.3906,-162.3768C86.7862,-136.6241 118.1749,-90.6463 158,-67 169.5183,-60.161 183.1334,-55.7594 196.2749,-52.9336"/>
<polygon fill="#191970" stroke="#191970" points="68.2811,-160.7619 66.2888,-171.1677 74.3354,-164.2755 68.2811,-160.7619"/>
</g>
<!-- Node147 -->
<g id="node22" class="node">
<title>Node147</title>
<g id="a_node22"><a xlink:href="class_qwt_plot_grid.html" target="_top" xlink:title="A class which draws a coordinate grid.">
<polygon fill="none" stroke="#000000" points="214,-.5 214,-19.5 284,-19.5 284,-.5 214,-.5"/>
<text text-anchor="middle" x="249" y="-7.5" font-family="Helvetica,sans-Serif" font-size="10.00" fill="#000000">QwtPlotGrid</text>
</a>
</g>
</g>
<!-- Node144&#45;&gt;Node147 -->
<g id="edge28" class="edge">
<title>Node144&#45;&gt;Node147</title>
<path fill="none" stroke="#191970" d="M67.6897,-161.4828C80.0306,-128.5797 109.6292,-62.3994 158,-29 174.2027,-17.8122 195.6294,-12.9727 213.6211,-10.9716"/>
<polygon fill="#191970" stroke="#191970" points="64.2603,-160.6757 64.1639,-171.2701 70.846,-163.0482 64.2603,-160.6757"/>
</g>
<!-- Node148 -->
<g id="node23" class="node">
<title>Node148</title>
<g id="a_node23"><a xlink:href="class_qwt_plot_legend_item.html" target="_top" xlink:title="A class which draws a legend inside the plot canvas.">
<polygon fill="none" stroke="#000000" points="197.5,-304.5 197.5,-323.5 300.5,-323.5 300.5,-304.5 197.5,-304.5"/>
<text text-anchor="middle" x="249" y="-311.5" font-family="Helvetica,sans-Serif" font-size="10.00" fill="#000000">QwtPlotLegendItem</text>
</a>
</g>
</g>
<!-- Node144&#45;&gt;Node148 -->
<g id="edge29" class="edge">
<title>Node144&#45;&gt;Node148</title>
<path fill="none" stroke="#191970" d="M71.3906,-199.6232C86.7862,-225.3759 118.1749,-271.3537 158,-295 169.7958,-302.0038 183.7907,-306.4513 197.224,-309.2679"/>
<polygon fill="#191970" stroke="#191970" points="74.3354,-197.7245 66.2888,-190.8323 68.2811,-201.2381 74.3354,-197.7245"/>
</g>
<!-- Node149 -->
<g id="node24" class="node">
<title>Node149</title>
<g id="a_node24"><a xlink:href="class_qwt_plot_marker.html" target="_top" xlink:title="A class for drawing markers.">
<polygon fill="none" stroke="#000000" points="208,-266.5 208,-285.5 290,-285.5 290,-266.5 208,-266.5"/>
<text text-anchor="middle" x="249" y="-273.5" font-family="Helvetica,sans-Serif" font-size="10.00" fill="#000000">QwtPlotMarker</text>
</a>
</g>
</g>
<!-- Node144&#45;&gt;Node149 -->
<g id="edge30" class="edge">
<title>Node144&#45;&gt;Node149</title>
<path fill="none" stroke="#191970" d="M77.5735,-197.9715C95.6889,-215.4965 126.3731,-242.295 158,-257 173.5128,-264.2127 191.7809,-268.7099 207.8628,-271.5038"/>
<polygon fill="#191970" stroke="#191970" points="79.7455,-195.1968 70.1764,-190.6489 74.8208,-200.1715 79.7455,-195.1968"/>
</g>
<!-- Node150 -->
<g id="node25" class="node">
<title>Node150</title>
<g id="a_node25"><a xlink:href="class_qwt_plot_raster_item.html" target="_top" xlink:title="A class, which displays raster data.">
<polygon fill="none" stroke="#000000" points="199,-228.5 199,-247.5 299,-247.5 299,-228.5 199,-228.5"/>
<text text-anchor="middle" x="249" y="-235.5" font-family="Helvetica,sans-Serif" font-size="10.00" fill="#000000">QwtPlotRasterItem</text>
</a>
</g>
</g>
<!-- Node144&#45;&gt;Node150 -->
<g id="edge31" class="edge">
<title>Node144&#45;&gt;Node150</title>
<path fill="none" stroke="#191970" d="M91.4935,-194.467C110.3722,-202.4209 135.2691,-212.2266 158,-219 170.9925,-222.8715 185.2562,-226.248 198.5581,-229.0375"/>
<polygon fill="#191970" stroke="#191970" points="92.7841,-191.2124 82.2131,-190.5024 90.034,-197.6496 92.7841,-191.2124"/>
</g>
<!-- Node152 -->
<g id="node27" class="node">
<title>Node152</title>
<g id="a_node27"><a xlink:href="class_qwt_plot_scale_item.html" target="_top" xlink:title="A class which draws a scale inside the plot canvas.">
<polygon fill="none" stroke="#000000" points="201,-190.5 201,-209.5 297,-209.5 297,-190.5 201,-190.5"/>
<text text-anchor="middle" x="249" y="-197.5" font-family="Helvetica,sans-Serif" font-size="10.00" fill="#000000">QwtPlotScaleItem</text>
</a>
</g>
</g>
<!-- Node144&#45;&gt;Node152 -->
<g id="edge33" class="edge">
<title>Node144&#45;&gt;Node152</title>
<path fill="none" stroke="#191970" d="M106.9106,-185.6399C135.4139,-188.5206 171.9907,-192.2172 200.8952,-195.1383"/>
<polygon fill="#191970" stroke="#191970" points="107.1052,-182.1418 96.8039,-184.6185 106.4012,-189.1063 107.1052,-182.1418"/>
</g>
<!-- Node153 -->
<g id="node28" class="node">
<title>Node153</title>
<g id="a_node28"><a xlink:href="class_qwt_plot_shape_item.html" target="_top" xlink:title="A plot item, which displays any graphical shape, that can be defined by a QPainterPath.">
<polygon fill="none" stroke="#000000" points="199.5,-152.5 199.5,-171.5 298.5,-171.5 298.5,-152.5 199.5,-152.5"/>
<text text-anchor="middle" x="249" y="-159.5" font-family="Helvetica,sans-Serif" font-size="10.00" fill="#000000">QwtPlotShapeItem</text>
</a>
</g>
</g>
<!-- Node144&#45;&gt;Node153 -->
<g id="edge35" class="edge">
<title>Node144&#45;&gt;Node153</title>
<path fill="none" stroke="#191970" d="M106.7591,-176.3754C134.8224,-173.5392 170.7551,-169.9077 199.4833,-167.0044"/>
<polygon fill="#191970" stroke="#191970" points="106.4012,-172.8937 96.8039,-177.3815 107.1052,-179.8582 106.4012,-172.8937"/>
</g>
<!-- Node154 -->
<g id="node29" class="node">
<title>Node154</title>
<g id="a_node29"><a xlink:href="class_qwt_plot_text_label.html" target="_top" xlink:title="A plot item, which displays a text label.">
<polygon fill="none" stroke="#000000" points="202,-114.5 202,-133.5 296,-133.5 296,-114.5 202,-114.5"/>
<text text-anchor="middle" x="249" y="-121.5" font-family="Helvetica,sans-Serif" font-size="10.00" fill="#000000">QwtPlotTextLabel</text>
</a>
</g>
</g>
<!-- Node144&#45;&gt;Node154 -->
<g id="edge36" class="edge">
<title>Node144&#45;&gt;Node154</title>
<path fill="none" stroke="#191970" d="M91.4935,-167.533C110.3722,-159.5791 135.2691,-149.7734 158,-143 172.0752,-138.8058 187.6423,-135.1927 201.8623,-132.2774"/>
<polygon fill="#191970" stroke="#191970" points="90.034,-164.3504 82.2131,-171.4976 92.7841,-170.7876 90.034,-164.3504"/>
</g>
<!-- Node155 -->
<g id="node30" class="node">
<title>Node155</title>
<g id="a_node30"><a xlink:href="class_qwt_plot_zone_item.html" target="_top" xlink:title="A plot item, which displays a zone.">
<polygon fill="none" stroke="#000000" points="202.5,-76.5 202.5,-95.5 295.5,-95.5 295.5,-76.5 202.5,-76.5"/>
<text text-anchor="middle" x="249" y="-83.5" font-family="Helvetica,sans-Serif" font-size="10.00" fill="#000000">QwtPlotZoneItem</text>
</a>
</g>
</g>
<!-- Node144&#45;&gt;Node155 -->
<g id="edge37" class="edge">
<title>Node144&#45;&gt;Node155</title>
<path fill="none" stroke="#191970" d="M77.5735,-164.0285C95.6889,-146.5035 126.3731,-119.705 158,-105 171.7567,-98.6038 187.68,-94.3431 202.3241,-91.512"/>
<polygon fill="#191970" stroke="#191970" points="74.8208,-161.8285 70.1764,-171.3511 79.7455,-166.8032 74.8208,-161.8285"/>
</g>
<!-- Node146 -->
<g id="node21" class="node">
<title>Node146</title>
<g id="a_node21"><a xlink:href="class_qwt_plot_svg_item.html" target="_top" xlink:title="A plot item, which displays data in Scalable Vector Graphics (SVG) format.">
<polygon fill="none" stroke="#000000" points="417,-38.5 417,-57.5 505,-57.5 505,-38.5 417,-38.5"/>
<text text-anchor="middle" x="461" y="-45.5" font-family="Helvetica,sans-Serif" font-size="10.00" fill="#000000">QwtPlotSvgItem</text>
</a>
</g>
</g>
<!-- Node145&#45;&gt;Node146 -->
<g id="edge27" class="edge">
<title>Node145&#45;&gt;Node146</title>
<path fill="none" stroke="#191970" d="M311.9086,-48C345.6667,-48 386.4521,-48 416.8255,-48"/>
<polygon fill="#191970" stroke="#191970" points="311.6769,-44.5001 301.6769,-48 311.6769,-51.5001 311.6769,-44.5001"/>
</g>
<!-- Node151 -->
<g id="node26" class="node">
<title>Node151</title>
<g id="a_node26"><a xlink:href="class_qwt_plot_spectrogram.html" target="_top" xlink:title="A plot item, which displays a spectrogram.">
<polygon fill="none" stroke="#000000" points="407.5,-228.5 407.5,-247.5 514.5,-247.5 514.5,-228.5 407.5,-228.5"/>
<text text-anchor="middle" x="461" y="-235.5" font-family="Helvetica,sans-Serif" font-size="10.00" fill="#000000">QwtPlotSpectrogram</text>
</a>
</g>
</g>
<!-- Node150&#45;&gt;Node151 -->
<g id="edge32" class="edge">
<title>Node150&#45;&gt;Node151</title>
<path fill="none" stroke="#191970" d="M309.4487,-238C340.3267,-238 377.5729,-238 407.4136,-238"/>
<polygon fill="#191970" stroke="#191970" points="309.2411,-234.5001 299.241,-238 309.241,-241.5001 309.2411,-234.5001"/>
</g>
</g>
</svg>
