<?xml version="1.0" encoding="UTF-8" standalone="no"?>
<!DOCTYPE svg PUBLIC "-//W3C//DTD SVG 1.1//EN"
 "http://www.w3.org/Graphics/SVG/1.1/DTD/svg11.dtd">
<!-- Generated by graphviz version 2.40.1 (20161225.0304)
 -->
<!-- Title: Graphical Class Hierarchy Pages: 1 -->
<svg width="457pt" height="332pt"
 viewBox="0.00 0.00 457.00 332.00" xmlns="http://www.w3.org/2000/svg" xmlns:xlink="http://www.w3.org/1999/xlink">
<g id="graph0" class="graph" transform="scale(1 1) rotate(0) translate(4 328)">
<title>Graphical Class Hierarchy</title>
<!-- Node5 -->
<g id="node1" class="node">
<title>Node5</title>
<g id="a_node1"><a xlink:title=" ">
<polygon fill="none" stroke="#bfbfbf" points="35,-95.5 35,-114.5 87,-114.5 87,-95.5 35,-95.5"/>
<text text-anchor="middle" x="61" y="-102.5" font-family="Helvetica,sans-Serif" font-size="10.00" fill="#000000">QFrame</text>
</a>
</g>
</g>
<!-- Node0 -->
<g id="node2" class="node">
<title>Node0</title>
<g id="a_node2"><a xlink:href="class_qwt_abstract_legend.html" target="_top" xlink:title="Abstract base class for legend widgets.">
<polygon fill="none" stroke="#000000" points="173.5,-38.5 173.5,-57.5 276.5,-57.5 276.5,-38.5 173.5,-38.5"/>
<text text-anchor="middle" x="225" y="-45.5" font-family="Helvetica,sans-Serif" font-size="10.00" fill="#000000">QwtAbstractLegend</text>
</a>
</g>
</g>
<!-- Node5&#45;&gt;Node0 -->
<g id="edge1" class="edge">
<title>Node5&#45;&gt;Node0</title>
<path fill="none" stroke="#191970" d="M92.7878,-91.6467C111.5882,-83.976 135.9598,-74.4228 158,-67 167.9687,-63.6427 178.8999,-60.373 188.988,-57.519"/>
<polygon fill="#191970" stroke="#191970" points="91.4225,-88.4237 83.5061,-95.4651 94.0858,-94.8973 91.4225,-88.4237"/>
</g>
<!-- Node8 -->
<g id="node4" class="node">
<title>Node8</title>
<g id="a_node4"><a xlink:href="class_qwt_plot.html" target="_top" xlink:title="A 2&#45;D plotting widget.">
<polygon fill="none" stroke="#000000" points="199,-190.5 199,-209.5 251,-209.5 251,-190.5 199,-190.5"/>
<text text-anchor="middle" x="225" y="-197.5" font-family="Helvetica,sans-Serif" font-size="10.00" fill="#000000">QwtPlot</text>
</a>
</g>
</g>
<!-- Node5&#45;&gt;Node8 -->
<g id="edge3" class="edge">
<title>Node5&#45;&gt;Node8</title>
<path fill="none" stroke="#191970" d="M78.0792,-121.8088C96.4075,-138.9752 127.0763,-165.2737 158,-181 170.8247,-187.522 186.2038,-192.0861 198.9913,-195.1033"/>
<polygon fill="#191970" stroke="#191970" points="80.2184,-119.0119 70.5699,-114.635 75.383,-124.0735 80.2184,-119.0119"/>
</g>
<!-- Node9 -->
<g id="node5" class="node">
<title>Node9</title>
<g id="a_node5"><a xlink:href="class_qwt_plot_canvas.html" target="_top" xlink:title="Canvas of a QwtPlot.">
<polygon fill="none" stroke="#000000" points="182.5,-228.5 182.5,-247.5 267.5,-247.5 267.5,-228.5 182.5,-228.5"/>
<text text-anchor="middle" x="225" y="-235.5" font-family="Helvetica,sans-Serif" font-size="10.00" fill="#000000">QwtPlotCanvas</text>
</a>
</g>
</g>
<!-- Node5&#45;&gt;Node9 -->
<g id="edge4" class="edge">
<title>Node5&#45;&gt;Node9</title>
<path fill="none" stroke="#191970" d="M75.2111,-122.8241C99.5633,-153.1941 147.6525,-212.3521 158,-219 165.324,-223.7054 173.828,-227.2669 182.269,-229.9558"/>
<polygon fill="#191970" stroke="#191970" points="77.7324,-120.3728 68.7526,-114.7502 72.2661,-124.7455 77.7324,-120.3728"/>
</g>
<!-- Node10 -->
<g id="node6" class="node">
<title>Node10</title>
<g id="a_node6"><a xlink:href="class_qwt_polar_canvas.html" target="_top" xlink:title="Canvas of a QwtPolarPlot.">
<polygon fill="none" stroke="#000000" points="180,-76.5 180,-95.5 270,-95.5 270,-76.5 180,-76.5"/>
<text text-anchor="middle" x="225" y="-83.5" font-family="Helvetica,sans-Serif" font-size="10.00" fill="#000000">QwtPolarCanvas</text>
</a>
</g>
</g>
<!-- Node5&#45;&gt;Node10 -->
<g id="edge5" class="edge">
<title>Node5&#45;&gt;Node10</title>
<path fill="none" stroke="#191970" d="M97.5796,-100.7621C121.8753,-97.9474 153.9423,-94.2323 179.8285,-91.2333"/>
<polygon fill="#191970" stroke="#191970" points="96.8802,-97.3197 87.3494,-101.9473 97.6858,-104.2731 96.8802,-97.3197"/>
</g>
<!-- Node11 -->
<g id="node7" class="node">
<title>Node11</title>
<g id="a_node7"><a xlink:href="class_qwt_polar_plot.html" target="_top" xlink:title="A plotting widget, displaying a polar coordinate system.">
<polygon fill="none" stroke="#000000" points="188,-.5 188,-19.5 262,-19.5 262,-.5 188,-.5"/>
<text text-anchor="middle" x="225" y="-7.5" font-family="Helvetica,sans-Serif" font-size="10.00" fill="#000000">QwtPolarPlot</text>
</a>
</g>
</g>
<!-- Node5&#45;&gt;Node11 -->
<g id="edge6" class="edge">
<title>Node5&#45;&gt;Node11</title>
<path fill="none" stroke="#191970" d="M78.0792,-88.1912C96.4075,-71.0248 127.0763,-44.7263 158,-29 167.2683,-24.2866 177.8706,-20.5958 187.8648,-17.7725"/>
<polygon fill="#191970" stroke="#191970" points="75.383,-85.9265 70.5699,-95.365 80.2184,-90.9881 75.383,-85.9265"/>
</g>
<!-- Node12 -->
<g id="node8" class="node">
<title>Node12</title>
<g id="a_node8"><a xlink:href="class_qwt_text_label.html" target="_top" xlink:title="A Widget which displays a QwtText.">
<polygon fill="none" stroke="#000000" points="186.5,-114.5 186.5,-133.5 263.5,-133.5 263.5,-114.5 186.5,-114.5"/>
<text text-anchor="middle" x="225" y="-121.5" font-family="Helvetica,sans-Serif" font-size="10.00" fill="#000000">QwtTextLabel</text>
</a>
</g>
</g>
<!-- Node5&#45;&gt;Node12 -->
<g id="edge7" class="edge">
<title>Node5&#45;&gt;Node12</title>
<path fill="none" stroke="#191970" d="M97.3481,-109.2111C123.7968,-112.2752 159.5457,-116.4169 186.4845,-119.5378"/>
<polygon fill="#191970" stroke="#191970" points="97.6858,-105.7269 87.3494,-108.0527 96.8802,-112.6804 97.6858,-105.7269"/>
</g>
<!-- Node1 -->
<g id="node3" class="node">
<title>Node1</title>
<g id="a_node3"><a xlink:href="class_qwt_legend.html" target="_top" xlink:title="The legend widget.">
<polygon fill="none" stroke="#000000" points="355.5,-38.5 355.5,-57.5 421.5,-57.5 421.5,-38.5 355.5,-38.5"/>
<text text-anchor="middle" x="388.5" y="-45.5" font-family="Helvetica,sans-Serif" font-size="10.00" fill="#000000">QwtLegend</text>
</a>
</g>
</g>
<!-- Node0&#45;&gt;Node1 -->
<g id="edge2" class="edge">
<title>Node0&#45;&gt;Node1</title>
<path fill="none" stroke="#191970" d="M286.8474,-48C310.027,-48 335.4796,-48 355.1176,-48"/>
<polygon fill="#191970" stroke="#191970" points="286.7325,-44.5001 276.7324,-48 286.7324,-51.5001 286.7325,-44.5001"/>
</g>
<!-- Node13 -->
<g id="node9" class="node">
<title>Node13</title>
<g id="a_node9"><a xlink:href="class_qwt_legend_label.html" target="_top" xlink:title="A widget representing something on a QwtLegend.">
<polygon fill="none" stroke="#000000" points="344,-114.5 344,-133.5 433,-133.5 433,-114.5 344,-114.5"/>
<text text-anchor="middle" x="388.5" y="-121.5" font-family="Helvetica,sans-Serif" font-size="10.00" fill="#000000">QwtLegendLabel</text>
</a>
</g>
</g>
<!-- Node12&#45;&gt;Node13 -->
<g id="edge8" class="edge">
<title>Node12&#45;&gt;Node13</title>
<path fill="none" stroke="#191970" d="M273.9811,-124C296.2035,-124 322.2972,-124 343.9596,-124"/>
<polygon fill="#191970" stroke="#191970" points="273.7473,-120.5001 263.7472,-124 273.7472,-127.5001 273.7473,-120.5001"/>
</g>
<!-- Node14 -->
<g id="node10" class="node">
<title>Node14</title>
<g id="a_node10"><a xlink:title=" ">
<polygon fill="none" stroke="#bfbfbf" points="191.5,-304.5 191.5,-323.5 258.5,-323.5 258.5,-304.5 191.5,-304.5"/>
<text text-anchor="middle" x="225" y="-311.5" font-family="Helvetica,sans-Serif" font-size="10.00" fill="#000000">QGLWidget</text>
</a>
</g>
</g>
<!-- Node15 -->
<g id="node11" class="node">
<title>Node15</title>
<g id="a_node11"><a xlink:href="class_qwt_plot_g_l_canvas.html" target="_top" xlink:title="An alternative canvas for a QwtPlot derived from QGLWidget.">
<polygon fill="none" stroke="#000000" points="339.5,-285.5 339.5,-304.5 437.5,-304.5 437.5,-285.5 339.5,-285.5"/>
<text text-anchor="middle" x="388.5" y="-292.5" font-family="Helvetica,sans-Serif" font-size="10.00" fill="#000000">QwtPlotGLCanvas</text>
</a>
</g>
</g>
<!-- Node14&#45;&gt;Node15 -->
<g id="edge9" class="edge">
<title>Node14&#45;&gt;Node15</title>
<path fill="none" stroke="#191970" d="M268.8449,-308.9049C290.6259,-306.3738 317.0176,-303.3068 339.4671,-300.698"/>
<polygon fill="#191970" stroke="#191970" points="268.4064,-305.4322 258.8773,-310.0632 269.2145,-312.3854 268.4064,-305.4322"/>
</g>
<!-- Node43 -->
<g id="node12" class="node">
<title>Node43</title>
<g id="a_node12"><a xlink:title=" ">
<polygon fill="none" stroke="#bfbfbf" points="180,-152.5 180,-171.5 270,-171.5 270,-152.5 180,-152.5"/>
<text text-anchor="middle" x="225" y="-159.5" font-family="Helvetica,sans-Serif" font-size="10.00" fill="#000000">QOpenGLWidget</text>
</a>
</g>
</g>
<!-- Node44 -->
<g id="node13" class="node">
<title>Node44</title>
<g id="a_node13"><a xlink:href="class_qwt_plot_open_g_l_canvas.html" target="_top" xlink:title="An alternative canvas for a QwtPlot derived from QOpenGLWidget.">
<polygon fill="none" stroke="#000000" points="328,-209.5 328,-228.5 449,-228.5 449,-209.5 328,-209.5"/>
<text text-anchor="middle" x="388.5" y="-216.5" font-family="Helvetica,sans-Serif" font-size="10.00" fill="#000000">QwtPlotOpenGLCanvas</text>
</a>
</g>
</g>
<!-- Node43&#45;&gt;Node44 -->
<g id="edge10" class="edge">
<title>Node43&#45;&gt;Node44</title>
<path fill="none" stroke="#191970" d="M270.6651,-174.2958C277.8413,-176.4159 285.1486,-178.6858 292,-181 317.7588,-189.7004 346.7041,-201.3578 366.115,-209.4569"/>
<polygon fill="#191970" stroke="#191970" points="271.5945,-170.9212 261.0159,-171.5075 269.6512,-177.6461 271.5945,-170.9212"/>
</g>
<!-- Node141 -->
<g id="node14" class="node">
<title>Node141</title>
<g id="a_node14"><a xlink:href="class_qwt_plot_abstract_canvas.html" target="_top" xlink:title="Base class for all type of plot canvases.">
<polygon fill="none" stroke="#000000" points="0,-247.5 0,-266.5 122,-266.5 122,-247.5 0,-247.5"/>
<text text-anchor="middle" x="61" y="-254.5" font-family="Helvetica,sans-Serif" font-size="10.00" fill="#000000">QwtPlotAbstractCanvas</text>
</a>
</g>
</g>
<!-- Node141&#45;&gt;Node9 -->
<g id="edge14" class="edge">
<title>Node141&#45;&gt;Node9</title>
<path fill="none" stroke="#191970" d="M132.0498,-248.7686C149.1704,-246.7851 166.9393,-244.7265 182.299,-242.9471"/>
<polygon fill="#191970" stroke="#191970" points="131.5983,-245.2974 122.0675,-249.9251 132.4039,-252.2509 131.5983,-245.2974"/>
</g>
<!-- Node142 -->
<g id="node15" class="node">
<title>Node142</title>
<g id="a_node15"><a xlink:href="class_qwt_plot_abstract_g_l_canvas.html" target="_top" xlink:title="Base class of QwtPlotOpenGLCanvas and QwtPlotGLCanvas.">
<polygon fill="none" stroke="#000000" points="158,-266.5 158,-285.5 292,-285.5 292,-266.5 158,-266.5"/>
<text text-anchor="middle" x="225" y="-273.5" font-family="Helvetica,sans-Serif" font-size="10.00" fill="#000000">QwtPlotAbstractGLCanvas</text>
</a>
</g>
</g>
<!-- Node141&#45;&gt;Node142 -->
<g id="edge11" class="edge">
<title>Node141&#45;&gt;Node142</title>
<path fill="none" stroke="#191970" d="M132.0236,-265.2283C140.5879,-266.2206 149.3149,-267.2316 157.8217,-268.2172"/>
<polygon fill="#191970" stroke="#191970" points="132.4039,-261.7491 122.0675,-264.0749 131.5983,-268.7026 132.4039,-261.7491"/>
</g>
<!-- Node142&#45;&gt;Node15 -->
<g id="edge12" class="edge">
<title>Node142&#45;&gt;Node15</title>
<path fill="none" stroke="#191970" d="M302.428,-284.9978C314.9394,-286.4517 327.5862,-287.9213 339.1917,-289.27"/>
<polygon fill="#191970" stroke="#191970" points="302.7829,-281.5155 292.4457,-283.8377 301.9748,-288.4687 302.7829,-281.5155"/>
</g>
<!-- Node142&#45;&gt;Node44 -->
<g id="edge13" class="edge">
<title>Node142&#45;&gt;Node44</title>
<path fill="none" stroke="#191970" d="M270.6651,-263.7042C277.8413,-261.5841 285.1486,-259.3142 292,-257 317.7588,-248.2996 346.7041,-236.6422 366.115,-228.5431"/>
<polygon fill="#191970" stroke="#191970" points="269.6512,-260.3539 261.0159,-266.4925 271.5945,-267.0788 269.6512,-260.3539"/>
</g>
<!-- Node143 -->
<g id="node16" class="node">
<title>Node143</title>
<g id="a_node16"><a xlink:href="class_qwt_plot_dict.html" target="_top" xlink:title="A dictionary for plot items.">
<polygon fill="none" stroke="#000000" points="26,-190.5 26,-209.5 96,-209.5 96,-190.5 26,-190.5"/>
<text text-anchor="middle" x="61" y="-197.5" font-family="Helvetica,sans-Serif" font-size="10.00" fill="#000000">QwtPlotDict</text>
</a>
</g>
</g>
<!-- Node143&#45;&gt;Node8 -->
<g id="edge15" class="edge">
<title>Node143&#45;&gt;Node8</title>
<path fill="none" stroke="#191970" d="M106.3271,-200C136.0616,-200 173.8986,-200 198.7536,-200"/>
<polygon fill="#191970" stroke="#191970" points="106.1821,-196.5001 96.1821,-200 106.1821,-203.5001 106.1821,-196.5001"/>
</g>
<!-- Node165 -->
<g id="node17" class="node">
<title>Node165</title>
<g id="a_node17"><a xlink:href="class_qwt_polar_item_dict.html" target="_top" xlink:title="A dictionary for polar plot items.">
<polygon fill="none" stroke="#000000" points="13.5,-.5 13.5,-19.5 108.5,-19.5 108.5,-.5 13.5,-.5"/>
<text text-anchor="middle" x="61" y="-7.5" font-family="Helvetica,sans-Serif" font-size="10.00" fill="#000000">QwtPolarItemDict</text>
</a>
</g>
</g>
<!-- Node165&#45;&gt;Node11 -->
<g id="edge16" class="edge">
<title>Node165&#45;&gt;Node11</title>
<path fill="none" stroke="#191970" d="M119.1439,-10C141.9666,-10 167.4899,-10 187.7554,-10"/>
<polygon fill="#191970" stroke="#191970" points="118.8765,-6.5001 108.8765,-10 118.8764,-13.5001 118.8765,-6.5001"/>
</g>
</g>
</svg>
