<?xml version="1.0" encoding="UTF-8" standalone="no"?>
<!DOCTYPE svg PUBLIC "-//W3C//DTD SVG 1.1//EN"
 "http://www.w3.org/Graphics/SVG/1.1/DTD/svg11.dtd">
<!-- Generated by graphviz version 2.40.1 (20161225.0304)
 -->
<!-- Title: Graphical Class Hierarchy Pages: 1 -->
<svg width="550pt" height="303pt"
 viewBox="0.00 0.00 550.00 303.00" xmlns="http://www.w3.org/2000/svg" xmlns:xlink="http://www.w3.org/1999/xlink">
<g id="graph0" class="graph" transform="scale(1 1) rotate(0) translate(4 299)">
<title>Graphical Class Hierarchy</title>
<!-- Node67 -->
<g id="node1" class="node">
<title>Node67</title>
<g id="a_node1"><a xlink:title=" ">
<polygon fill="none" stroke="#bfbfbf" points="0,-95.5 0,-114.5 55,-114.5 55,-95.5 0,-95.5"/>
<text text-anchor="middle" x="27.5" y="-102.5" font-family="Helvetica,sans-Serif" font-size="10.00" fill="#000000">QWidget</text>
</a>
</g>
</g>
<!-- Node0 -->
<g id="node2" class="node">
<title>Node0</title>
<g id="a_node2"><a xlink:href="class_qwt_abstract_scale.html" target="_top" xlink:title="An abstract base class for widgets having a scale.">
<polygon fill="none" stroke="#000000" points="92,-190.5 92,-209.5 188,-209.5 188,-190.5 92,-190.5"/>
<text text-anchor="middle" x="140" y="-197.5" font-family="Helvetica,sans-Serif" font-size="10.00" fill="#000000">QwtAbstractScale</text>
</a>
</g>
</g>
<!-- Node67&#45;&gt;Node0 -->
<g id="edge1" class="edge">
<title>Node67&#45;&gt;Node0</title>
<path fill="none" stroke="#191970" d="M38.6352,-122.9938C49.9645,-139.9953 68.9574,-165.1858 91,-181 96.2636,-184.7763 102.3766,-187.9194 108.463,-190.4901"/>
<polygon fill="#191970" stroke="#191970" points="41.5202,-121.0093 33.1589,-114.5024 35.6375,-124.8033 41.5202,-121.0093"/>
</g>
<!-- Node76 -->
<g id="node10" class="node">
<title>Node76</title>
<g id="a_node10"><a xlink:href="class_qwt_counter.html" target="_top" xlink:title="The Counter Widget.">
<polygon fill="none" stroke="#000000" points="105.5,-152.5 105.5,-171.5 174.5,-171.5 174.5,-152.5 105.5,-152.5"/>
<text text-anchor="middle" x="140" y="-159.5" font-family="Helvetica,sans-Serif" font-size="10.00" fill="#000000">QwtCounter</text>
</a>
</g>
</g>
<!-- Node67&#45;&gt;Node76 -->
<g id="edge9" class="edge">
<title>Node67&#45;&gt;Node76</title>
<path fill="none" stroke="#191970" d="M50.7475,-120.2054C62.5406,-127.5823 77.247,-136.2786 91,-143 97.9679,-146.4053 105.7106,-149.644 112.9455,-152.4512"/>
<polygon fill="#191970" stroke="#191970" points="52.3045,-117.0478 41.988,-114.635 48.5482,-122.9546 52.3045,-117.0478"/>
</g>
<!-- Node77 -->
<g id="node11" class="node">
<title>Node77</title>
<g id="a_node11"><a xlink:href="class_qwt_panner.html" target="_top" xlink:title="QwtPanner provides panning of a widget.">
<polygon fill="none" stroke="#000000" points="107.5,-114.5 107.5,-133.5 172.5,-133.5 172.5,-114.5 107.5,-114.5"/>
<text text-anchor="middle" x="140" y="-121.5" font-family="Helvetica,sans-Serif" font-size="10.00" fill="#000000">QwtPanner</text>
</a>
</g>
</g>
<!-- Node67&#45;&gt;Node77 -->
<g id="edge10" class="edge">
<title>Node67&#45;&gt;Node77</title>
<path fill="none" stroke="#191970" d="M65.0594,-111.3434C78.6891,-113.6453 93.9706,-116.2262 107.1615,-118.4539"/>
<polygon fill="#191970" stroke="#191970" points="65.4638,-107.8622 55.0206,-109.6479 64.2981,-114.7644 65.4638,-107.8622"/>
</g>
<!-- Node80 -->
<g id="node14" class="node">
<title>Node80</title>
<g id="a_node14"><a xlink:href="class_qwt_scale_widget.html" target="_top" xlink:title="A Widget which contains a scale.">
<polygon fill="none" stroke="#000000" points="95,-76.5 95,-95.5 185,-95.5 185,-76.5 95,-76.5"/>
<text text-anchor="middle" x="140" y="-83.5" font-family="Helvetica,sans-Serif" font-size="10.00" fill="#000000">QwtScaleWidget</text>
</a>
</g>
</g>
<!-- Node67&#45;&gt;Node80 -->
<g id="edge13" class="edge">
<title>Node67&#45;&gt;Node80</title>
<path fill="none" stroke="#191970" d="M64.9997,-98.6667C74.5467,-97.0543 84.9073,-95.3046 94.794,-93.6348"/>
<polygon fill="#191970" stroke="#191970" points="64.2981,-95.2356 55.0206,-100.3521 65.4638,-102.1378 64.2981,-95.2356"/>
</g>
<!-- Node81 -->
<g id="node15" class="node">
<title>Node81</title>
<g id="a_node15"><a xlink:href="class_qwt_wheel.html" target="_top" xlink:title="The Wheel Widget.">
<polygon fill="none" stroke="#000000" points="109,-38.5 109,-57.5 171,-57.5 171,-38.5 109,-38.5"/>
<text text-anchor="middle" x="140" y="-45.5" font-family="Helvetica,sans-Serif" font-size="10.00" fill="#000000">QwtWheel</text>
</a>
</g>
</g>
<!-- Node67&#45;&gt;Node81 -->
<g id="edge14" class="edge">
<title>Node67&#45;&gt;Node81</title>
<path fill="none" stroke="#191970" d="M50.7475,-89.7946C62.5406,-82.4177 77.247,-73.7214 91,-67 97.9679,-63.5947 105.7106,-60.356 112.9455,-57.5488"/>
<polygon fill="#191970" stroke="#191970" points="48.5482,-87.0454 41.988,-95.365 52.3045,-92.9522 48.5482,-87.0454"/>
</g>
<!-- Node82 -->
<g id="node16" class="node">
<title>Node82</title>
<g id="a_node16"><a xlink:href="class_qwt_widget_overlay.html" target="_top" xlink:title="An overlay for a widget.">
<polygon fill="none" stroke="#000000" points="91,-.5 91,-19.5 189,-19.5 189,-.5 91,-.5"/>
<text text-anchor="middle" x="140" y="-7.5" font-family="Helvetica,sans-Serif" font-size="10.00" fill="#000000">QwtWidgetOverlay</text>
</a>
</g>
</g>
<!-- Node67&#45;&gt;Node82 -->
<g id="edge15" class="edge">
<title>Node67&#45;&gt;Node82</title>
<path fill="none" stroke="#191970" d="M38.6352,-87.0062C49.9645,-70.0047 68.9574,-44.8142 91,-29 96.2636,-25.2237 102.3766,-22.0806 108.463,-19.5099"/>
<polygon fill="#191970" stroke="#191970" points="35.6375,-85.1967 33.1589,-95.4976 41.5202,-88.9907 35.6375,-85.1967"/>
</g>
<!-- Node1 -->
<g id="node3" class="node">
<title>Node1</title>
<g id="a_node3"><a xlink:href="class_qwt_abstract_slider.html" target="_top" xlink:title="An abstract base class for slider widgets with a scale.">
<polygon fill="none" stroke="#000000" points="225,-218.5 225,-237.5 321,-237.5 321,-218.5 225,-218.5"/>
<text text-anchor="middle" x="273" y="-225.5" font-family="Helvetica,sans-Serif" font-size="10.00" fill="#000000">QwtAbstractSlider</text>
</a>
</g>
</g>
<!-- Node0&#45;&gt;Node1 -->
<g id="edge2" class="edge">
<title>Node0&#45;&gt;Node1</title>
<path fill="none" stroke="#191970" d="M195.214,-211.624C206.0654,-213.9085 217.3298,-216.28 227.8055,-218.4854"/>
<polygon fill="#191970" stroke="#191970" points="195.9056,-208.193 185.3991,-209.5577 194.4635,-215.0428 195.9056,-208.193"/>
</g>
<!-- Node7 -->
<g id="node9" class="node">
<title>Node7</title>
<g id="a_node9"><a xlink:href="class_qwt_thermo.html" target="_top" xlink:title="The Thermometer Widget.">
<polygon fill="none" stroke="#000000" points="239,-180.5 239,-199.5 307,-199.5 307,-180.5 239,-180.5"/>
<text text-anchor="middle" x="273" y="-187.5" font-family="Helvetica,sans-Serif" font-size="10.00" fill="#000000">QwtThermo</text>
</a>
</g>
</g>
<!-- Node0&#45;&gt;Node7 -->
<g id="edge8" class="edge">
<title>Node0&#45;&gt;Node7</title>
<path fill="none" stroke="#191970" d="M198.0295,-195.6369C211.9525,-194.59 226.379,-193.5053 238.814,-192.5704"/>
<polygon fill="#191970" stroke="#191970" points="197.7255,-192.1498 188.0161,-196.3898 198.2504,-199.1301 197.7255,-192.1498"/>
</g>
<!-- Node2 -->
<g id="node4" class="node">
<title>Node2</title>
<g id="a_node4"><a xlink:href="class_qwt_dial.html" target="_top" xlink:title="QwtDial class provides a rounded range control.">
<polygon fill="none" stroke="#000000" points="360.5,-256.5 360.5,-275.5 412.5,-275.5 412.5,-256.5 360.5,-256.5"/>
<text text-anchor="middle" x="386.5" y="-263.5" font-family="Helvetica,sans-Serif" font-size="10.00" fill="#000000">QwtDial</text>
</a>
</g>
</g>
<!-- Node1&#45;&gt;Node2 -->
<g id="edge3" class="edge">
<title>Node1&#45;&gt;Node2</title>
<path fill="none" stroke="#191970" d="M311.3123,-240.827C327.3912,-246.2103 345.6854,-252.3352 360.2023,-257.1955"/>
<polygon fill="#191970" stroke="#191970" points="312.2347,-237.445 301.6408,-237.589 310.0123,-244.0828 312.2347,-237.445"/>
</g>
<!-- Node5 -->
<g id="node7" class="node">
<title>Node5</title>
<g id="a_node7"><a xlink:href="class_qwt_knob.html" target="_top" xlink:title="The Knob Widget.">
<polygon fill="none" stroke="#000000" points="358,-218.5 358,-237.5 415,-237.5 415,-218.5 358,-218.5"/>
<text text-anchor="middle" x="386.5" y="-225.5" font-family="Helvetica,sans-Serif" font-size="10.00" fill="#000000">QwtKnob</text>
</a>
</g>
</g>
<!-- Node1&#45;&gt;Node5 -->
<g id="edge6" class="edge">
<title>Node1&#45;&gt;Node5</title>
<path fill="none" stroke="#191970" d="M331.4205,-228C340.5542,-228 349.6302,-228 357.701,-228"/>
<polygon fill="#191970" stroke="#191970" points="331.1343,-224.5001 321.1342,-228 331.1342,-231.5001 331.1343,-224.5001"/>
</g>
<!-- Node6 -->
<g id="node8" class="node">
<title>Node6</title>
<g id="a_node8"><a xlink:href="class_qwt_slider.html" target="_top" xlink:title="The Slider Widget.">
<polygon fill="none" stroke="#000000" points="357,-180.5 357,-199.5 416,-199.5 416,-180.5 357,-180.5"/>
<text text-anchor="middle" x="386.5" y="-187.5" font-family="Helvetica,sans-Serif" font-size="10.00" fill="#000000">QwtSlider</text>
</a>
</g>
</g>
<!-- Node1&#45;&gt;Node6 -->
<g id="edge7" class="edge">
<title>Node1&#45;&gt;Node6</title>
<path fill="none" stroke="#191970" d="M311.309,-215.1741C326.5383,-210.0753 343.7556,-204.3109 357.8683,-199.5859"/>
<polygon fill="#191970" stroke="#191970" points="310.0123,-211.9172 301.6408,-218.411 312.2347,-218.555 310.0123,-211.9172"/>
</g>
<!-- Node3 -->
<g id="node5" class="node">
<title>Node3</title>
<g id="a_node5"><a xlink:href="class_qwt_analog_clock.html" target="_top" xlink:title="An analog clock.">
<polygon fill="none" stroke="#000000" points="452,-275.5 452,-294.5 542,-294.5 542,-275.5 452,-275.5"/>
<text text-anchor="middle" x="497" y="-282.5" font-family="Helvetica,sans-Serif" font-size="10.00" fill="#000000">QwtAnalogClock</text>
</a>
</g>
</g>
<!-- Node2&#45;&gt;Node3 -->
<g id="edge4" class="edge">
<title>Node2&#45;&gt;Node3</title>
<path fill="none" stroke="#191970" d="M422.8022,-272.242C432.1293,-273.8458 442.276,-275.5904 451.9857,-277.26"/>
<polygon fill="#191970" stroke="#191970" points="423.1355,-268.748 412.687,-270.5027 421.9492,-275.6468 423.1355,-268.748"/>
</g>
<!-- Node4 -->
<g id="node6" class="node">
<title>Node4</title>
<g id="a_node6"><a xlink:href="class_qwt_compass.html" target="_top" xlink:title="A Compass Widget.">
<polygon fill="none" stroke="#000000" points="458.5,-237.5 458.5,-256.5 535.5,-256.5 535.5,-237.5 458.5,-237.5"/>
<text text-anchor="middle" x="497" y="-244.5" font-family="Helvetica,sans-Serif" font-size="10.00" fill="#000000">QwtCompass</text>
</a>
</g>
</g>
<!-- Node2&#45;&gt;Node4 -->
<g id="edge5" class="edge">
<title>Node2&#45;&gt;Node4</title>
<path fill="none" stroke="#191970" d="M422.7695,-259.7636C434.1981,-257.7985 446.8602,-255.6213 458.4422,-253.6299"/>
<polygon fill="#191970" stroke="#191970" points="421.9492,-256.3532 412.687,-261.4973 423.1355,-263.252 421.9492,-256.3532"/>
</g>
<!-- Node78 -->
<g id="node12" class="node">
<title>Node78</title>
<g id="a_node12"><a xlink:href="class_qwt_plot_panner.html" target="_top" xlink:title="QwtPlotPanner provides panning of a plot canvas.">
<polygon fill="none" stroke="#000000" points="231.5,-133.5 231.5,-152.5 314.5,-152.5 314.5,-133.5 231.5,-133.5"/>
<text text-anchor="middle" x="273" y="-140.5" font-family="Helvetica,sans-Serif" font-size="10.00" fill="#000000">QwtPlotPanner</text>
</a>
</g>
</g>
<!-- Node77&#45;&gt;Node78 -->
<g id="edge11" class="edge">
<title>Node77&#45;&gt;Node78</title>
<path fill="none" stroke="#191970" d="M182.4512,-130.0645C198.0537,-132.2934 215.6974,-134.8139 231.2387,-137.0341"/>
<polygon fill="#191970" stroke="#191970" points="182.93,-126.5974 172.5355,-128.6479 181.94,-133.527 182.93,-126.5974"/>
</g>
<!-- Node79 -->
<g id="node13" class="node">
<title>Node79</title>
<g id="a_node13"><a xlink:href="class_qwt_polar_panner.html" target="_top" xlink:title="QwtPolarPanner provides panning of a polar plot canvas.">
<polygon fill="none" stroke="#000000" points="229,-95.5 229,-114.5 317,-114.5 317,-95.5 229,-95.5"/>
<text text-anchor="middle" x="273" y="-102.5" font-family="Helvetica,sans-Serif" font-size="10.00" fill="#000000">QwtPolarPanner</text>
</a>
</g>
</g>
<!-- Node77&#45;&gt;Node79 -->
<g id="edge12" class="edge">
<title>Node77&#45;&gt;Node79</title>
<path fill="none" stroke="#191970" d="M182.8587,-117.8773C197.5316,-115.7812 213.9698,-113.4329 228.7505,-111.3214"/>
<polygon fill="#191970" stroke="#191970" points="181.94,-114.473 172.5355,-119.3521 182.93,-121.4026 181.94,-114.473"/>
</g>
</g>
</svg>
